<svg width="213" height="214" viewBox="0 0 213 214" fill="none" xmlns="http://www.w3.org/2000/svg">
<path d="M70.2463 170.24C55.5311 163.039 39.8992 157.887 23.7861 154.927C32.0935 149.418 32.5628 135.315 33.9542 125.443C38.4331 93.7618 69.8593 73.5245 94.2956 56.8522C96.3539 55.4026 98.4865 54.0615 100.685 52.8343C103.278 51.4429 110.499 47.1369 112.392 51.1136C114.212 54.9421 109.7 61.9074 107.452 64.7149C108.944 62.4932 110.595 60.3827 112.392 58.4C112.945 57.6593 113.712 57.1072 114.591 56.8192C116.237 56.4405 117.81 58.0048 118.057 59.6679C118.304 61.3311 117.612 62.9612 116.855 64.4844C115.03 68.0811 112.756 71.4314 110.087 74.4548C111.882 72.4212 118.518 64.8055 118.378 72.52C118.263 77.3793 116.236 81.9972 112.738 85.3721C114.273 84.0245 115.927 82.8176 117.678 81.766C117.924 81.5723 118.208 81.432 118.511 81.3541C118.815 81.2761 119.131 81.2622 119.44 81.3131C119.767 81.472 120.048 81.7122 120.255 82.0106C120.463 82.309 120.59 82.6556 120.626 83.0174C121.729 87.9574 118.979 91.4976 117.102 95.7213C115.636 99.0146 114.78 102.11 112.911 105.28C106.16 116.757 98.9968 128.037 91.274 138.88C89.2816 141.638 70.3451 170.29 70.2463 170.24Z" fill="#FFD6D6"/>
<path d="M70.2208 170.66C70.1652 170.658 70.1112 170.641 70.0644 170.611C55.3836 163.424 39.7876 158.283 23.7113 155.33C23.6321 155.314 23.5593 155.276 23.5019 155.219C23.4444 155.162 23.4049 155.09 23.3883 155.011C23.3716 154.932 23.3785 154.85 23.4081 154.775C23.4377 154.7 23.4888 154.635 23.5548 154.589C30.5449 149.954 31.9033 138.748 32.9984 129.741C33.1795 128.226 33.3524 126.769 33.55 125.386C37.8807 94.7415 67.4462 74.6277 91.1827 58.4576L94.0396 56.5146C96.1078 55.0552 98.2514 53.7059 100.462 52.472L101.038 52.1592C103.508 50.8254 108.028 48.3472 110.844 49.2611C111.258 49.3858 111.641 49.5971 111.967 49.881C112.294 50.1648 112.556 50.5148 112.737 50.9077C113.717 52.9743 113.025 55.7406 111.873 58.2765C111.922 58.2106 111.98 58.153 112.037 58.0871C112.655 57.2855 113.507 56.6957 114.475 56.3993C114.864 56.3186 115.267 56.3194 115.656 56.4015C116.046 56.4837 116.415 56.6455 116.739 56.8768C117.19 57.1926 117.574 57.5958 117.866 58.0625C118.159 58.5292 118.355 59.0499 118.443 59.5938C118.706 61.3557 117.998 63.06 117.2 64.649C116.28 66.4592 115.249 68.2108 114.112 69.8936C115.347 68.9714 116.5 68.4774 117.406 68.8232C118.311 69.169 118.822 70.404 118.78 72.5117C118.704 76.1141 117.592 79.6183 115.578 82.6057C116.195 82.1776 116.813 81.7824 117.447 81.3954C117.741 81.1687 118.081 81.0074 118.443 80.9222C118.805 80.837 119.181 80.8299 119.546 80.9014C119.948 81.0728 120.296 81.3503 120.553 81.7041C120.81 82.0579 120.965 82.4749 121.003 82.9103C121.909 86.9693 120.353 90.0485 118.706 93.3089C118.286 94.1322 117.883 94.9967 117.455 95.8777C116.944 97.0221 116.5 98.1665 116.072 99.278C115.303 101.416 114.359 103.487 113.248 105.469C105.92 117.935 98.8396 128.934 91.5943 139.102C90.631 140.461 85.5264 148.159 80.5865 155.569L73.7035 165.901C70.9454 170.018 70.509 170.66 70.2208 170.66ZM24.8063 154.704C40.5016 157.673 55.7303 162.723 70.0891 169.722C71.0442 168.347 75.5148 161.628 79.8537 155.116C84.7937 147.706 89.8983 140.008 90.878 138.649C98.1068 128.498 105.171 117.515 112.49 105.082C113.578 103.134 114.504 101.099 115.257 98.9981C115.685 97.8866 116.138 96.7257 116.656 95.5648C117.052 94.6674 117.48 93.8029 117.916 92.9631C119.505 89.8345 120.995 86.887 120.155 83.0832C120.032 82.5316 119.768 81.84 119.25 81.6753C118.996 81.6481 118.74 81.6711 118.496 81.7432C118.251 81.8153 118.024 81.9349 117.825 82.0952C116.1 83.1355 114.469 84.3257 112.951 85.652C112.87 85.7177 112.766 85.7497 112.661 85.7414C112.556 85.7331 112.459 85.6851 112.388 85.6073C112.318 85.5295 112.28 85.4277 112.282 85.3228C112.284 85.2178 112.326 85.1177 112.4 85.0427C114.098 83.4146 115.458 81.4676 116.404 79.3132C117.349 77.1588 117.86 74.8392 117.908 72.487C117.908 70.8404 117.644 69.8112 117.084 69.5807C116.006 69.169 113.791 70.8486 110.44 74.6112L110.366 74.7018C110.328 74.7404 110.282 74.771 110.232 74.7919C110.182 74.8128 110.128 74.8236 110.074 74.8236C110.02 74.8236 109.966 74.8128 109.916 74.7919C109.865 74.771 109.82 74.7404 109.782 74.7018C109.742 74.6648 109.711 74.6202 109.689 74.5706C109.668 74.5211 109.657 74.4676 109.657 74.4136C109.657 74.3596 109.668 74.3062 109.689 74.2566C109.711 74.2071 109.742 74.1624 109.782 74.1255C112.424 71.1304 114.674 67.8103 116.475 64.2456C117.216 62.78 117.867 61.2157 117.636 59.6844C117.564 59.2526 117.407 58.8394 117.174 58.469C116.941 58.0986 116.636 57.7785 116.278 57.5272C116.044 57.3545 115.776 57.2336 115.492 57.1725C115.209 57.1115 114.915 57.1117 114.631 57.1732C113.84 57.448 113.149 57.9526 112.647 58.6223C111.609 59.7831 110.605 60.9852 109.666 62.2284C108.67 63.7516 107.839 64.7972 107.74 64.9207C107.672 65.0027 107.576 65.0559 107.47 65.0697C107.365 65.0834 107.258 65.0567 107.172 64.9948C107.085 64.9334 107.025 64.8401 107.007 64.7352C106.988 64.6303 107.012 64.5224 107.073 64.4349C107.715 63.4716 108.39 62.5331 109.09 61.6192C111.214 58.3259 113.256 53.8964 111.996 51.2453C111.865 50.9481 111.671 50.6827 111.428 50.4668C111.185 50.2509 110.899 50.0896 110.588 49.9938C108.118 49.1705 103.598 51.6405 101.433 52.8343L100.857 53.1472C98.6747 54.391 96.5611 55.7515 94.5254 57.2226L91.6684 59.1657C68.0473 75.2369 38.6464 95.2437 34.3651 125.526C34.1675 126.901 33.9946 128.358 33.8134 129.864C32.7267 138.666 31.4258 149.575 24.8063 154.704Z" fill="#231F20"/>
<path d="M93.1653 1.00176L37.4433 14.7193C35.1959 15.2726 33.8225 17.543 34.3758 19.7903L63.7102 138.949C64.2634 141.196 66.5338 142.57 68.7811 142.017L124.503 128.299C126.751 127.746 128.124 125.475 127.571 123.228L98.2363 4.06923C97.683 1.82186 95.4127 0.448502 93.1653 1.00176Z" fill="#1E212A"/>
<path d="M67.7598 142.56C66.921 142.557 66.0986 142.327 65.3804 141.893C64.8614 141.583 64.4097 141.171 64.052 140.684C63.6943 140.196 63.4377 139.641 63.2974 139.053L33.9706 19.8932C33.6798 18.7086 33.8711 17.457 34.5025 16.4135C35.1339 15.3699 36.1538 14.6196 37.338 14.3275L93.0606 0.610902C94.2462 0.319917 95.4988 0.511012 96.5437 1.14228C97.5886 1.77354 98.3405 2.79344 98.6345 3.9783L127.961 123.138C128.25 124.325 128.057 125.577 127.424 126.622C126.791 127.666 125.771 128.418 124.586 128.712L68.8631 142.42C68.5024 142.512 68.1319 142.559 67.7598 142.56ZM94.1721 1.30249C93.8642 1.30146 93.5574 1.33739 93.2582 1.40953L37.5356 15.1261C36.5631 15.3657 35.7255 15.9815 35.2068 16.8383C34.688 17.6951 34.5307 18.7228 34.7692 19.6956L64.096 138.855C64.3356 139.828 64.9515 140.665 65.8083 141.184C66.6651 141.703 67.6927 141.86 68.6655 141.622L124.388 127.913C125.362 127.672 126.2 127.055 126.72 126.197C127.24 125.339 127.399 124.31 127.163 123.336L97.8358 4.17589C97.6349 3.35595 97.1647 2.62714 96.5004 2.10617C95.8361 1.5852 95.0163 1.3022 94.1721 1.30249Z" fill="#231F20"/>
<path d="M96.7058 12.3318L39.5527 26.4017L63.6717 124.375L120.825 110.305L96.7058 12.3318Z" fill="#0D0F13"/>
<path d="M98.8612 120.769L87.9886 123.446C86.6066 123.786 85.7621 125.182 86.1023 126.564L87.1257 130.721C87.466 132.103 88.8621 132.948 90.2441 132.608L101.117 129.931C102.499 129.591 103.343 128.195 103.003 126.813L101.98 122.656C101.639 121.274 100.243 120.429 98.8612 120.769Z" fill="#171920"/>
<path d="M89.619 133.108C88.9505 133.107 88.3016 132.882 87.7763 132.468C87.2509 132.055 86.8793 131.477 86.7209 130.828L85.6918 126.67C85.5153 125.904 85.6468 125.099 86.058 124.429C86.4692 123.76 87.1271 123.278 87.89 123.089L98.7661 120.413C99.5357 120.226 100.348 120.352 101.025 120.762C101.702 121.173 102.19 121.834 102.381 122.603L103.401 126.719C103.59 127.489 103.466 128.302 103.055 128.98C102.644 129.658 101.981 130.145 101.211 130.334L90.36 133.018C90.1177 133.078 89.8688 133.109 89.619 133.108ZM99.4989 121.113C99.3213 121.114 99.1445 121.136 98.972 121.178L88.1041 123.854C87.828 123.921 87.568 124.042 87.3391 124.211C87.1102 124.379 86.9168 124.591 86.7703 124.834C86.6229 125.079 86.5253 125.35 86.4829 125.633C86.4405 125.915 86.4542 126.203 86.5233 126.481L87.5442 130.597C87.6118 130.874 87.7331 131.134 87.9012 131.363C88.0694 131.593 88.281 131.787 88.5242 131.934C88.7673 132.082 89.0371 132.18 89.3182 132.223C89.5993 132.266 89.8862 132.254 90.1624 132.186L101.03 129.51C101.307 129.443 101.567 129.322 101.796 129.154C102.026 128.985 102.22 128.774 102.367 128.531C102.515 128.287 102.613 128.018 102.656 127.737C102.699 127.455 102.687 127.169 102.619 126.892L101.598 122.776C101.531 122.5 101.41 122.24 101.242 122.011C101.074 121.782 100.862 121.588 100.619 121.442C100.276 121.225 99.8793 121.111 99.4742 121.113H99.4989Z" fill="#0B0C0F"/>
<path d="M56.1585 16.3776C56.0695 16.3713 55.9847 16.3367 55.9166 16.279C55.8485 16.2212 55.8006 16.1433 55.7798 16.0565C55.7663 16.0035 55.7635 15.9483 55.7716 15.8942C55.7797 15.8401 55.7984 15.7882 55.8268 15.7414C55.8551 15.6947 55.8925 15.6541 55.9368 15.6219C55.981 15.5898 56.0312 15.5668 56.0844 15.5542L72.3533 11.5529C72.4058 11.5393 72.4604 11.5361 72.514 11.5437C72.5677 11.5512 72.6193 11.5693 72.666 11.5968C72.7126 11.6243 72.7534 11.6608 72.7859 11.7041C72.8185 11.7475 72.8421 11.7968 72.8556 11.8493C72.8805 11.9562 72.8626 12.0686 72.8057 12.1625C72.7487 12.2564 72.6573 12.3242 72.5509 12.3515L56.282 16.3529L56.1585 16.3776Z" fill="#E6E7E8"/>
<path d="M74.7163 11.8081C74.6246 11.8085 74.5356 11.7778 74.4638 11.721C74.392 11.6641 74.3416 11.5845 74.3211 11.4952C74.2958 11.3894 74.3126 11.2779 74.3678 11.1843C74.4231 11.0906 74.5126 11.022 74.6175 10.993L76.8075 10.4578C76.9167 10.4316 77.0318 10.4499 77.1275 10.5085C77.2232 10.5672 77.2918 10.6615 77.318 10.7707C77.3442 10.8799 77.3259 10.995 77.2672 11.0907C77.2086 11.1864 77.1143 11.2549 77.0051 11.2812L74.815 11.8245L74.7163 11.8081Z" fill="#E6E7E8"/>
<path d="M103.486 89.3087L69.6207 97.6455C66.6227 98.3835 64.7907 101.412 65.5287 104.41L66.127 106.84C66.8651 109.838 69.8937 111.67 72.8916 110.932L106.757 102.596C109.755 101.858 111.587 98.8289 110.849 95.831L110.25 93.4006C109.512 90.4027 106.484 88.5706 103.486 89.3087Z" fill="#0EAF59"/>
<path d="M71.5387 111.562C70.1988 111.558 68.8987 111.107 67.8453 110.279C66.7919 109.451 66.0459 108.294 65.7261 106.993L65.1333 104.523C64.7552 102.978 65.0047 101.346 65.8273 99.9852C66.6498 98.6241 67.9782 97.6445 69.5216 97.2609L103.393 88.9289C104.158 88.7406 104.952 88.7048 105.73 88.8235C106.508 88.9422 107.255 89.213 107.929 89.6205C108.602 90.028 109.189 90.5642 109.655 91.1985C110.122 91.8328 110.459 92.5527 110.647 93.3172L111.248 95.7872C111.626 97.3308 111.376 98.9614 110.553 100.321C109.73 101.681 108.402 102.659 106.859 103.041L72.9878 111.348C72.515 111.477 72.0285 111.548 71.5387 111.562ZM104.834 89.6122C104.415 89.6156 103.998 89.6681 103.591 89.7687L69.7192 98.0595C69.0587 98.2215 68.4366 98.5122 67.8886 98.9149C67.3406 99.3176 66.8775 99.8245 66.5257 100.407C66.1738 100.989 65.9403 101.634 65.8384 102.307C65.7365 102.979 65.7683 103.665 65.9319 104.325L66.5247 106.795C66.8557 108.127 67.7009 109.273 68.8752 109.983C70.0495 110.693 71.4573 110.908 72.7902 110.582L106.662 102.242C107.993 101.913 109.139 101.069 109.849 99.8963C110.559 98.7233 110.775 97.3166 110.449 95.9848L109.848 93.5148C109.568 92.3942 108.924 91.3985 108.016 90.6844C107.108 89.9704 105.989 89.5787 104.834 89.5711V89.6122Z" fill="#0EAF59"/>
<path d="M102.137 60.6747L57.415 71.6842L59.393 79.7187L104.114 68.7092L102.137 60.6747Z" fill="#1E212A"/>
<path d="M63.5604 76.1262C64.3288 76.1262 64.9518 75.5032 64.9518 74.7348C64.9518 73.9663 64.3288 73.3434 63.5604 73.3434C62.7919 73.3434 62.1689 73.9663 62.1689 74.7348C62.1689 75.5032 62.7919 76.1262 63.5604 76.1262Z" fill="#EAEAEA"/>
<path d="M68.6653 74.8747C69.4338 74.8747 70.0568 74.2518 70.0568 73.4833C70.0568 72.7148 69.4338 72.0919 68.6653 72.0919C67.8969 72.0919 67.2739 72.7148 67.2739 73.4833C67.2739 74.2518 67.8969 74.8747 68.6653 74.8747Z" fill="#EAEAEA"/>
<path d="M73.7615 73.6151C74.53 73.6151 75.153 72.9921 75.153 72.2236C75.153 71.4552 74.53 70.8322 73.7615 70.8322C72.9931 70.8322 72.3701 71.4552 72.3701 72.2236C72.3701 72.9921 72.9931 73.6151 73.7615 73.6151Z" fill="#EAEAEA"/>
<path d="M78.8665 72.3636C79.635 72.3636 80.2579 71.7406 80.2579 70.9722C80.2579 70.2037 79.635 69.5807 78.8665 69.5807C78.098 69.5807 77.4751 70.2037 77.4751 70.9722C77.4751 71.7406 78.098 72.3636 78.8665 72.3636Z" fill="#EAEAEA"/>
<path d="M105.356 73.7772L60.6343 84.7867L62.6122 92.8212L107.334 81.8117L105.356 73.7772Z" fill="#1E212A"/>
<path d="M66.7796 89.2252C67.5481 89.2252 68.171 88.6023 68.171 87.8338C68.171 87.0653 67.5481 86.4424 66.7796 86.4424C66.0111 86.4424 65.3882 87.0653 65.3882 87.8338C65.3882 88.6023 66.0111 89.2252 66.7796 89.2252Z" fill="#EAEAEA"/>
<path d="M71.8846 87.9656C72.653 87.9656 73.276 87.3426 73.276 86.5742C73.276 85.8057 72.653 85.1827 71.8846 85.1827C71.1161 85.1827 70.4932 85.8057 70.4932 86.5742C70.4932 87.3426 71.1161 87.9656 71.8846 87.9656Z" fill="#EAEAEA"/>
<path d="M76.9891 86.7141C77.7575 86.7141 78.3805 86.0911 78.3805 85.3227C78.3805 84.5542 77.7575 83.9313 76.9891 83.9313C76.2206 83.9313 75.5977 84.5542 75.5977 85.3227C75.5977 86.0911 76.2206 86.7141 76.9891 86.7141Z" fill="#EAEAEA"/>
<path d="M82.0858 85.4626C82.8542 85.4626 83.4772 84.8397 83.4772 84.0712C83.4772 83.3028 82.8542 82.6798 82.0858 82.6798C81.3173 82.6798 80.6943 83.3028 80.6943 84.0712C80.6943 84.8397 81.3173 85.4626 82.0858 85.4626Z" fill="#EAEAEA"/>
<path d="M82.7991 36.0752L62.9087 40.9718L66.032 53.6592L85.9225 48.7626L82.7991 36.0752Z" fill="#0EAF59"/>
<path d="M68.1298 41.1514C68.06 41.15 67.9919 41.1301 67.9322 41.0938C67.8482 41.0408 67.7866 40.9587 67.7593 40.8632L66.7878 36.9113C66.6145 36.2106 66.5813 35.4826 66.69 34.7691C66.7987 34.0555 67.0472 33.3705 67.4212 32.7532C67.7953 32.1359 68.2875 31.5985 68.8697 31.1719C69.4519 30.7452 70.1126 30.4378 70.8139 30.267C72.2277 29.9191 73.7219 30.1469 74.9678 30.9003C76.2138 31.6537 77.1095 32.8712 77.4581 34.2849L78.4296 38.2368C78.4522 38.3328 78.4364 38.4338 78.3857 38.5184C78.335 38.603 78.2532 38.6644 78.1579 38.6896L68.2204 41.1596L68.1298 41.1514ZM72.1312 30.8763C71.7486 30.8754 71.3672 30.9196 70.995 31.008C70.3879 31.1574 69.8163 31.4251 69.3128 31.7958C68.8094 32.1665 68.3841 32.633 68.0614 33.1684C67.7386 33.7038 67.5247 34.2977 67.4319 34.9159C67.3391 35.5342 67.3692 36.1647 67.5206 36.7713L68.4015 40.361L77.6145 38.0886L76.7336 34.5072C76.4857 33.473 75.8969 32.5523 75.062 31.8937C74.2271 31.235 73.1947 30.8766 72.1312 30.8763Z" fill="#0EAF59"/>
<path d="M73.9263 44.8563C75.0085 44.8563 75.8858 43.979 75.8858 42.8968C75.8858 41.8146 75.0085 40.9373 73.9263 40.9373C72.8441 40.9373 71.9668 41.8146 71.9668 42.8968C71.9668 43.979 72.8441 44.8563 73.9263 44.8563Z" fill="#EAEAEA"/>
<path d="M74.5467 43.1244L73.4834 43.3862L74.5757 47.8231L75.639 47.5614L74.5467 43.1244Z" fill="#EAEAEA"/>
<path d="M31.9614 139.176C31.9614 139.176 38.3916 85.3886 44.69 79.5018C52.1823 72.5118 59.0076 67.7694 60.2591 71.7626C61.5105 75.7557 62.6714 82.4164 52.4293 89.8757L53.9277 103.189C53.9277 103.189 64.0134 110.179 58.7606 132.145" fill="#FFD6D6"/>
<path d="M31.9608 139.555H31.9032C31.804 139.543 31.7137 139.492 31.652 139.413C31.5903 139.334 31.5622 139.234 31.5739 139.135C31.8373 136.937 38.0946 85.1498 44.426 79.2383C51.6712 72.4788 56.5865 69.3584 59.0235 70.0253C59.4108 70.132 59.7622 70.3414 60.0404 70.6312C60.3186 70.921 60.5134 71.2806 60.6043 71.672C63.4447 80.7285 57.9861 86.2859 52.8239 90.0979L54.2811 103.032C55.5491 104.004 64.0787 111.447 59.1141 132.252C59.1034 132.301 59.0832 132.347 59.0545 132.387C59.0258 132.428 58.9892 132.462 58.9469 132.488C58.9047 132.514 58.8576 132.531 58.8086 132.539C58.7595 132.547 58.7094 132.544 58.6612 132.532C58.5655 132.507 58.4831 132.446 58.431 132.361C58.3789 132.277 58.3612 132.176 58.3813 132.079C63.5106 110.607 53.8036 103.617 53.7048 103.551C53.6619 103.519 53.626 103.478 53.5991 103.431C53.5723 103.384 53.555 103.333 53.5484 103.279L52.0499 89.9662C52.0424 89.9007 52.0521 89.8343 52.0781 89.7736C52.1041 89.713 52.1454 89.6602 52.1981 89.6204C61.7405 82.6386 61.3206 76.4472 59.888 71.8943C59.8293 71.6283 59.7006 71.3827 59.5154 71.183C59.3301 70.9833 59.095 70.8366 58.8341 70.7581C56.7182 70.1982 51.7865 73.4092 44.9446 79.8146C38.8109 85.5367 32.389 138.715 32.3231 139.25C32.3077 139.335 32.2631 139.412 32.1969 139.468C32.1308 139.524 32.0473 139.554 31.9608 139.555Z" fill="#231F20"/>
<path d="M0 175.123L24.6586 145.203L75.5976 167.672L60.5884 200.761L0 175.123Z" fill="#0D9E50"/>
<path d="M189.455 164.551C189.455 164.551 170.288 126.835 155.847 109.841C153.871 107.52 151.36 107.133 149.581 108.335C147.49 109.751 147.408 114.501 147.408 114.501C147.408 114.501 141.924 111.323 139.298 111.982C136.672 112.641 136.367 116.798 136.367 116.798C136.367 116.798 130.513 114.864 128.134 116.947C125.754 119.03 125.664 122.825 125.664 122.825C125.664 122.825 94.7974 98.0183 91.3971 95.9189C87.9968 93.8194 81.8959 97.5655 84.9093 101.946C86.7783 104.679 102.356 120.19 107.394 125.122C112.433 130.054 124.157 143.433 125.507 147.352C126.858 151.271 127.936 155.775 119.934 156.326C111.931 156.878 104.809 158.302 101.302 161.266C97.7943 164.23 95.489 168.717 97.2427 169.598C98.9964 170.479 127.286 167.243 138.03 171.624C148.775 176.004 162.73 192.025 162.73 192.025L189.455 164.551Z" fill="#FFD6D6"/>
<path d="M162.722 192.47C162.665 192.468 162.608 192.455 162.556 192.431C162.503 192.407 162.456 192.373 162.417 192.33C162.278 192.165 148.372 176.333 137.849 172.043C130.489 169.038 114.591 169.656 105.089 170.026C99.9437 170.224 97.6795 170.298 97.0373 170.026C96.8058 169.91 96.6083 169.736 96.464 169.521C96.3197 169.306 96.2335 169.058 96.214 168.799C95.9917 166.922 98.1406 163.431 100.998 161.019C104.2 158.319 110.548 156.631 119.876 155.989C122.717 155.791 124.586 155.066 125.417 153.823C126.496 152.177 125.845 149.847 125.088 147.558C123.82 143.77 112.359 130.605 107.107 125.468C101.854 120.33 86.4576 104.975 84.5969 102.193C83.9719 101.402 83.6586 100.41 83.7162 99.4038C83.7739 98.3978 84.1985 97.4478 84.9098 96.7339C86.4411 95.1367 89.438 94.264 91.6363 95.5813C94.7979 97.5161 120.848 118.429 125.31 122.018C125.49 119.98 126.392 118.073 127.854 116.642C130.02 114.765 134.556 115.819 136.088 116.263C136.26 115.069 136.911 112.147 139.266 111.578C141.62 111.01 145.589 113.011 147.095 113.818C147.211 112.41 147.655 109.191 149.417 107.997C151.492 106.589 154.225 107.223 156.226 109.578C170.535 126.407 189.694 163.983 189.892 164.362C189.929 164.44 189.942 164.527 189.929 164.612C189.915 164.697 189.877 164.776 189.818 164.839L163.084 192.347C163.037 192.392 162.98 192.427 162.917 192.448C162.854 192.47 162.788 192.477 162.722 192.47ZM117.826 168.882C125.491 168.882 133.469 169.368 138.146 171.278C148.125 175.345 160.606 189.061 162.739 191.449L188.953 164.477C187.216 161.093 169.152 126.127 155.526 110.138C153.822 108.129 151.525 107.552 149.812 108.705C148.248 109.775 147.845 113.275 147.82 114.542C147.819 114.613 147.799 114.682 147.763 114.743C147.727 114.804 147.676 114.854 147.614 114.888C147.552 114.924 147.481 114.943 147.408 114.943C147.336 114.943 147.265 114.924 147.202 114.888C147.145 114.888 141.834 111.801 139.397 112.418C137.092 112.995 136.787 116.831 136.779 116.864C136.775 116.926 136.756 116.986 136.725 117.04C136.694 117.094 136.651 117.14 136.599 117.175C136.548 117.21 136.489 117.233 136.428 117.242C136.366 117.25 136.303 117.245 136.244 117.226C136.186 117.226 130.58 115.399 128.373 117.301C126.167 119.202 126.043 122.833 126.043 122.874C126.04 122.951 126.016 123.025 125.974 123.089C125.932 123.153 125.873 123.204 125.804 123.237C125.736 123.27 125.659 123.283 125.583 123.274C125.507 123.265 125.436 123.235 125.376 123.187C125.063 122.94 94.518 98.3723 91.1835 96.3223C89.3392 95.1943 86.7869 95.9765 85.4861 97.3432C84.9039 97.9187 84.557 98.6903 84.5128 99.5077C84.4687 100.325 84.7305 101.13 85.2473 101.764C87.0751 104.44 102.537 119.878 107.683 124.883C112.401 129.502 124.462 143.104 125.87 147.302C126.693 149.772 127.393 152.366 126.101 154.284C125.104 155.774 123.087 156.606 119.926 156.82C110.779 157.446 104.595 159.076 101.533 161.653C98.6757 164.065 96.8644 167.309 97.0291 168.709C97.0301 168.831 97.0643 168.951 97.1281 169.055C97.1919 169.16 97.2829 169.245 97.3913 169.302C97.8606 169.524 101.352 169.384 105.048 169.244C108.745 169.104 113.183 168.882 117.826 168.882Z" fill="#231F20"/>
<path d="M186.673 153.65L147.729 185.414L167.045 214L212.006 176.662L186.673 153.65Z" fill="#0D9E50"/>
<path d="M63.5028 178.564C63.4457 178.575 63.387 178.575 63.3299 178.564L20.9864 158.804C20.9312 158.786 20.8805 158.756 20.8377 158.717C20.7948 158.678 20.7608 158.63 20.7378 158.577C20.7147 158.523 20.7033 158.466 20.7041 158.408C20.705 158.349 20.7181 158.292 20.7427 158.239C20.7673 158.187 20.8027 158.14 20.8467 158.102C20.8907 158.064 20.9422 158.036 20.9979 158.019C21.0536 158.002 21.1122 157.998 21.1698 158.005C21.2274 158.013 21.2827 158.033 21.3322 158.063L63.6757 177.823C63.7251 177.846 63.7695 177.879 63.8063 177.919C63.843 177.959 63.8714 178.006 63.8898 178.058C63.9082 178.109 63.9162 178.163 63.9134 178.218C63.9105 178.272 63.8969 178.326 63.8733 178.375C63.8346 178.437 63.7796 178.488 63.7144 178.521C63.6491 178.554 63.576 178.569 63.5028 178.564Z" fill="white"/>
<path d="M155.921 190.601C155.857 190.601 155.794 190.585 155.737 190.557C155.68 190.528 155.63 190.487 155.592 190.436C155.526 190.349 155.498 190.239 155.513 190.131C155.529 190.023 155.587 189.926 155.674 189.86L189.208 164.255C189.294 164.188 189.403 164.159 189.511 164.173C189.619 164.187 189.718 164.243 189.784 164.329C189.851 164.415 189.88 164.524 189.866 164.632C189.852 164.74 189.796 164.838 189.71 164.905L156.168 190.56C156.092 190.6 156.006 190.615 155.921 190.601Z" fill="white"/>
</svg>
