<svg width="164" height="166" viewBox="0 0 164 166" fill="none" xmlns="http://www.w3.org/2000/svg">
<path d="M19.9365 156.855C23.4861 159.812 27.9333 161.483 32.3669 162.83C34.2233 163.398 36.1001 163.913 37.9837 164.38H119.998C121.392 164.38 124.758 159.805 125.438 158.52C127.059 155.052 127.698 151.211 127.288 147.409C126.696 142.787 123.847 138.612 123.582 133.97C123.412 130.993 124.316 128.036 124.262 125.052C124.106 118.59 118.87 113.298 113.328 110.544C109.989 108.879 107.004 103.297 106.16 99.8662C105.1 95.5491 103.536 93.2416 100.72 89.5944C100.087 88.8217 99.5166 88.0004 99.0137 87.1381C97.6945 84.7359 97.4837 81.9075 96.7153 79.282C96.4462 78.1585 95.9125 77.1147 95.1581 76.237C94.0195 75.16 92.5061 74.5635 90.9353 74.5724C88.2833 74.4912 87.3789 75.4115 85.2301 73.8957C83.6389 72.7792 83.0133 70.9861 80.8985 70.5124C78.6803 70.0097 76.379 69.991 74.1529 70.4576C71.9268 70.9241 69.8286 71.8649 68.0026 73.2151C66.1766 74.5654 64.6661 76.2931 63.575 78.2795C62.4838 80.2659 61.8379 82.4639 61.6816 84.7224C61.5864 86.0757 61.6816 87.4832 61.0968 88.7147C60.512 89.9463 59.4921 90.7447 58.7849 91.868C56.5953 95.2513 58.1865 99.8459 56.9285 103.676C55.7589 107.255 52.3249 109.576 48.9181 111.207C45.5113 112.838 41.8188 114.117 39.1056 116.742C34.9032 120.802 33.6045 127.623 28.5045 130.499C22.1125 134.106 15.0813 136.041 14.2925 144.79C13.8369 149.405 16.3869 153.891 19.9365 156.855Z" fill="#392C27"/>
<path d="M119.998 164.718H37.9021C35.9369 164.224 34.0397 163.703 32.2649 163.162C28.1373 161.903 23.4249 160.205 19.7189 157.119C15.6933 153.736 13.5173 149.148 13.9117 144.79C14.5917 137.313 19.6917 134.701 25.0909 131.933C26.1449 131.399 27.2329 130.837 28.2937 130.242C31.1497 128.631 32.7613 125.783 34.4681 122.798C35.7193 120.599 37.0045 118.326 38.8337 116.56C41.0097 114.448 43.8249 113.176 46.5449 111.965C47.2793 111.64 48.0069 111.288 48.7277 110.964C53.0661 108.886 55.6297 106.491 56.5681 103.635C57.0093 101.974 57.195 100.256 57.1189 98.5399C57.1189 96.1919 57.1529 93.7627 58.4789 91.7733C58.7861 91.3174 59.1246 90.8833 59.4921 90.4741C59.9983 89.9296 60.4284 89.3196 60.7705 88.6606C61.1312 87.6959 61.3042 86.6717 61.2805 85.6427C61.2805 85.3585 61.2805 85.0675 61.3213 84.7833C61.5396 82.1335 62.4012 79.576 63.8321 77.3307C65.2629 75.0854 67.2202 73.2193 69.5357 71.8928C73.0107 69.9719 77.0741 69.3891 80.9529 70.2553C82.1596 70.5907 83.2181 71.32 83.9585 72.3259C84.388 72.8303 84.874 73.2843 85.4069 73.6792C85.8826 74.0461 86.4355 74.3012 87.0243 74.4254C87.6131 74.5496 88.2225 74.5397 88.8069 74.3965C89.5214 74.3032 90.242 74.2648 90.9625 74.2814C92.6228 74.2641 94.2231 74.8986 95.4165 76.0475C96.2102 76.9622 96.7721 78.0527 97.0553 79.2279C97.3137 80.1143 97.5109 81.0278 97.7013 81.9345C97.9977 83.7032 98.5449 85.421 99.3265 87.0366C99.8212 87.8811 100.38 88.6864 100.999 89.4455C103.719 92.9236 105.406 95.3528 106.507 99.8459C107.31 103.094 110.261 108.69 113.504 110.3C118.768 112.919 124.452 118.184 124.622 125.106C124.623 126.547 124.509 127.986 124.282 129.409C124.03 130.93 123.923 132.47 123.963 134.011C124.099 136.433 124.983 138.788 125.833 141.068C126.685 143.112 127.299 145.246 127.662 147.429C128.082 151.296 127.431 155.204 125.778 158.729C125.119 159.88 121.637 164.718 119.998 164.718ZM38.0245 164.041H119.998C121.107 164.041 124.384 159.826 125.119 158.364C126.711 154.958 127.339 151.184 126.934 147.449C126.573 145.32 125.971 143.239 125.139 141.244C124.269 138.917 123.371 136.508 123.228 133.99C123.189 132.405 123.299 130.819 123.555 129.254C123.778 127.864 123.889 126.459 123.888 125.052C123.725 118.434 118.23 113.372 113.144 110.842C109.676 109.109 106.643 103.398 105.793 99.9406C104.76 95.725 103.284 93.5123 100.408 89.7906C99.7659 89.0016 99.1862 88.1646 98.6737 87.287C97.8562 85.6164 97.288 83.8361 96.9873 82.0022C96.7969 81.1293 96.5997 80.2226 96.3481 79.3632C96.0896 78.2946 95.5844 77.3007 94.8725 76.4603C93.8015 75.4403 92.3699 74.8812 90.8877 74.904C90.2057 74.8889 89.5236 74.9273 88.8477 75.019C88.1868 75.1672 87.5012 75.1689 86.8395 75.0238C86.1779 74.8788 85.5565 74.5907 85.0193 74.1799C84.4409 73.7518 83.9159 73.2566 83.4553 72.7048C82.8035 71.8072 81.8707 71.1504 80.8033 70.8372C77.0881 70.0137 73.1986 70.5722 69.8689 72.4071C67.6517 73.6789 65.7776 75.467 64.4073 77.6178C63.037 79.7687 62.2114 82.2182 62.0013 84.7562C62.0013 85.0337 61.9673 85.3179 61.9605 85.6021C61.9776 86.7175 61.7839 87.8262 61.3893 88.8704C61.0299 89.5843 60.5722 90.2447 60.0293 90.8327C59.6864 91.2247 59.3662 91.6359 59.0705 92.0642C57.8737 93.9183 57.8601 96.1242 57.8397 98.4993C57.9157 100.285 57.7185 102.071 57.2549 103.798C56.2553 106.836 53.5761 109.367 49.0949 111.525C48.3673 111.87 47.6329 112.202 46.8917 112.533C44.2193 113.731 41.4517 114.969 39.3709 116.993C37.6165 118.691 36.3517 120.924 35.1277 123.083C33.4481 126.046 31.7277 129.105 28.6949 130.81C27.6273 131.412 26.5325 131.974 25.4717 132.515C20.2425 135.222 15.2717 137.726 14.6597 144.831C14.2925 148.891 16.4209 153.411 20.2221 156.578C23.8261 159.589 28.4705 161.26 32.5369 162.498C34.2165 163.053 36.0865 163.561 38.0245 164.041Z" fill="#231F20"/>
<path d="M81.7212 60.7752C79.7764 60.5586 77.8316 60.2609 75.88 60.1391C72.6228 59.9496 70.7596 58.1835 70.3516 55.1115C69.726 50.3748 67.6316 46.2674 65.136 42.2548C61.4022 36.5303 60.0922 29.5697 61.4912 22.8886C64.32 9.044 76.56 1.83073 90.84 4.8216C111.92 9.23346 115.49 31.8341 102.645 45.8344C99.1768 49.6169 95.8448 53.2777 94.0088 58.17C92.982 60.8767 90.7653 61.9052 87.8481 61.4721C85.8217 61.1744 83.768 61.0052 81.7212 60.7752Z" fill="white"/>
<path d="M89.0722 61.9052C88.6488 61.9029 88.2262 61.8713 87.8074 61.8105C86.4474 61.6007 84.9922 61.4586 83.6186 61.3165L81.6873 61.1135L79.8922 60.8767C78.573 60.7075 77.1722 60.5383 75.8598 60.4571C72.4598 60.2541 70.4198 58.4271 70.0186 55.1318C69.3386 50.1109 67.0334 45.8817 64.8506 42.4037C61.0849 36.5961 59.7591 29.5502 61.1582 22.7803C62.5182 16.2099 65.959 10.9657 71.1134 7.6027C76.5534 4.04343 83.5982 2.9337 90.915 4.46297C100.177 6.405 106.711 11.9063 109.323 19.9586C112.138 28.6606 109.676 38.6482 102.903 46.0306C99.6054 49.6305 96.1918 53.3454 94.3354 58.2647C93.9813 59.3623 93.2741 60.3134 92.3229 60.9713C91.3717 61.6292 90.2294 61.9574 89.0722 61.9052ZM81.7622 60.4368C82.4014 60.5113 83.0474 60.5789 83.6866 60.6398C85.0466 60.7819 86.5018 60.9308 87.9094 61.1406C90.7722 61.5601 92.7714 60.4639 93.6962 58.055C95.6002 53.0138 99.0546 49.2583 102.4 45.6043C109.01 38.3978 111.417 28.6876 108.677 20.1955C106.147 12.38 99.789 7.04107 90.779 5.15317C83.6322 3.65773 76.7846 4.7404 71.4874 8.1914C66.4826 11.4529 63.1438 16.555 61.8178 22.9427C61.1255 26.2094 61.0875 29.5799 61.7059 32.8612C62.3243 36.1425 63.587 39.2702 65.4218 42.0653C67.6522 45.6043 70.0186 49.9147 70.6918 55.0641C71.0794 58.0279 72.8338 59.6248 75.9006 59.8008C77.2606 59.882 78.6206 60.0511 79.9806 60.2203L81.7622 60.4301V60.4368Z" fill="#231F20"/>
<path d="M89.5482 61.6673L73.8155 59.9196C72.4047 59.7629 71.1333 60.7739 70.9758 62.1778L70.8853 62.9848C70.7278 64.3887 71.7438 65.6539 73.1546 65.8106L88.8873 67.5583C90.2981 67.7151 91.5695 66.704 91.727 65.3001L91.8175 64.4931C91.975 63.0892 90.959 61.8241 89.5482 61.6673Z" fill="white"/>
<path d="M89.1809 67.9208C89.07 67.9276 88.9587 67.9276 88.8477 67.9208L73.1057 66.175C72.7268 66.1329 72.36 66.0168 72.0262 65.8333C71.6925 65.6499 71.3984 65.4026 71.1609 65.1058C70.9198 64.8098 70.7407 64.4686 70.6344 64.1025C70.5282 63.7364 70.4968 63.3527 70.5421 62.9743L70.6305 62.1623C70.7178 61.3995 71.1039 60.7017 71.7049 60.2203C72.0037 59.9828 72.3469 59.8067 72.7146 59.7022C73.0823 59.5976 73.4672 59.5667 73.8469 59.6113L89.5889 61.3571C90.3539 61.4438 91.0531 61.8286 91.5336 62.4272C92.0141 63.0258 92.2366 63.7894 92.1525 64.551L92.0641 65.3697C92.0219 65.7468 91.9052 66.1119 91.7208 66.444C91.5364 66.7761 91.288 67.0687 90.9897 67.305C90.4753 67.71 89.8369 67.9273 89.1809 67.9208ZM88.9225 67.2441C89.5094 67.3088 90.0981 67.1392 90.5595 66.7726C91.021 66.4061 91.3175 65.8723 91.3841 65.2885L91.4793 64.4698C91.5117 64.1812 91.4862 63.8891 91.4045 63.6104C91.3228 63.3317 91.1865 63.0718 91.0033 62.8458C90.8223 62.616 90.5965 62.425 90.3394 62.2843C90.0823 62.1436 89.7993 62.0561 89.5073 62.027L73.7721 60.2744C73.481 60.2406 73.1861 60.2651 72.9046 60.3464C72.6232 60.4278 72.3609 60.5643 72.1333 60.7481C71.9026 60.9269 71.7108 61.1504 71.5693 61.4051C71.4279 61.6599 71.3399 61.9405 71.3105 62.23L71.2153 63.0488C71.1558 63.6264 71.326 64.2042 71.6896 64.6583C72.0532 65.1124 72.5811 65.4067 73.1601 65.478L88.9225 67.2441Z" fill="#231F20"/>
<path d="M88.8883 67.5602L73.1556 65.8124C71.7448 65.6557 70.4734 66.6667 70.3159 68.0706L70.2254 68.8776C70.0679 70.2815 71.0839 71.5467 72.4947 71.7034L88.2274 73.4512C89.6382 73.6079 90.9096 72.5969 91.0671 71.1929L91.1576 70.386C91.3151 68.982 90.2991 67.7169 88.8883 67.5602Z" fill="white"/>
<path d="M88.5146 73.8145C88.4059 73.8212 88.2969 73.8212 88.1882 73.8145L72.4802 72.0484C71.7136 71.9616 71.0123 71.5774 70.5286 70.9793C70.2903 70.6818 70.1135 70.3403 70.0084 69.9744C69.9034 69.6086 69.8722 69.2257 69.9166 68.8478L70.005 68.0358C70.0907 67.2837 70.4689 66.5949 71.0586 66.1169C71.6483 65.6388 72.4027 65.4095 73.1602 65.478L88.9022 67.2306C89.6683 67.3156 90.3693 67.6997 90.8512 68.2985C91.3331 68.8973 91.5566 69.6619 91.4726 70.4244L91.3774 71.2432C91.2959 71.9485 90.9575 72.5996 90.4262 73.0734C89.8949 73.5472 89.2076 73.8109 88.4942 73.8145H88.5146ZM72.8746 66.1411C72.3268 66.1397 71.7979 66.34 71.3898 66.7036C70.9817 67.0672 70.7234 67.5683 70.6646 68.1102L70.5762 68.9222C70.5112 69.5062 70.6816 70.092 71.05 70.5512C71.4184 71.0104 71.9547 71.3055 72.5414 71.3718L88.2834 73.1243C88.8702 73.189 89.4589 73.0194 89.9204 72.6529C90.3818 72.2863 90.6784 71.7526 90.745 71.1688L90.8402 70.35C90.8742 70.0605 90.8502 69.7672 90.7697 69.487C90.6891 69.2068 90.5535 68.9453 90.3708 68.7175C90.1881 68.4897 89.9618 68.3003 89.705 68.16C89.4483 68.0198 89.1662 67.9316 88.875 67.9005L73.133 66.1547C73.0407 66.1416 72.9473 66.1371 72.8542 66.1411H72.8746Z" fill="#231F20"/>
<path d="M88.4396 73.483C88.188 75.7024 84.3596 77.1031 79.9056 76.6092C75.4516 76.1152 72.0244 73.9025 72.2692 71.683L88.4396 73.483Z" fill="#231F20"/>
<path d="M81.7145 77.049C81.0963 77.049 80.4787 77.0129 79.8649 76.9407C77.8379 76.7565 75.8787 76.1205 74.1325 75.0799C72.5821 74.0717 71.8001 72.8537 71.9361 71.6492C71.9463 71.5605 71.9914 71.4794 72.0614 71.4237C72.1315 71.3679 72.2209 71.3419 72.3101 71.3515L88.4737 73.1446C88.519 73.1492 88.5629 73.163 88.6027 73.1851C88.6424 73.2072 88.6772 73.2372 88.7049 73.2732C88.7329 73.308 88.7534 73.3483 88.7651 73.3913C88.7768 73.4344 88.7794 73.4794 88.7729 73.5236C88.5417 75.6348 85.5701 77.049 81.7145 77.049ZM72.6025 72.062C72.6773 72.901 73.3369 73.7536 74.5065 74.5115C76.1639 75.4974 78.0233 76.0987 79.9465 76.2708C83.9041 76.7107 87.4605 75.5942 88.0385 73.7807L72.6025 72.062Z" fill="#231F20"/>
<path d="M87.005 58.5489C86.9171 58.549 86.8326 58.5152 86.7692 58.4547C86.7058 58.3941 86.6685 58.3115 86.665 58.2241C86.4195 53.1339 86.7962 48.0328 87.787 43.033C85.4332 43.3953 83.0321 43.315 80.7082 42.7961C80.7082 47.5328 79.7698 52.2695 78.8518 56.8979L78.743 57.473C78.7233 57.5601 78.6706 57.6362 78.5958 57.6854C78.521 57.7346 78.4299 57.7531 78.3418 57.7369C78.2976 57.7289 78.2555 57.7121 78.218 57.6874C78.1805 57.6628 78.1484 57.6309 78.1236 57.5936C78.0988 57.5563 78.0819 57.5144 78.0738 57.4704C78.0657 57.4265 78.0667 57.3813 78.0766 57.3377L78.1854 56.7625C79.1102 52.1341 80.0554 47.3772 80.0282 42.6337C77.115 41.8921 74.4341 40.4384 72.2286 38.4046C70.9047 37.274 69.9131 35.8079 69.359 34.1619C69.0747 33.3138 69.0142 32.4073 69.1833 31.5293C69.3524 30.6512 69.7454 29.8312 70.3246 29.1478C70.8192 28.6834 71.4045 28.3253 72.0441 28.0956C72.6838 27.866 73.364 27.7697 74.0427 27.8129C74.7213 27.856 75.3837 28.0377 75.9888 28.3465C76.5938 28.6553 77.1286 29.0847 77.5598 29.6079C78.8858 31.4823 79.8446 34.4596 80.409 38.4655C80.5807 39.6719 80.6783 40.8877 80.7014 42.1059C83.0744 42.6579 85.5345 42.7315 87.9366 42.3225C87.9774 42.1398 88.0182 41.9571 88.0658 41.7744L88.1746 41.2939C89.0382 37.5723 90.1126 32.9439 93.1318 30.2981C93.6214 29.8718 95.3486 28.4982 96.9262 28.8568C97.302 28.9551 97.6477 29.1443 97.9324 29.4076C98.2171 29.6708 98.432 30 98.5582 30.3658C98.9824 31.4921 99.1321 32.7026 98.9949 33.8977C98.8578 35.0928 98.4378 36.2385 97.7694 37.2407C96.4314 39.2015 94.5548 40.7378 92.3634 41.6661C91.1307 42.2262 89.8368 42.6417 88.5078 42.9044C87.4882 47.9348 87.0977 53.0713 87.345 58.1971C87.3469 58.2863 87.3139 58.3729 87.2531 58.4385C87.1922 58.5041 87.1081 58.5437 87.0186 58.5489H87.005ZM96.3958 29.4523C95.3349 29.5884 94.3471 30.0633 93.5806 30.8056C90.7246 33.3025 89.6774 37.8226 88.8206 41.4496L88.7118 41.93C88.7118 42.0112 88.671 42.0992 88.6574 42.1804C89.8287 41.9282 90.9688 41.5492 92.0574 41.0503C94.133 40.179 95.9112 38.7291 97.1778 36.8753C97.788 35.9649 98.1721 34.9234 98.2986 33.8363C98.4251 32.7493 98.2903 31.6479 97.9054 30.6229C97.8207 30.3575 97.6706 30.1175 97.4686 29.9248C97.2667 29.7321 97.0194 29.5929 96.7494 29.5199C96.6332 29.4942 96.5147 29.4806 96.3958 29.4793V29.4523ZM73.6906 28.4508C73.1601 28.4348 72.632 28.5267 72.1385 28.7211C71.6451 28.9154 71.1967 29.2079 70.821 29.5808C70.3283 30.182 69.9959 30.8971 69.8545 31.6599C69.713 32.4228 69.7671 33.2088 70.0118 33.9453C70.5356 35.4725 71.4607 36.8323 72.691 37.8835C74.7653 39.8077 77.2787 41.201 80.0146 41.9435C79.9898 40.8112 79.8967 39.6814 79.7358 38.5602C79.185 34.6626 78.267 31.7935 77.0158 30.0004C76.6581 29.545 76.2039 29.1736 75.6856 28.9128C75.1673 28.652 74.5975 28.5081 74.017 28.4914L73.6906 28.4508Z" fill="#BEBEBF"/>
<path d="M45.3888 165.083H111.682C112.566 154.764 113.919 142.151 115.844 134.505L143.928 107.831L124.786 89.6824C124.786 89.6824 82.3944 116.505 79.3956 116.323C75.574 116.086 29.538 80.9331 29.538 80.9331L21.0176 106.646L45.6132 139.647C45.6132 148.417 45.518 157.694 45.3888 165.083Z" fill="#0EAF59"/>
<path d="M80.4972 161.294C80.4045 161.291 80.3166 161.252 80.2524 161.186C80.2206 161.154 80.1953 161.117 80.178 161.076C80.1607 161.034 80.1519 160.99 80.1519 160.946C80.1519 160.901 80.1607 160.857 80.178 160.815C80.1953 160.774 80.2206 160.737 80.2524 160.705C89.2964 152.091 90.8944 147.591 90.636 145.331C90.5941 144.862 90.4379 144.409 90.1808 144.013C89.9237 143.617 89.5735 143.289 89.1604 143.058C89.1132 143.029 89.0736 142.99 89.0452 142.943C89.0167 142.895 89.0003 142.842 88.9972 142.787C88.994 142.734 89.0034 142.68 89.0246 142.631C89.0459 142.581 89.0784 142.538 89.1196 142.503C89.6092 142.104 90.1532 141.718 90.7244 141.312C92.472 140.074 94.2808 138.788 94.852 136.92C95.6136 134.444 94.41 131 93.4376 128.225C93.1792 127.474 92.9276 126.764 92.7576 126.114C92.7376 126.07 92.7272 126.022 92.7273 125.974C92.7274 125.925 92.738 125.878 92.7582 125.834C92.7785 125.79 92.8079 125.75 92.8447 125.719C92.8814 125.687 92.9246 125.664 92.9712 125.65C93.0179 125.636 93.0669 125.633 93.115 125.64C93.1632 125.646 93.2093 125.663 93.2503 125.689C93.2913 125.715 93.3261 125.75 93.3526 125.79C93.3791 125.831 93.3965 125.877 93.4036 125.925C93.6008 126.554 93.8456 127.278 94.0836 128.002C95.0832 130.871 96.3276 134.43 95.5048 137.117C94.8656 139.208 92.8732 140.622 91.1188 141.853C90.6972 142.151 90.2892 142.442 89.9084 142.733C90.3046 143.031 90.6339 143.409 90.8751 143.841C91.1163 144.273 91.2642 144.751 91.3092 145.243C91.7104 148.749 88.1472 154.108 80.7216 161.186C80.6625 161.248 80.5828 161.286 80.4972 161.294Z" fill="#231F20"/>
<path d="M65.8908 160.347C65.8245 160.347 65.7595 160.328 65.7039 160.292C65.6483 160.256 65.6046 160.204 65.578 160.144C65.3468 159.602 65.0476 158.966 64.7144 158.249C62.7356 154.006 59.4172 146.901 61.4028 142.638C62.0428 141.296 63.1924 140.261 64.5988 139.762C63.028 139.038 59.8388 137.259 60.1244 134.958C60.5256 131.791 63.81 128.922 65.986 127.014L66.1084 126.906C66.1775 126.848 66.2665 126.819 66.3567 126.825C66.4469 126.831 66.5311 126.872 66.5912 126.94C66.6208 126.973 66.6434 127.011 66.6577 127.053C66.672 127.095 66.6778 127.139 66.6746 127.184C66.6714 127.228 66.6594 127.271 66.6392 127.31C66.6191 127.35 66.5912 127.385 66.5572 127.413L66.4348 127.528C64.3336 129.362 61.1648 132.13 60.7976 135.039C60.5392 137.069 64.2316 138.944 65.6732 139.492C65.7405 139.516 65.798 139.562 65.8372 139.622C65.8764 139.681 65.8952 139.752 65.8908 139.823C65.8865 139.895 65.86 139.963 65.8149 140.019C65.7698 140.075 65.7084 140.115 65.6392 140.135C64.8612 140.293 64.1299 140.626 63.5016 141.11C62.8732 141.593 62.3646 142.213 62.0148 142.922C60.1652 146.901 63.3748 153.83 65.3332 157.965C65.6664 158.682 65.9656 159.318 66.2036 159.873C66.2382 159.956 66.239 160.049 66.206 160.132C66.173 160.215 66.1088 160.283 66.0268 160.32C65.983 160.335 65.9372 160.344 65.8908 160.347Z" fill="#231F20"/>
<path d="M88.5485 120.444L70.4673 121.08L70.8753 162.607L88.5485 120.444Z" fill="#231F20"/>
<path d="M70.8753 162.945H70.8073C70.7305 162.929 70.6615 162.888 70.6119 162.828C70.5623 162.767 70.5353 162.692 70.5353 162.614L70.1273 121.086C70.1264 121.043 70.1341 121 70.15 120.959C70.1659 120.918 70.1897 120.881 70.22 120.85C70.2504 120.819 70.2866 120.793 70.3267 120.776C70.3668 120.758 70.4099 120.749 70.4537 120.748L88.5349 120.112C88.5918 120.109 88.6485 120.12 88.6997 120.145C88.7509 120.17 88.7948 120.208 88.8273 120.254C88.8606 120.301 88.8813 120.355 88.8872 120.412C88.8932 120.469 88.8843 120.527 88.8613 120.579L71.1813 162.742C71.1552 162.802 71.1125 162.852 71.0582 162.888C71.004 162.924 70.9405 162.944 70.8753 162.945ZM70.8073 121.405L71.2017 160.956L88.0317 120.802L70.8073 121.405Z" fill="#231F20"/>
<path d="M71.8001 110.199L70.4401 121.1C70.4401 121.1 72.2829 127.4 79.6541 126.439C87.0253 125.478 88.4941 120.464 88.4941 120.464L90.9421 97.4167C90.9421 97.4167 88.5757 96.6994 86.1413 84.242C86.1413 84.242 80.4157 87.8283 69.8757 85.3314C69.8757 85.3314 67.4685 96.8347 67.5705 102.478C67.5627 104.016 67.9465 105.53 68.6861 106.881C69.4257 108.231 70.4971 109.372 71.8001 110.199Z" fill="#FFD6D6"/>
<path d="M78.2057 126.852C76.4304 126.874 74.6934 126.337 73.2435 125.317C71.7937 124.297 70.7052 122.847 70.1341 121.174C70.1273 121.13 70.1273 121.084 70.1341 121.039L71.4125 110.361C70.1192 109.488 69.0619 108.312 68.3337 106.936C67.6055 105.56 67.229 104.026 67.2373 102.471C67.1353 96.855 69.5221 85.3652 69.5493 85.2502C69.5564 85.2053 69.5735 85.1625 69.5994 85.1251C69.6253 85.0876 69.6593 85.0564 69.6989 85.0337C69.7372 85.0103 69.7797 84.9946 69.824 84.9876C69.8684 84.9807 69.9137 84.9825 69.9573 84.9931C80.2185 87.4155 85.9169 83.9781 85.9713 83.9375C86.0186 83.9094 86.0719 83.8929 86.1268 83.8894C86.1818 83.8858 86.2368 83.8954 86.2873 83.9172C86.3378 83.939 86.3823 83.9725 86.4173 84.0148C86.4522 84.0572 86.4765 84.1072 86.4881 84.1608C88.7933 95.9821 91.0441 97.0716 91.0645 97.0851C91.1378 97.1071 91.2003 97.1551 91.2404 97.2199C91.2805 97.2848 91.2954 97.362 91.2821 97.437L88.8953 120.477C88.8137 120.748 87.2361 125.776 79.7289 126.75C79.2242 126.819 78.7152 126.853 78.2057 126.852ZM70.8073 121.046C71.0317 121.723 72.9561 126.946 79.6473 126.08C86.6921 125.16 88.1677 120.538 88.2289 120.342L90.5885 97.5791C89.8677 97.0648 87.9093 94.7777 85.9101 84.7224C84.4073 85.487 79.0081 87.7133 70.1409 85.7036C69.7465 87.6456 67.8289 97.437 67.9173 102.431C67.9072 103.896 68.2652 105.341 68.9587 106.634C69.6522 107.927 70.6593 109.026 71.8885 109.834C71.9348 109.863 71.9781 109.897 72.0177 109.935C72.0543 109.971 72.082 110.014 72.0986 110.062C72.1151 110.111 72.12 110.162 72.1129 110.212L70.8073 121.046Z" fill="#231F20"/>
<path d="M88.1201 97.7888C88.7321 96.131 90.2553 95.1295 91.9009 94.595C92.4369 94.3921 93.011 94.3081 93.583 94.349C94.155 94.3899 94.7111 94.5547 95.2125 94.8318C95.8282 95.2841 96.2947 95.9085 96.5527 96.6255C96.8106 97.3424 96.8483 98.1196 96.6609 98.858C96.4382 99.98 95.9178 101.022 95.1537 101.877C94.3897 102.731 93.4098 103.366 92.3157 103.716C90.8364 104.111 89.2603 103.91 87.9297 103.155" fill="#FFD6D6"/>
<path d="M90.84 104.258C89.7707 104.257 88.7203 103.977 87.7936 103.446C87.7255 103.397 87.6782 103.324 87.6609 103.242C87.6435 103.16 87.6573 103.074 87.6996 103.002C87.7419 102.93 87.8097 102.875 87.8899 102.85C87.9701 102.824 88.0569 102.829 88.1336 102.864C89.3829 103.575 90.8647 103.765 92.2544 103.392C93.2838 103.052 94.204 102.447 94.9209 101.637C95.6378 100.827 96.1256 99.8425 96.3344 98.7835C96.5928 97.5723 96.2936 95.9009 95.0424 95.116C94.5815 94.8665 94.0718 94.7192 93.5483 94.6842C93.0248 94.6492 92.4999 94.7272 92.0096 94.913C90.7312 95.3325 89.072 96.1987 88.4464 97.9106C88.4313 97.9523 88.4079 97.9906 88.3777 98.0232C88.3475 98.0557 88.311 98.0819 88.2704 98.1002C88.2299 98.1185 88.186 98.1285 88.1415 98.1297C88.097 98.1308 88.0527 98.1231 88.0112 98.1069C87.9264 98.0763 87.8574 98.0136 87.8191 97.9323C87.7809 97.8511 87.7766 97.7581 87.8072 97.6738C88.528 95.7115 90.3776 94.7371 91.7988 94.2905C92.3832 94.0707 93.009 93.9817 93.6319 94.0296C94.2547 94.0775 94.8593 94.2613 95.4028 94.5679C96.0768 95.0565 96.589 95.7341 96.8737 96.5141C97.1583 97.294 97.2026 98.1408 97.0008 98.9459C96.7631 100.128 96.2123 101.226 95.4053 102.125C94.5983 103.025 93.5645 103.693 92.4108 104.062C91.898 104.195 91.37 104.261 90.84 104.258Z" fill="#231F20"/>
<path d="M77.7772 91.7462C77.7772 91.7462 73.2212 96.7806 73.976 97.8362C74.7308 98.8918 77.3148 98.6482 77.3148 98.6482" fill="#FFD6D6"/>
<path d="M76.5601 99.061C75.6625 99.061 74.2753 98.9121 73.6973 98.0663C72.8813 96.8753 76.1045 93.0928 77.5257 91.5161C77.5547 91.4802 77.5909 91.4505 77.6318 91.4289C77.6728 91.4074 77.7177 91.3943 77.7639 91.3907C77.8101 91.387 77.8566 91.3928 77.9005 91.4077C77.9443 91.4226 77.9847 91.4462 78.019 91.4772C78.0534 91.5081 78.081 91.5457 78.1002 91.5877C78.1195 91.6297 78.1298 91.6751 78.1308 91.7212C78.1317 91.7673 78.1231 91.8131 78.1056 91.8558C78.0881 91.8985 78.062 91.9372 78.0289 91.9695C75.6965 94.5476 73.9489 97.2137 74.2549 97.6806C74.7785 98.4384 76.6145 98.4181 77.2741 98.3572C77.3186 98.3506 77.364 98.3532 77.4074 98.3648C77.4508 98.3764 77.4914 98.3968 77.5265 98.4248C77.5616 98.4528 77.5905 98.4876 77.6115 98.5272C77.6324 98.5668 77.6449 98.6103 77.6481 98.655C77.6577 98.7437 77.6316 98.8326 77.5756 98.9024C77.5195 98.9721 77.4381 99.0169 77.3489 99.0271C77.2401 99.0271 76.9613 99.061 76.5601 99.061Z" fill="#231F20"/>
<path d="M77.4236 104.258C73.9352 104.258 70.746 101.653 70.6236 101.551C70.5891 101.523 70.5607 101.488 70.5399 101.449C70.5191 101.41 70.5065 101.367 70.5027 101.323C70.4989 101.279 70.504 101.234 70.5178 101.192C70.5315 101.15 70.5537 101.111 70.5828 101.077C70.6399 101.009 70.7219 100.965 70.811 100.956C70.9002 100.947 70.9892 100.974 71.0588 101.03C71.0996 101.03 75.03 104.278 78.6884 103.473C80.5176 103.074 81.9864 101.72 83.0676 99.4534C83.1101 99.3791 83.1794 99.3235 83.2614 99.2979C83.3434 99.2723 83.4321 99.2786 83.5097 99.3154C83.5873 99.3523 83.6479 99.4171 83.6795 99.4967C83.711 99.5762 83.711 99.6648 83.6796 99.7444C82.51 102.207 80.878 103.689 78.8312 104.136C78.368 104.228 77.8959 104.269 77.4236 104.258Z" fill="#231F20"/>
<path d="M70.8752 90.5079C70.8752 90.5079 71.052 88.3967 72.9152 88.1531C74.7784 87.9095 74.3908 90.5079 74.3908 90.5079" fill="#FFD6D6"/>
<path d="M74.3842 90.8462H74.3298C74.2418 90.8328 74.1626 90.7856 74.1092 90.7148C74.0558 90.6439 74.0325 90.5551 74.0442 90.4673C74.1634 89.8543 74.0469 89.2192 73.7178 88.6877C73.6155 88.5973 73.4931 88.5323 73.3607 88.4982C73.2283 88.4641 73.0897 88.4618 72.9562 88.4914C71.3922 88.6944 71.2222 90.4673 71.2154 90.5214C71.2119 90.5659 71.1997 90.6093 71.1794 90.649C71.159 90.6888 71.131 90.7241 71.0968 90.7531C71.0627 90.782 71.0232 90.8039 70.9805 90.8176C70.9378 90.8313 70.8928 90.8364 70.8482 90.8327C70.7586 90.8241 70.6758 90.7812 70.6175 90.713C70.5591 90.6448 70.5297 90.5567 70.5354 90.4673C70.6034 89.6418 71.2154 88.0245 72.8678 87.8012C73.1094 87.7498 73.3601 87.7587 73.5974 87.8272C73.8347 87.8957 74.0513 88.0216 74.2278 88.1937C74.9622 88.938 74.7718 90.3793 74.7446 90.5417C74.7359 90.6291 74.6935 90.7097 74.6263 90.7665C74.559 90.8233 74.4722 90.8519 74.3842 90.8462Z" fill="#231F20"/>
<path d="M79.8037 91.0425C79.8037 91.0425 79.9805 88.9313 81.8437 88.6877C83.7069 88.4441 83.3125 91.0425 83.3125 91.0425" fill="#FFD6D6"/>
<path d="M83.3126 91.3808H83.265C83.2204 91.3751 83.1774 91.3604 83.1386 91.3377C83.0998 91.315 83.0661 91.2847 83.0394 91.2487C83.0127 91.2126 82.9936 91.1716 82.9833 91.128C82.973 91.0844 82.9717 91.0392 82.9794 90.9951C83.0928 90.3835 82.9741 89.7517 82.6462 89.2222C82.5448 89.1304 82.4225 89.0645 82.2898 89.0303C82.1571 88.9961 82.018 88.9947 81.8846 89.026C80.3274 89.229 80.1506 90.9951 80.1438 91.056C80.1357 91.1457 80.0921 91.2286 80.0226 91.2863C79.9531 91.3441 79.8634 91.372 79.7732 91.3639C79.683 91.3558 79.5997 91.3124 79.5417 91.2433C79.4837 91.1741 79.4557 91.0848 79.4638 90.9951C79.5318 90.1696 80.1098 88.5523 81.7962 88.329C82.0384 88.2809 82.2888 88.292 82.5257 88.3616C82.7626 88.4311 82.979 88.557 83.1562 88.7283C83.8838 89.4726 83.6934 90.9139 83.6662 91.0763C83.6592 91.1631 83.6182 91.2437 83.5521 91.3006C83.4859 91.3576 83.3999 91.3864 83.3126 91.3808Z" fill="#231F20"/>
<path d="M71.8001 110.199C71.8001 110.199 78.4097 112.574 82.6801 110.767C82.6801 110.767 77.1449 119.368 70.8821 117.656L71.8001 110.199Z" fill="#231F20"/>
<path d="M72.5753 118.224C71.9712 118.225 71.3698 118.145 70.7869 117.987C70.7072 117.965 70.6381 117.916 70.592 117.847C70.5459 117.779 70.5258 117.697 70.5353 117.615L71.4329 110.172C71.4387 110.121 71.4558 110.072 71.4828 110.029C71.5099 109.986 71.5462 109.949 71.5893 109.921C71.6361 109.9 71.6872 109.888 71.7389 109.888C71.7906 109.888 71.8416 109.9 71.8885 109.921C71.9497 109.921 78.4301 112.229 82.5373 110.497C82.6047 110.469 82.679 110.464 82.7498 110.481C82.8206 110.498 82.8842 110.536 82.9317 110.591C82.9742 110.649 82.9971 110.719 82.9971 110.791C82.9971 110.863 82.9742 110.933 82.9317 110.991C82.7481 111.275 78.2057 118.224 72.5753 118.224ZM71.2493 117.399C75.9413 118.441 80.2457 113.467 81.7825 111.43C78.1037 112.418 73.4525 111.099 72.0585 110.652L71.2493 117.399Z" fill="#231F20"/>
<path d="M45.4229 162.18C45.3782 162.179 45.3343 162.168 45.2937 162.15C45.2532 162.131 45.2167 162.105 45.1864 162.072C45.156 162.039 45.1325 162.001 45.1171 161.959C45.1016 161.917 45.0946 161.873 45.0965 161.829C45.3549 154.879 45.2597 149.412 45.1713 144.12C45.1101 140.338 45.0489 136.765 45.1101 132.705C45.1101 132.661 45.1189 132.617 45.1361 132.576C45.1532 132.536 45.1784 132.499 45.2101 132.468C45.2417 132.437 45.2793 132.413 45.3205 132.397C45.3617 132.38 45.4057 132.372 45.4501 132.373C45.5402 132.373 45.6267 132.409 45.6905 132.472C45.7542 132.536 45.7901 132.622 45.7901 132.712C45.7289 136.772 45.7901 140.331 45.8513 144.107C45.9397 149.405 46.0349 154.886 45.7765 161.856C45.7747 161.9 45.7642 161.944 45.7455 161.984C45.7267 162.025 45.7002 162.061 45.6673 162.091C45.6345 162.121 45.596 162.145 45.5541 162.16C45.5121 162.175 45.4675 162.182 45.4229 162.18Z" fill="#231F20"/>
<path d="M124.786 89.6553C119.917 83.6285 115.055 77.5971 110.2 71.5612C107.783 68.5659 105.369 65.5637 102.958 62.5548C102.027 61.2415 100.983 60.012 99.8365 58.8805C98.7825 58.0134 98.0258 56.8414 97.6712 55.5271C97.3166 54.2128 97.3818 52.8212 97.8577 51.5454C98.3814 50.4656 98.7193 49.3059 98.8573 48.1147C98.9049 45.8547 97.1301 43.7908 97.4089 41.5511C97.4194 41.3846 97.4733 41.2237 97.5653 41.0842C97.8917 40.6511 98.5921 40.9082 99.0137 41.2533C99.764 41.8681 100.366 42.6428 100.775 43.5202C103.171 41.2269 105.213 38.5932 106.834 35.7047C107.153 35.1295 107.629 34.4528 108.282 34.5476C108.935 34.6423 109.22 35.5423 109.146 36.2392C108.962 37.8971 107.935 39.3181 107.024 40.712C106.29 41.8353 106.126 49.8741 106.779 50.571C108.588 52.5266 136.699 75.743 143.928 84.7359C153.4 96.5505 149.062 106.525 143.928 107.804C138.794 109.082 124.786 89.6553 124.786 89.6553Z" fill="#FFD6D6"/>
<path d="M143.445 108.196C137.821 108.196 125.146 90.7312 124.514 89.8583C119.654 83.836 114.794 77.8091 109.934 71.7778C107.518 68.7734 105.104 65.769 102.692 62.7646C102.441 62.4533 102.196 62.1353 101.951 61.8105C101.261 60.8454 100.478 59.9502 99.6119 59.1376C98.508 58.2224 97.7159 56.9895 97.3445 55.6082C96.9731 54.227 97.0407 52.7651 97.538 51.4236L97.7623 50.8688C98.1723 49.9988 98.4277 49.0647 98.5171 48.108C98.4672 47.0771 98.2227 46.0647 97.7963 45.1239C97.2624 43.9961 97.0127 42.7559 97.0688 41.5105C97.0869 41.2848 97.1643 41.0677 97.2932 40.8812C97.3668 40.7815 97.4604 40.6982 97.5681 40.6365C97.6758 40.5748 97.7952 40.536 97.9188 40.5225C98.4001 40.5055 98.8698 40.6725 99.2311 40.9894C99.8982 41.5362 100.454 42.2045 100.87 42.9585C103.1 40.7549 105.007 38.2491 106.534 35.5152C106.759 35.1092 107.364 34.0468 108.336 34.1619C109.309 34.2769 109.581 35.319 109.486 36.1919C109.309 37.782 108.418 39.1286 107.554 40.4346L107.303 40.8203C106.623 41.8962 106.568 49.6169 107.031 50.2936C107.493 50.9703 109.982 52.9394 113.402 55.8896C122.922 64.1247 138.93 77.9084 144.193 84.472C151.265 93.2687 150.048 100.09 149.191 102.6C148.218 105.462 146.28 107.513 144.009 108.074C143.827 108.14 143.637 108.18 143.445 108.196ZM98.0548 41.206H98.0004C97.9682 41.2073 97.9368 41.2159 97.9085 41.2311C97.8802 41.2464 97.8558 41.2678 97.8371 41.2939C97.7839 41.387 97.7536 41.4914 97.7488 41.5984C97.7038 42.7355 97.9372 43.8664 98.4288 44.8938C98.8864 45.9145 99.1471 47.0117 99.1971 48.1283C99.1113 49.1679 98.8372 50.1834 98.388 51.1259L98.1771 51.674C97.7287 52.8848 97.6691 54.2043 98.0065 55.4503C98.3439 56.6963 99.0617 57.8074 100.061 58.6301C100.961 59.4724 101.774 60.4017 102.488 61.4045L103.223 62.3518C105.63 65.3562 108.044 68.3583 110.465 71.3582C115.32 77.3941 120.182 83.4232 125.051 89.4455C128.77 94.6085 139.045 107.513 143.411 107.513C143.562 107.515 143.713 107.497 143.86 107.458C145.9 106.958 147.674 105.029 148.558 102.424C149.381 100.015 150.537 93.4988 143.676 84.9389C138.454 78.4226 121.875 64.1247 112.967 56.4445C109.404 53.3657 107.051 51.3357 106.541 50.7876C105.793 49.9823 105.956 41.727 106.752 40.5158L107.004 40.1368C107.82 38.8918 108.663 37.6129 108.819 36.1851C108.874 35.6979 108.731 34.94 108.248 34.8724C107.901 34.825 107.568 35.1295 107.146 35.8603C105.509 38.7765 103.447 41.4353 101.026 43.7502C100.987 43.7867 100.939 43.8136 100.887 43.8288C100.835 43.8441 100.78 43.8473 100.727 43.8382C100.674 43.8299 100.623 43.8081 100.58 43.775C100.537 43.7418 100.504 43.6984 100.482 43.6487C100.094 42.8176 99.5223 42.0843 98.8096 41.5037C98.5976 41.3227 98.3332 41.2136 98.0548 41.1924V41.206Z" fill="#231F20"/>
<path d="M42.0909 89.6553C46.9597 83.6285 51.8217 77.5971 56.6769 71.5612C59.0977 68.5659 61.5117 65.5637 63.9189 62.5548C64.8492 61.2415 65.8936 60.012 67.0401 58.8805C69.1685 57.0264 69.7057 54.6107 69.1413 51.7823C68.7469 49.8064 67.7813 47.7223 68.5089 45.875C68.8625 45.0088 69.5493 44.3119 69.8689 43.439C70.1885 42.5661 69.8689 41.3278 68.9781 41.1518C68.6617 41.1337 68.3463 41.2007 68.0651 41.346C67.7838 41.4913 67.5472 41.7094 67.3801 41.9774C66.9789 42.5119 66.7001 43.3307 66.0745 43.5675C64.1161 40.1842 62.8649 36.6317 61.2125 33.1063C61.0349 32.6614 60.7663 32.2581 60.4237 31.9221C60.2494 31.7481 60.0283 31.6281 59.787 31.5764C59.5456 31.5248 59.2944 31.5438 59.0637 31.6311C58.8528 31.7448 58.6776 31.9143 58.5576 32.1209C58.4376 32.3275 58.3774 32.5632 58.3837 32.8018C58.3955 33.2789 58.4898 33.7504 58.6625 34.1957C59.421 36.8501 60.0384 39.5425 60.5121 42.2616C60.8793 43.9668 61.9809 46.2065 60.5121 47.7696C58.6965 49.7252 29.4565 75.2626 22.9081 84.7359C14.7481 96.5505 17.7741 106.525 22.9081 107.804C28.0421 109.082 42.0909 89.6553 42.0909 89.6553Z" fill="#FFD6D6"/>
<path d="M23.4318 108.196C23.2415 108.198 23.0517 108.175 22.8674 108.128C20.9158 107.648 19.277 105.99 18.3658 103.588C16.4006 98.4046 18.0054 91.2861 22.6702 84.5465C27.7498 77.1979 46.4294 60.2203 55.4054 52.0665C58.0098 49.6981 59.9002 48.0065 60.3014 47.5463C61.335 46.4298 60.9066 44.9073 60.485 43.4322C60.383 43.0533 60.2742 42.6811 60.1994 42.336C60.0498 41.612 59.907 40.8947 59.7642 40.1707C59.4146 38.1914 58.9468 36.2346 58.3634 34.3107C58.1726 33.8273 58.0691 33.3142 58.0574 32.795C58.0577 32.4911 58.1424 32.1933 58.3019 31.9342C58.4615 31.6751 58.6898 31.4649 58.9618 31.3266C59.2468 31.2188 59.5568 31.194 59.8554 31.2551C60.1541 31.3162 60.4291 31.4607 60.6482 31.6717C61.0247 32.0408 61.321 32.4831 61.5186 32.9709C62.0898 34.1889 62.6202 35.434 63.137 36.6385C64.0362 38.8438 65.0555 40.9988 66.1902 43.0939C66.4122 42.8671 66.6 42.6096 66.7478 42.3292C66.8634 42.1398 66.9858 41.9435 67.1082 41.7811C67.3106 41.4505 67.6038 41.1844 67.9532 41.0142C68.3026 40.8439 68.6936 40.7766 69.0802 40.8203C69.2924 40.8636 69.4925 40.9527 69.6663 41.0813C69.8402 41.2099 69.9837 41.3749 70.0866 41.5646C70.2469 41.8686 70.3419 42.2025 70.3653 42.545C70.3887 42.8876 70.3401 43.2312 70.2226 43.554C70.032 44.0322 69.7855 44.4865 69.4882 44.9073C69.2436 45.256 69.0341 45.6277 68.8626 46.0171C68.339 47.3027 68.7198 48.7237 69.1278 50.1921C69.2638 50.6928 69.4066 51.2139 69.5086 51.7281C70.1342 54.8746 69.4134 57.3039 67.2986 59.1715C66.4345 59.9857 65.6512 60.8808 64.9594 61.8443C64.7146 62.1691 64.4698 62.521 64.2182 62.7984C61.811 65.8028 59.397 68.8072 56.9762 71.8116C52.121 77.843 47.2612 83.8698 42.397 89.8921C41.7306 90.7312 29.0554 108.196 23.4318 108.196ZM59.4718 31.8883C59.3811 31.8863 59.2909 31.9024 59.2066 31.9356C59.0544 32.027 58.9287 32.1561 58.8416 32.3103C58.7546 32.4644 58.7093 32.6385 58.7102 32.8153C58.724 33.2398 58.8114 33.6587 58.9686 34.0536C59.5657 36.0174 60.0449 38.0148 60.4034 40.0353C60.5462 40.7526 60.689 41.4699 60.8386 42.1871C60.9134 42.5255 61.0086 42.8638 61.1174 43.2427C61.539 44.7382 62.0626 46.6261 60.7706 47.9794C60.349 48.4395 58.5538 50.0703 55.8338 52.5401C46.8782 60.6601 28.2394 77.6242 23.1938 84.9119C18.6582 91.4688 17.0738 98.3572 18.971 103.331C19.8006 105.516 21.2694 107.025 22.9966 107.452C27.029 108.46 37.9226 94.7912 41.7782 89.4388C46.647 83.4164 51.509 77.3873 56.3642 71.3515C58.7759 68.3561 61.1899 65.3539 63.6062 62.345L64.3406 61.3977C65.0571 60.3965 65.8702 59.4674 66.7682 58.6234C68.6858 56.9588 69.3386 54.7393 68.7606 51.8567C68.6654 51.3695 68.5226 50.862 68.3866 50.368C67.9718 48.8388 67.5434 47.2621 68.1486 45.7599C68.3373 45.332 68.565 44.922 68.8286 44.5352C69.1032 44.1649 69.3316 43.7627 69.5086 43.3375C69.5929 43.1073 69.6286 42.8623 69.6134 42.6178C69.5982 42.3733 69.5324 42.1345 69.4202 41.9165C69.3668 41.8111 69.2902 41.7193 69.1959 41.6477C69.1017 41.5762 68.9923 41.527 68.8762 41.5037C68.6245 41.498 68.3757 41.5574 68.154 41.676C67.9324 41.7946 67.7454 41.9684 67.6114 42.1804C67.4955 42.3388 67.3888 42.5038 67.2918 42.6743C67.0481 43.1791 66.6571 43.5989 66.1698 43.8788C66.0933 43.9114 66.0074 43.9149 65.9284 43.8887C65.8495 43.8625 65.7829 43.8085 65.7414 43.7367C64.5139 41.5238 63.4216 39.2393 62.4706 36.8956C61.9606 35.6979 61.4302 34.4596 60.859 33.2484C60.7098 32.8467 60.4782 32.4803 60.179 32.1725C59.9922 32.0023 59.7518 31.9019 59.499 31.8883H59.4718Z" fill="#231F20"/>
<path d="M10.362 64.7134C10.2974 64.7137 10.234 64.6954 10.1797 64.6605C10.1254 64.6257 10.0824 64.5758 10.056 64.5171C10.0365 64.4767 10.0253 64.4329 10.0229 64.3882C10.0206 64.3434 10.0272 64.2987 10.0424 64.2565C10.0576 64.2143 10.081 64.1756 10.1114 64.1425C10.1417 64.1094 10.1784 64.0826 10.2192 64.0638L45.28 47.8914C45.3612 47.8544 45.4539 47.8506 45.5379 47.881C45.6219 47.9114 45.6905 47.9735 45.7288 48.0538C45.7482 48.0937 45.7593 48.1371 45.7616 48.1813C45.7638 48.2255 45.7571 48.2698 45.7419 48.3114C45.7267 48.353 45.7033 48.3912 45.673 48.4237C45.6427 48.4562 45.6062 48.4822 45.5656 48.5004L10.5048 64.6795C10.46 64.7003 10.4114 64.7118 10.362 64.7134Z" fill="#D1D3D4"/>
<path d="M45.4365 31.374H45.3957L1.19566 26.4682C1.10654 26.458 1.02508 26.4131 0.969033 26.3434C0.912989 26.2737 0.886909 26.1848 0.896468 26.096C0.899718 26.0514 0.912199 26.0079 0.933132 25.9683C0.954065 25.9287 0.982995 25.8938 1.01811 25.8658C1.05323 25.8379 1.09377 25.8175 1.1372 25.8058C1.18062 25.7942 1.22599 25.7916 1.27047 25.7983L45.4705 30.6973C45.5152 30.7024 45.5586 30.7162 45.5979 30.738C45.6373 30.7598 45.6719 30.7893 45.6997 30.8245C45.7276 30.8598 45.7481 30.9002 45.7601 30.9434C45.7721 30.9866 45.7754 31.0318 45.7697 31.0763C45.7612 31.1582 45.7224 31.2341 45.6608 31.2891C45.5992 31.3442 45.5192 31.3744 45.4365 31.374Z" fill="#D1D3D4"/>
<path d="M54.9428 12.1905C54.8932 12.1907 54.8443 12.1791 54.8 12.1567L32.7952 1.2894C32.755 1.26992 32.719 1.24272 32.6893 1.20936C32.6597 1.17601 32.637 1.13716 32.6224 1.09504C32.6079 1.05292 32.6019 1.00836 32.6047 0.96391C32.6075 0.919465 32.6191 0.876011 32.6388 0.836039C32.6809 0.757609 32.7517 0.698353 32.8366 0.67062C32.9215 0.642887 33.0138 0.648816 33.0944 0.687171L55.0992 11.5477C55.1793 11.5882 55.24 11.6587 55.268 11.7436C55.2961 11.8286 55.2892 11.9211 55.2488 12.001C55.2202 12.0575 55.1765 12.105 55.1225 12.1384C55.0685 12.1718 55.0064 12.1899 54.9428 12.1905Z" fill="#D1D3D4"/>
<path d="M153.638 64.7134C153.591 64.7227 153.542 64.7227 153.495 64.7134L118.421 48.5343C118.38 48.5161 118.344 48.49 118.313 48.4575C118.283 48.425 118.26 48.3869 118.244 48.3452C118.229 48.3036 118.223 48.2594 118.225 48.2151C118.227 48.1709 118.238 48.1275 118.258 48.0877C118.296 48.0073 118.364 47.9452 118.448 47.9149C118.532 47.8845 118.625 47.8882 118.706 47.9253L153.781 64.0976C153.822 64.1165 153.858 64.1432 153.889 64.1763C153.919 64.2094 153.942 64.2482 153.958 64.2903C153.973 64.3325 153.979 64.3773 153.977 64.422C153.975 64.4667 153.963 64.5106 153.944 64.551C153.913 64.6034 153.868 64.6463 153.814 64.6749C153.76 64.7035 153.699 64.7169 153.638 64.7134Z" fill="#D1D3D4"/>
<path d="M118.564 28.9245C118.48 28.9247 118.399 28.8935 118.337 28.8371C118.275 28.7807 118.237 28.7031 118.23 28.62C118.221 28.5312 118.247 28.4423 118.303 28.3726C118.359 28.3028 118.441 28.258 118.53 28.2478L162.73 23.342C162.774 23.3373 162.82 23.3415 162.863 23.3543C162.906 23.3671 162.946 23.3883 162.98 23.4166C163.015 23.4449 163.044 23.4798 163.065 23.5193C163.086 23.5587 163.099 23.602 163.104 23.6465C163.113 23.7352 163.087 23.8242 163.031 23.8939C162.975 23.9636 162.894 24.0084 162.804 24.0186L118.604 28.9177L118.564 28.9245Z" fill="#D1D3D4"/>
<path d="M114.354 14.3694C114.291 14.368 114.229 14.3497 114.175 14.3163C114.122 14.283 114.078 14.2359 114.048 14.1799C114.029 14.1399 114.017 14.0965 114.014 14.052C114.012 14.0076 114.018 13.963 114.032 13.9209C114.047 13.8788 114.069 13.8399 114.099 13.8066C114.129 13.7732 114.165 13.746 114.205 13.7265L136.203 2.89987C136.243 2.88032 136.287 2.86884 136.331 2.86608C136.376 2.86333 136.421 2.86934 136.463 2.88379C136.505 2.89825 136.544 2.92085 136.578 2.95031C136.611 2.97977 136.639 3.01552 136.658 3.05551C136.678 3.09549 136.69 3.13894 136.692 3.18336C136.695 3.22779 136.689 3.27233 136.675 3.31442C136.66 3.35652 136.637 3.39536 136.608 3.42873C136.578 3.46209 136.542 3.48933 136.502 3.50887L114.504 14.3355C114.458 14.359 114.406 14.3706 114.354 14.3694Z" fill="#D1D3D4"/>
<path d="M23.3228 40.3872L24.472 42.7082L27.0424 43.0803L25.1792 44.887L25.6212 47.4313L23.3228 46.2336L21.0176 47.4313L21.4596 44.887L19.5964 43.0803L22.1736 42.7082L23.3228 40.3872Z" fill="#F7DD41"/>
<path d="M144.159 70.8981L144.567 72.4409L146.083 72.9822L144.73 73.8484L144.689 75.4453L143.438 74.4371L141.901 74.8904L142.479 73.395L141.568 72.0755L143.173 72.1635L144.159 70.8981Z" fill="#D1D3D4"/>
<path d="M21.0177 9.94397L22.8809 13.6995L27.0425 14.3017L24.0301 17.2249L24.7441 21.3458L21.0177 19.397L17.2913 21.3458L18.0053 17.2249L14.9929 14.3017L19.1545 13.6995L21.0177 9.94397Z" fill="#F7DD41"/>
<path d="M136.101 12.1228L137.25 14.4438L139.827 14.816L137.964 16.6227L138.399 19.1669L136.101 17.9692L133.803 19.1669L134.238 16.6227L132.381 14.816L134.952 14.4438L136.101 12.1228Z" fill="#F7DD41"/>
<path d="M7.18644 73.2529L10.464 76.8054L15.2512 76.1287L12.878 80.3241L14.9996 84.6547L10.26 83.7006L6.77844 87.0501L6.22084 82.2593L1.95044 80.006L6.35004 78.0031L7.18644 73.2529Z" fill="#F7DD41"/>
<path d="M141.718 117.311L142.371 120.214L145.145 121.33L142.575 122.846L142.371 125.816L140.127 123.847L137.223 124.571L138.406 121.838L136.822 119.32L139.8 119.598L141.718 117.311Z" fill="#F7DD41"/>
<path d="M60.4442 0.626266L61.5934 2.94723L64.1638 3.3194L62.3074 5.1261L62.7426 7.67713L60.4442 6.47267L58.139 7.67713L58.581 5.1261L56.7178 3.3194L59.295 2.94723L60.4442 0.626266Z" fill="#F7DD41"/>
<path d="M146.546 33.925L147.11 40.3669L152.761 43.5608L146.777 46.0847L145.478 52.4251L141.214 47.5396L134.754 48.2636L138.107 42.7217L135.414 36.8347L141.752 38.2895L146.546 33.925Z" fill="#F7DD41"/>
<path d="M111.92 162.18H111.879C111.79 162.169 111.709 162.122 111.654 162.051C111.6 161.98 111.575 161.89 111.587 161.802L116.476 124.768C116.481 124.723 116.495 124.68 116.517 124.641C116.539 124.603 116.569 124.569 116.604 124.541C116.64 124.514 116.68 124.495 116.724 124.483C116.767 124.472 116.812 124.47 116.857 124.477C116.946 124.488 117.027 124.535 117.082 124.606C117.137 124.677 117.161 124.767 117.149 124.856L112.26 161.883C112.25 161.965 112.21 162.041 112.147 162.096C112.084 162.151 112.004 162.181 111.92 162.18Z" fill="#231F20"/>
</svg>
