<svg width="161" height="224" viewBox="0 0 161 224" fill="none" xmlns="http://www.w3.org/2000/svg">
<path d="M137.29 216.613L150.38 151.863L154.7 112.123C154.7 112.123 111.23 69.4127 98.81 55.4227C86.39 41.4327 72.4 21.3627 66 22.8627C59.6 24.3627 58.37 31.6627 62.56 40.6527C64.28 44.3427 66.89 48.4427 68.07 52.2627C69.07 55.3727 68.74 64.1327 65.73 66.3327C62.12 68.9727 58.67 56.2127 54.09 58.4827C51.68 59.6727 49.29 65.8627 51.35 72.4827C52.5882 75.6637 54.1427 78.7123 55.99 81.5827C59.76 87.6527 59.79 91.4427 62.2 98.0927C64.68 104.933 64.05 95.6927 61.74 101.963C58.93 109.573 54.98 118.473 54.81 126.723C54.55 139.913 70.43 161.263 76.96 171.673C83.49 182.083 70.89 206.803 70.89 206.803L137.29 216.613Z" fill="#FFD6D6"/>
<path d="M137.29 217.123H137.23L70.82 207.333C70.7422 207.322 70.6682 207.292 70.6039 207.247C70.5396 207.202 70.4869 207.142 70.45 207.073C70.4154 207.001 70.3975 206.922 70.3975 206.843C70.3975 206.763 70.4154 206.684 70.45 206.613C70.58 206.363 82.86 182.033 76.55 171.983C75.48 170.273 74.12 168.223 72.69 166.053C65.29 154.853 54.1 137.933 54.32 126.753C54.46 119.693 57.32 112.123 59.91 105.443C60.38 104.213 60.84 103.003 61.28 101.833C61.5058 101.093 61.843 100.391 62.28 99.7527C62.1 99.3727 61.91 98.8927 61.7 98.3027C60.88 96.0527 60.34 94.1527 59.83 92.3027C58.9498 88.6229 57.4989 85.1037 55.53 81.8727C53.6569 78.9635 52.0854 75.8708 50.84 72.6427C48.69 65.7027 51.18 59.3527 53.84 58.0327C56.5 56.7127 58.84 59.7627 60.84 62.4827C61.594 63.6058 62.4619 64.648 63.43 65.5927C64.43 66.4427 65.01 66.2427 65.43 65.9327C68.17 63.9327 68.57 55.5327 67.6 52.4127C66.6664 49.7881 65.5019 47.2515 64.12 44.8327C63.39 43.4527 62.7 42.1527 62.12 40.8327C59.44 35.0627 58.9 29.9627 60.6 26.4527C61.1114 25.4087 61.8549 24.4956 62.7735 23.7832C63.6921 23.0709 64.7616 22.5781 65.9 22.3427C71 21.1727 79.67 31.6627 89.71 43.8227C92.85 47.6227 96.1 51.5527 99.21 55.0627C111.46 68.8727 154.63 111.263 155.07 111.693C155.123 111.746 155.163 111.81 155.188 111.881C155.212 111.952 155.22 112.028 155.21 112.103L150.9 151.893L137.8 216.683C137.787 216.807 137.727 216.922 137.633 217.004C137.538 217.086 137.415 217.128 137.29 217.123ZM71.64 206.423L136.9 216.043L149.9 151.773L154.18 112.263C151.18 109.263 110.33 69.1527 98.45 55.7527C95.33 52.2327 92.07 48.2927 88.93 44.4827C79.93 33.5827 70.61 22.2927 66.12 23.3527C65.1236 23.5463 64.1862 23.9699 63.3824 24.5897C62.5786 25.2094 61.9306 26.0083 61.49 26.9227C59.94 30.1027 60.49 35.0327 63.02 40.4427C63.61 41.7027 64.29 42.9927 65.02 44.3627C66.4228 46.8404 67.6041 49.4372 68.55 52.1227C69.55 55.2327 69.35 64.3127 66.02 66.7527C65.02 67.4727 63.95 67.3427 62.79 66.3627C61.7534 65.3758 60.831 64.2755 60.04 63.0827C58.2 60.5627 56.29 57.9527 54.31 58.9427C52.33 59.9327 49.79 65.8027 51.83 72.3627C53.0571 75.506 54.5912 78.5206 56.41 81.3627C58.4346 84.6711 59.923 88.2791 60.82 92.0527C61.33 93.8627 61.82 95.7427 62.67 97.9627C62.85 98.4727 63.02 98.8827 63.16 99.1927C63.2464 99.1829 63.3336 99.1829 63.42 99.1927C63.6903 99.2797 63.9232 99.4554 64.0812 99.6914C64.2391 99.9273 64.3127 100.21 64.29 100.493C64.3143 100.669 64.2712 100.849 64.1693 100.995C64.0674 101.142 63.9141 101.244 63.74 101.283C63.46 101.283 63.18 101.223 62.85 100.743C62.6027 101.183 62.3952 101.645 62.23 102.123C61.79 103.303 61.33 104.523 60.85 105.753C58.33 112.353 55.47 119.833 55.33 126.753C55.12 137.613 66.2 154.383 73.53 165.483C74.97 167.663 76.33 169.713 77.41 171.433C83.49 181.123 73.6 202.423 71.64 206.423Z" fill="#231F20"/>
<path d="M37.0674 154.22L103.917 175.016C106.612 175.854 109.476 174.349 110.315 171.654L154.782 28.711C155.62 26.0162 154.115 23.1521 151.42 22.3138L84.5703 1.51788C81.8755 0.679579 79.0113 2.18456 78.173 4.87936L33.7059 147.823C32.8676 150.517 34.3726 153.382 37.0674 154.22Z" fill="#1E212A"/>
<path d="M105.44 175.733C104.877 175.733 104.318 175.649 103.78 175.483L36.93 154.683C35.5178 154.236 34.3385 153.251 33.6478 151.94C32.9571 150.63 32.8105 149.1 33.24 147.683L77.72 4.71272C78.1645 3.29896 79.1495 2.11802 80.4605 1.42694C81.7715 0.735851 83.3024 0.590574 84.72 1.02272L151.56 21.8227C152.974 22.2673 154.155 23.2522 154.846 24.5632C155.537 25.8742 155.682 27.4051 155.25 28.8227L110.81 171.783C110.451 172.926 109.737 173.926 108.771 174.636C107.805 175.346 106.639 175.73 105.44 175.733ZM37.23 153.723L104.07 174.523C105.234 174.884 106.494 174.772 107.577 174.211C108.659 173.649 109.476 172.683 109.85 171.523L154.32 28.5527C154.684 27.3884 154.574 26.1272 154.011 25.0443C153.449 23.9614 152.482 23.1448 151.32 22.7727L84.48 1.97272C83.3156 1.60826 82.0544 1.71915 80.9715 2.2812C79.8887 2.84324 79.0721 3.8108 78.7 4.97272L34.23 147.953C33.8658 149.116 33.977 150.376 34.5392 151.457C35.1013 152.538 36.0688 153.353 37.23 153.723Z" fill="#231F20"/>
<path d="M42.7004 132.531L111.26 153.859L147.82 36.3343L79.2603 15.0067L42.7004 132.531Z" fill="#E7F7EE"/>
<path d="M78.62 162.363C78.2508 162.364 77.8833 162.31 77.5301 162.203L64.5301 158.143C64.0737 158 63.6498 157.769 63.2827 157.463C62.9156 157.157 62.6124 156.781 62.3905 156.358C62.1685 155.934 62.0322 155.471 61.9892 154.995C61.9462 154.519 61.9975 154.039 62.1401 153.583L63.6901 148.583C63.9779 147.661 64.6195 146.89 65.4742 146.441C66.3289 145.991 67.3271 145.898 68.2501 146.183L81.2501 150.243C82.172 150.531 82.9423 151.172 83.3922 152.027C83.842 152.882 83.9347 153.88 83.65 154.803L82.1 159.803C81.8666 160.543 81.4036 161.191 80.7781 161.651C80.1525 162.111 79.3967 162.36 78.62 162.363ZM67.12 147.033C66.5565 147.033 66.0079 147.214 65.5544 147.549C65.101 147.883 64.7666 148.354 64.6 148.893L63.0501 153.893C62.945 154.224 62.9068 154.573 62.9375 154.92C62.9683 155.266 63.0674 155.603 63.2293 155.911C63.3911 156.219 63.6123 156.491 63.8803 156.713C64.1482 156.935 64.4574 157.101 64.79 157.203L77.79 161.263C78.1216 161.368 78.4707 161.406 78.8171 161.375C79.1635 161.344 79.5003 161.245 79.8082 161.084C80.116 160.922 80.3887 160.7 80.6104 160.433C80.8322 160.165 80.9986 159.855 81.1 159.523L82.65 154.523C82.8569 153.852 82.7901 153.126 82.4642 152.504C82.1382 151.882 81.5796 151.414 80.91 151.203L67.91 147.153C67.6543 147.073 67.3879 147.033 67.12 147.033Z" fill="#EAEAEA"/>
<path d="M129.69 23.5427H129.55L110.02 17.4727C109.887 17.4329 109.776 17.3421 109.71 17.2202C109.645 17.0983 109.63 16.9553 109.67 16.8227C109.71 16.6901 109.801 16.5787 109.923 16.5131C110.044 16.4475 110.187 16.4329 110.32 16.4727L129.84 22.5427C129.966 22.5841 130.071 22.6731 130.133 22.7907C130.195 22.9084 130.208 23.0454 130.17 23.1727C130.142 23.2784 130.079 23.3719 129.992 23.4387C129.906 23.5056 129.8 23.5421 129.69 23.5427Z" fill="#D1D3D4"/>
<path d="M107.51 16.3827H107.36L104.74 15.5627C104.607 15.5229 104.496 15.4321 104.43 15.3102C104.365 15.1883 104.35 15.0453 104.39 14.9127C104.43 14.7801 104.521 14.6687 104.643 14.6031C104.764 14.5375 104.907 14.5229 105.04 14.5627L107.66 15.3827C107.786 15.4241 107.891 15.5131 107.953 15.6307C108.015 15.7484 108.028 15.8854 107.99 16.0127C107.96 16.1176 107.897 16.2102 107.811 16.2768C107.725 16.3434 107.619 16.3805 107.51 16.3827Z" fill="#D1D3D4"/>
<path d="M72.73 71.7027C72.3638 73.064 71.5951 74.283 70.5245 75.2001C69.4539 76.1172 68.1314 76.6898 66.73 76.8427C63.246 77.259 59.7322 76.3564 56.88 74.3127C55.2404 73.1646 53.8409 71.7074 52.76 70.0227C50.9 67.1127 50.31 63.8027 51.46 61.2627C53.34 57.1127 59.82 56.1527 65.4 58.6027C70.62 60.8927 73.59 67.8227 72.73 71.7027Z" fill="white"/>
<path d="M65.02 77.4727C61.998 77.421 59.0612 76.463 56.59 74.7227C54.8962 73.5395 53.452 72.0342 52.34 70.2927C50.34 67.1327 49.82 63.6727 51 61.0527C52.95 56.7727 59.49 55.4727 65.6 58.1527C70.97 60.5027 74.16 67.5527 73.21 71.8127C72.8305 73.2741 72.0147 74.5852 70.8713 75.5714C69.728 76.5575 68.3113 77.1719 66.81 77.3327C66.2184 77.4302 65.6196 77.477 65.02 77.4727ZM59.23 57.7827C55.85 57.7827 52.98 59.0827 51.9 61.4727C50.82 63.8627 51.32 66.8727 53.16 69.7527C54.2073 71.3858 55.5666 72.7961 57.16 73.9027C59.899 75.8754 63.278 76.7496 66.63 76.3527C67.9357 76.2197 69.1702 75.6934 70.1701 74.8435C71.1701 73.9935 71.8884 72.8599 72.23 71.5927C73 68.1327 70.38 61.3427 65.23 59.0627C63.3396 58.2273 61.2969 57.7915 59.23 57.7827Z" fill="#231F20"/>
<path d="M65.74 90.6827C66.0442 91.6307 66.1294 92.6352 65.9891 93.6208C65.8488 94.6064 65.4867 95.5474 64.93 96.3727C64.1593 97.3071 63.1796 98.0471 62.07 98.5327C59.07 99.9927 55.48 100.533 52.5 99.1127C50.7118 98.1362 49.1668 96.769 47.98 95.1127C45.81 92.3527 43.91 89.1127 43.98 85.6027C44.1 80.5227 49.61 74.7527 54.87 77.1427C59.23 79.0627 64.49 86.2327 65.74 90.6827Z" fill="#F6D3D1"/>
<path d="M56.37 100.453C54.9567 100.471 53.5578 100.167 52.28 99.5627C50.4202 98.5427 48.8165 97.1134 47.59 95.3827C44.72 91.7327 43.42 88.6127 43.49 85.5527C43.6021 83.8841 44.1037 82.265 44.9547 80.8253C45.8056 79.3857 46.9822 78.1655 48.39 77.2627C49.3615 76.5969 50.4875 76.1912 51.6605 76.0844C52.8334 75.9776 54.0142 76.1733 55.09 76.6527C59.56 78.6527 64.95 85.9927 66.22 90.5527C66.5459 91.5751 66.6351 92.6583 66.481 93.7202C66.3268 94.7822 65.9332 95.7952 65.33 96.6827C64.522 97.6718 63.4949 98.4592 62.33 98.9827C60.4826 99.9239 58.4432 100.427 56.37 100.453ZM52.37 77.0527C51.1552 77.0559 49.9661 77.4026 48.94 78.0527C47.6719 78.868 46.6112 79.9676 45.8423 81.2642C45.0733 82.5609 44.6171 84.019 44.51 85.5227C44.44 88.3427 45.68 91.2627 48.39 94.7127C49.5307 96.3211 51.0171 97.6537 52.74 98.6127C55.28 99.8427 58.61 99.6127 61.87 98.0327C62.9118 97.5924 63.8314 96.9061 64.55 96.0327C65.0622 95.2704 65.3941 94.4016 65.5205 93.4919C65.647 92.5823 65.5648 91.6558 65.28 90.7827C64.09 86.5127 58.86 79.4127 54.69 77.5227C53.9536 77.1973 53.1549 77.0369 52.35 77.0527H52.37Z" fill="#231F20"/>
<path d="M58.37 104.833C59.2021 105.896 59.7925 107.128 60.1 108.443C60.3384 109.938 60.1474 111.471 59.549 112.863C58.9507 114.254 57.9697 115.447 56.72 116.303C55.4554 117.132 54.0378 117.699 52.5506 117.973C51.0634 118.246 49.5366 118.218 48.06 117.893C46.3011 117.57 44.6299 116.88 43.1551 115.869C41.6803 114.858 40.4349 113.547 39.5 112.023C38.5923 110.479 38.1038 108.725 38.0827 106.934C38.0617 105.143 38.5089 103.378 39.38 101.813C44.23 93.6927 54.14 99.1227 58.37 104.833Z" fill="#FFD6D6"/>
<path d="M50.56 118.643C49.687 118.639 48.8163 118.552 47.96 118.383C46.1325 118.045 44.3967 117.326 42.8651 116.273C41.3335 115.221 40.0405 113.858 39.07 112.273C38.1137 110.653 37.5994 108.81 37.5783 106.929C37.5573 105.048 38.0302 103.194 38.95 101.553C39.6073 100.312 40.5724 99.2617 41.7527 98.5017C42.933 97.7417 44.2888 97.2979 45.69 97.2127C50.49 96.9427 55.92 100.703 58.77 104.533C59.6493 105.654 60.2708 106.954 60.59 108.343C60.8434 109.933 60.6417 111.563 60.0082 113.045C59.3748 114.526 58.3354 115.797 57.01 116.713C55.1091 118.003 52.8571 118.677 50.56 118.643ZM46.16 98.2027H45.74C44.5024 98.2744 43.3048 98.6672 42.265 99.3422C41.2252 100.017 40.3792 100.951 39.81 102.053C38.9807 103.539 38.5554 105.217 38.5765 106.919C38.5975 108.621 39.0642 110.287 39.93 111.753C40.8284 113.218 42.0256 114.478 43.4437 115.45C44.8618 116.422 46.4688 117.084 48.16 117.393C49.5692 117.71 51.0278 117.739 52.4487 117.48C53.8696 117.22 55.2237 116.677 56.43 115.883C57.5986 115.082 58.5172 113.967 59.0798 112.666C59.6424 111.366 59.8262 109.933 59.61 108.533C59.3192 107.29 58.7594 106.126 57.97 105.123C55.36 101.623 50.53 98.2027 46.16 98.2027Z" fill="#231F20"/>
<path d="M145.68 222.983L147.81 182.243L70.09 183.213L54.67 222.983H145.68Z" fill="#0EAF59"/>
<path d="M145.68 223.473H54.68C54.6001 223.472 54.5216 223.452 54.4505 223.416C54.3794 223.379 54.3176 223.327 54.27 223.263C54.2252 223.196 54.1973 223.119 54.1886 223.039C54.1799 222.959 54.1907 222.878 54.22 222.803L69.64 183.033C69.6748 182.939 69.7375 182.858 69.8197 182.8C69.902 182.743 69.9998 182.713 70.1 182.713L147.82 181.713C147.888 181.708 147.955 181.719 148.018 181.745C148.081 181.771 148.136 181.811 148.18 181.863C148.227 181.912 148.264 181.97 148.288 182.033C148.312 182.097 148.323 182.165 148.32 182.233L146.23 223.003C146.226 223.07 146.209 223.136 146.179 223.197C146.149 223.258 146.107 223.311 146.056 223.355C146.004 223.399 145.944 223.432 145.88 223.453C145.815 223.473 145.747 223.48 145.68 223.473ZM55.4 222.473H145.23L147.31 182.733L70.46 183.733L55.4 222.473Z" fill="#231F20"/>
<path d="M149.67 154.123C149.67 154.123 161.94 113.023 159.67 103.423C157.4 93.8227 152.97 54.9827 148.98 53.4827C144.99 51.9827 136.98 63.0327 137.19 75.1227C137.246 82.2567 138.4 89.3396 140.61 96.1227C140.61 96.1227 127.35 101.963 125.86 134.523" fill="#FFD6D6"/>
<path d="M149.67 154.643H149.53C149.403 154.601 149.298 154.513 149.234 154.396C149.171 154.278 149.155 154.141 149.19 154.013C149.32 153.603 161.39 112.943 159.19 103.573C158.5 100.573 157.6 94.9127 156.56 88.3327C154.56 75.8327 151.31 54.9227 148.82 53.9927C148.336 53.8954 147.835 53.9116 147.358 54.0399C146.881 54.1683 146.44 54.4055 146.07 54.7327C141.95 57.6227 137.58 66.2527 137.7 75.1627C137.774 82.2274 138.917 89.2402 141.09 95.9627C141.134 96.0811 141.132 96.212 141.084 96.3289C141.036 96.4458 140.945 96.5401 140.83 96.5927C140.83 96.5927 137.55 98.1027 134.17 103.483C131.03 108.483 127.17 117.923 126.37 134.553C126.369 134.62 126.354 134.686 126.326 134.747C126.299 134.808 126.259 134.863 126.209 134.908C126.159 134.953 126.101 134.987 126.037 135.008C125.974 135.03 125.907 135.038 125.84 135.033C125.709 135.025 125.587 134.966 125.499 134.869C125.411 134.772 125.365 134.644 125.37 134.513C126.73 104.843 137.69 97.1827 140.01 95.8827C137.9 89.1614 136.788 82.1669 136.71 75.1227C136.58 65.8927 141.18 56.9027 145.51 53.8627C146.004 53.4288 146.597 53.1233 147.237 52.9733C147.877 52.8233 148.545 52.8334 149.18 53.0027C152 54.0627 154.43 68.2327 157.56 88.1227C158.56 94.6927 159.49 100.363 160.17 103.293C162.43 112.923 150.65 152.573 150.17 154.293C150.139 154.399 150.072 154.492 149.981 154.555C149.89 154.619 149.781 154.65 149.67 154.643Z" fill="#231F20"/>
<path d="M81.28 52.2127L52.35 30.4527C51.8334 30.0703 51.2077 29.8639 50.565 29.8639C49.9223 29.8639 49.2965 30.0703 48.78 30.4527L19.85 52.2127V88.8227H81.28V52.2127Z" fill="#231F20"/>
<path d="M81.28 89.3227H19.85C19.7857 89.3227 19.7219 89.31 19.6625 89.2854C19.603 89.2608 19.549 89.2247 19.5035 89.1792C19.458 89.1337 19.4219 89.0797 19.3973 89.0202C19.3727 88.9608 19.36 88.8971 19.36 88.8327V52.2127C19.3592 52.1349 19.3769 52.0581 19.4117 51.9886C19.4465 51.919 19.4973 51.8587 19.56 51.8127L48.48 30.0627C49.0812 29.6108 49.8129 29.3665 50.565 29.3665C51.3171 29.3665 52.0488 29.6108 52.65 30.0627L81.58 51.8127C81.641 51.8603 81.6906 51.9209 81.7252 51.9901C81.7598 52.0593 81.7785 52.1354 81.78 52.2127V88.8327C81.7796 88.8981 81.7662 88.9628 81.7404 89.0229C81.7146 89.083 81.6771 89.1373 81.63 89.1827C81.5361 89.2733 81.4105 89.3235 81.28 89.3227ZM20.35 88.3227H80.78V52.4627L52.06 30.8527C51.6279 30.5266 51.1013 30.3502 50.56 30.3502C50.0187 30.3502 49.4921 30.5266 49.06 30.8527L20.35 52.4627V88.3227Z" fill="#231F20"/>
<path d="M74.02 40.2327H25.59V86.1027H74.02V40.2327Z" fill="#E7F7EE"/>
<path d="M74.02 86.5627H25.59C25.5296 86.5627 25.4698 86.5508 25.414 86.5277C25.3582 86.5046 25.3075 86.4707 25.2647 86.428C25.222 86.3853 25.1881 86.3346 25.165 86.2788C25.1419 86.223 25.13 86.1631 25.13 86.1027V40.2327C25.13 40.1723 25.1419 40.1125 25.165 40.0567C25.1881 40.0009 25.222 39.9502 25.2647 39.9075C25.3075 39.8647 25.3582 39.8309 25.414 39.8077C25.4698 39.7846 25.5296 39.7727 25.59 39.7727H74.02C74.1412 39.7753 74.2567 39.8246 74.3425 39.9103C74.4282 39.996 74.4775 40.1115 74.48 40.2327V86.1227C74.4725 86.2404 74.4211 86.351 74.3358 86.4325C74.2506 86.514 74.1379 86.5605 74.02 86.5627ZM26.02 85.6527H73.54V40.6527H26.04L26.02 85.6527Z" fill="#231F20"/>
<path d="M66.91 64.6827H32.7C32.5674 64.6827 32.4402 64.6301 32.3465 64.5363C32.2527 64.4425 32.2 64.3153 32.2 64.1827C32.2 64.0501 32.2527 63.923 32.3465 63.8292C32.4402 63.7354 32.5674 63.6827 32.7 63.6827H66.91C67.0426 63.6827 67.1698 63.7354 67.2636 63.8292C67.3573 63.923 67.41 64.0501 67.41 64.1827C67.4074 64.3145 67.3539 64.4402 67.2607 64.5335C67.1675 64.6267 67.0418 64.6802 66.91 64.6827Z" fill="#0D9E50"/>
<path d="M51.37 69.5727H32.7C32.5674 69.5727 32.4402 69.52 32.3465 69.4263C32.2527 69.3325 32.2 69.2053 32.2 69.0727C32.2 68.9401 32.2527 68.8129 32.3465 68.7192C32.4402 68.6254 32.5674 68.5727 32.7 68.5727H51.37C51.5026 68.5727 51.6298 68.6254 51.7236 68.7192C51.8173 68.8129 51.87 68.9401 51.87 69.0727C51.87 69.2053 51.8173 69.3325 51.7236 69.4263C51.6298 69.52 51.5026 69.5727 51.37 69.5727Z" fill="#0D9E50"/>
<path d="M66.91 50.0027H32.7C32.5674 50.0027 32.4402 49.95 32.3465 49.8563C32.2527 49.7625 32.2 49.6353 32.2 49.5027C32.2 49.3701 32.2527 49.2429 32.3465 49.1492C32.4402 49.0554 32.5674 49.0027 32.7 49.0027H66.91C67.0426 49.0027 67.1698 49.0554 67.2636 49.1492C67.3573 49.2429 67.41 49.3701 67.41 49.5027C67.41 49.6353 67.3573 49.7625 67.2636 49.8563C67.1698 49.95 67.0426 50.0027 66.91 50.0027Z" fill="#0D9E50"/>
<path d="M66.91 54.8927H32.7C32.5674 54.8927 32.4402 54.8401 32.3465 54.7463C32.2527 54.6525 32.2 54.5253 32.2 54.3927C32.2 54.2601 32.2527 54.1329 32.3465 54.0392C32.4402 53.9454 32.5674 53.8927 32.7 53.8927H66.91C67.0418 53.8953 67.1675 53.9488 67.2607 54.042C67.3539 54.1352 67.4074 54.2609 67.41 54.3927C67.41 54.5253 67.3573 54.6525 67.2636 54.7463C67.1698 54.8401 67.0426 54.8927 66.91 54.8927Z" fill="#0D9E50"/>
<path d="M66.91 59.7927H32.7C32.5674 59.7927 32.4402 59.74 32.3465 59.6463C32.2527 59.5525 32.2 59.4253 32.2 59.2927C32.2 59.1601 32.2527 59.0329 32.3465 58.9392C32.4402 58.8454 32.5674 58.7927 32.7 58.7927H66.91C67.0426 58.7927 67.1698 58.8454 67.2636 58.9392C67.3573 59.0329 67.41 59.1601 67.41 59.2927C67.4074 59.4245 67.3539 59.5502 67.2607 59.6434C67.1675 59.7367 67.0418 59.7902 66.91 59.7927Z" fill="#0D9E50"/>
<path d="M81.28 92.0227H19.85C19.7901 92.0228 19.7307 92.0108 19.6755 91.9876C19.6202 91.9643 19.5702 91.9303 19.5282 91.8874C19.4863 91.8446 19.4534 91.7938 19.4314 91.738C19.4093 91.6823 19.3987 91.6227 19.4 91.5627V52.2127C19.401 52.1282 19.4247 52.0456 19.4687 51.9734C19.5127 51.9013 19.5753 51.8423 19.65 51.8027C19.7223 51.7586 19.8053 51.7352 19.89 51.7352C19.9747 51.7352 20.0578 51.7586 20.13 51.8027L50.57 74.7027L81.01 51.8027C81.0823 51.7586 81.1653 51.7352 81.25 51.7352C81.3347 51.7352 81.4178 51.7586 81.49 51.8027C81.5647 51.8423 81.6273 51.9013 81.6713 51.9734C81.7153 52.0456 81.739 52.1282 81.74 52.2127V91.5627C81.74 91.6847 81.6916 91.8018 81.6053 91.888C81.519 91.9743 81.402 92.0227 81.28 92.0227ZM20.28 91.1127H80.79V53.1227L50.79 75.6727C50.71 75.7305 50.6137 75.7616 50.515 75.7616C50.4163 75.7616 50.3201 75.7305 50.24 75.6727L20.31 53.1227L20.28 91.1127Z" fill="#231F20"/>
<path d="M19.85 92.0227C19.7802 92.0227 19.7113 92.0064 19.6488 91.9752C19.5863 91.944 19.5319 91.8986 19.49 91.8427C19.4168 91.7469 19.3841 91.6261 19.3991 91.5063C19.414 91.3866 19.4754 91.2776 19.57 91.2027L45.23 71.1227C45.3259 71.0495 45.4467 71.0168 45.5664 71.0318C45.6861 71.0467 45.7951 71.1081 45.87 71.2027C45.9076 71.2497 45.9353 71.3037 45.9517 71.3615C45.968 71.4194 45.9726 71.4799 45.9651 71.5396C45.9577 71.5993 45.9383 71.6568 45.9083 71.7089C45.8782 71.7609 45.838 71.8064 45.79 71.8427L20.14 91.9227C20.0577 91.9882 19.9553 92.0235 19.85 92.0227Z" fill="#231F20"/>
<path d="M81.28 92.0227C81.1828 92.022 81.0882 91.9905 81.01 91.9327L54.84 72.2527C54.7582 72.1749 54.7078 72.0698 54.6985 71.9572C54.6892 71.8447 54.7216 71.7327 54.7895 71.6425C54.8575 71.5523 54.9562 71.4903 55.067 71.4682C55.1777 71.4461 55.2927 71.4655 55.39 71.5227L81.56 91.2027C81.6343 91.2618 81.6885 91.3424 81.7152 91.4335C81.7419 91.5245 81.7397 91.6216 81.709 91.7114C81.6784 91.8012 81.6207 91.8794 81.5439 91.9351C81.4671 91.9908 81.3749 92.0214 81.28 92.0227Z" fill="#231F20"/>
<path d="M81.28 84.7427C88.3769 84.7427 94.13 78.9896 94.13 71.8927C94.13 64.7959 88.3769 59.0427 81.28 59.0427C74.1831 59.0427 68.43 64.7959 68.43 71.8927C68.43 78.9896 74.1831 84.7427 81.28 84.7427Z" fill="#0EAF59"/>
<path d="M81.28 67.5527L77.28 69.5527V66.4527L81.47 64.3227H84.35V76.4427H81.23L81.28 67.5527Z" fill="white"/>
<path d="M12.9 49.2227H12.78L1.28002 46.4927C1.14741 46.4622 1.03235 46.3803 0.960146 46.265C0.887944 46.1496 0.864514 46.0103 0.895014 45.8777C0.925514 45.7451 1.00744 45.6301 1.12277 45.5579C1.23811 45.4857 1.3774 45.4622 1.51001 45.4927L13.01 48.2227C13.0743 48.2368 13.135 48.2636 13.1887 48.3017C13.2424 48.3398 13.2878 48.3882 13.3223 48.4442C13.3569 48.5002 13.3798 48.5626 13.3897 48.6276C13.3996 48.6926 13.3963 48.759 13.38 48.8227C13.3609 48.9357 13.302 49.0382 13.214 49.1115C13.126 49.1849 13.0146 49.2243 12.9 49.2227Z" fill="#D1D3D4"/>
<path d="M16 42.6227C15.8917 42.6235 15.7862 42.5883 15.7 42.5227L4.5 33.8527C4.44711 33.8134 4.40268 33.7639 4.36938 33.707C4.33608 33.6502 4.31459 33.5872 4.30619 33.5219C4.29778 33.4565 4.30265 33.3901 4.32048 33.3267C4.33832 33.2633 4.36877 33.2041 4.41 33.1527C4.49257 33.0504 4.61148 32.9839 4.74192 32.9671C4.87235 32.9503 5.00422 32.9846 5.11 33.0627L16.31 41.7327C16.3906 41.7974 16.4492 41.8854 16.4777 41.9847C16.5062 42.084 16.5033 42.1896 16.4693 42.2872C16.4353 42.3848 16.372 42.4694 16.2879 42.5295C16.2039 42.5896 16.1033 42.6221 16 42.6227Z" fill="#D1D3D4"/>
<path d="M22.79 35.5427C22.6887 35.5421 22.59 35.5113 22.5063 35.4543C22.4226 35.3973 22.3577 35.3167 22.32 35.2227L19.38 27.2227C19.3372 27.0966 19.3445 26.9588 19.4003 26.8379C19.4562 26.7169 19.5563 26.622 19.68 26.5727C19.8047 26.5277 19.9421 26.534 20.0621 26.5902C20.1821 26.6465 20.2749 26.7481 20.32 26.8727L23.26 34.8727C23.2837 34.9343 23.2947 35.0001 23.2924 35.0661C23.29 35.132 23.2744 35.1969 23.2464 35.2566C23.2183 35.3164 23.1785 35.3699 23.1293 35.4139C23.0801 35.4579 23.0225 35.4915 22.96 35.5127C22.9057 35.5331 22.848 35.5433 22.79 35.5427Z" fill="#D1D3D4"/>
</svg>
