<svg width="145" height="160" viewBox="0 0 145 160" fill="none" xmlns="http://www.w3.org/2000/svg">
<path d="M136.434 55.4574H129.424V153.932H136.434V55.4574Z" fill="#EAEAEA"/>
<path d="M136.434 154.302H129.424C129.326 154.302 129.233 154.263 129.163 154.194C129.094 154.124 129.055 154.03 129.055 153.932V55.4574C129.055 55.3594 129.094 55.2654 129.163 55.196C129.233 55.1267 129.326 55.0878 129.424 55.0878H136.434C136.531 55.0897 136.624 55.1292 136.693 55.1981C136.761 55.267 136.801 55.3599 136.803 55.4574V153.955C136.797 154.049 136.756 154.137 136.687 154.202C136.619 154.266 136.528 154.302 136.434 154.302ZM129.793 153.563H136.065V55.8269H129.793V153.563Z" fill="#BEBEBF"/>
<path d="M15.5537 55.4574H8.54419V153.932H15.5537V55.4574Z" fill="#EAEAEA"/>
<path d="M15.5464 154.302H8.53689C8.43904 154.302 8.34521 154.263 8.27602 154.194C8.20684 154.124 8.16797 154.03 8.16797 153.932V55.4574C8.16986 55.3599 8.20933 55.267 8.27811 55.1981C8.34689 55.1292 8.43964 55.0897 8.53689 55.0878H15.5464C15.6442 55.0878 15.738 55.1267 15.8072 55.196C15.8764 55.2654 15.9153 55.3594 15.9153 55.4574V153.955C15.9096 154.049 15.8683 154.137 15.7997 154.202C15.7311 154.266 15.6405 154.302 15.5464 154.302ZM8.90581 153.563H15.1774V55.8269H8.90581V153.563Z" fill="#BEBEBF"/>
<path d="M144.602 77.3432H0.368896V94.1881H144.602V77.3432Z" fill="#EAEAEA"/>
<path d="M144.602 94.5577H0.368919C0.271076 94.5577 0.177239 94.5187 0.108054 94.4494C0.0388679 94.3801 0 94.2861 0 94.1881V77.3432C0 77.2452 0.0388679 77.1512 0.108054 77.0819C0.177239 77.0126 0.271076 76.9736 0.368919 76.9736H144.602C144.699 76.9736 144.793 77.0126 144.862 77.0819C144.932 77.1512 144.97 77.2452 144.97 77.3432V94.1881C144.97 94.2861 144.932 94.3801 144.862 94.4494C144.793 94.5187 144.699 94.5577 144.602 94.5577ZM0.723078 93.8185H144.233V77.7128H0.737838L0.723078 93.8185Z" fill="#BEBEBF"/>
<path d="M144.602 54.3413H0.368896V71.1862H144.602V54.3413Z" fill="#EAEAEA"/>
<path d="M144.602 71.5558H0.368919C0.271076 71.5558 0.177239 71.5168 0.108054 71.4475C0.0388679 71.3782 0 71.2842 0 71.1862V54.3413C0 54.2433 0.0388679 54.1493 0.108054 54.08C0.177239 54.0107 0.271076 53.9717 0.368919 53.9717H144.602C144.699 53.9717 144.793 54.0107 144.862 54.08C144.932 54.1493 144.97 54.2433 144.97 54.3413V71.1714C144.972 71.2212 144.964 71.2708 144.947 71.3174C144.929 71.364 144.902 71.4065 144.868 71.4424C144.833 71.4783 144.792 71.5068 144.746 71.5263C144.7 71.5458 144.651 71.5558 144.602 71.5558ZM0.723078 70.8166H144.233V54.7109H0.737838L0.723078 70.8166Z" fill="#BEBEBF"/>
<path d="M144.602 104.728H0.368896V111.233H144.602V104.728Z" fill="#EAEAEA"/>
<path d="M144.602 111.602H0.368919C0.271076 111.602 0.177239 111.563 0.108054 111.494C0.0388679 111.425 0 111.331 0 111.233V104.728C0 104.63 0.0388679 104.536 0.108054 104.467C0.177239 104.398 0.271076 104.359 0.368919 104.359H144.602C144.699 104.359 144.793 104.398 144.862 104.467C144.932 104.536 144.97 104.63 144.97 104.728V111.233C144.97 111.331 144.932 111.425 144.862 111.494C144.793 111.563 144.699 111.602 144.602 111.602ZM0.723078 110.863H144.233V105.098H0.737838L0.723078 110.863Z" fill="#BEBEBF"/>
<path d="M35.4015 64.0757L27.7944 95.659C27.5999 96.9622 27.0337 98.1815 26.1637 99.1699C25.2393 100.06 24.1382 100.745 22.932 101.18C21.3014 101.846 19.7372 101.919 18.2246 102.91C18.0556 102.996 17.9082 103.119 17.7932 103.27C17.6782 103.421 17.5987 103.596 17.5605 103.782C17.5628 103.949 17.6107 104.113 17.6991 104.255C17.7876 104.397 17.9132 104.512 18.0623 104.588C18.3654 104.732 18.6938 104.815 19.0288 104.832C23.5444 105.356 28.001 105.46 32.3542 104.041C35.003 103.183 35.7188 101.757 36.3828 99.0368L45.5025 65.4727" fill="#FFD6D6"/>
<path d="M24.4814 105.578C22.6458 105.565 20.8126 105.442 18.9919 105.209C18.6047 105.19 18.2255 105.092 17.8777 104.92C17.6629 104.812 17.4831 104.644 17.359 104.438C17.235 104.231 17.1718 103.994 17.1768 103.753C17.2194 103.51 17.3165 103.28 17.461 103.08C17.6054 102.88 17.7934 102.716 18.0105 102.599C18.9349 102.019 19.9539 101.607 21.0209 101.38C21.6201 101.234 22.2092 101.048 22.7844 100.826C23.9412 100.407 24.9988 99.7524 25.8907 98.9038C26.7131 97.9617 27.2461 96.8015 27.4254 95.5629L35.0325 63.987C35.056 63.889 35.1173 63.8043 35.2031 63.7517C35.2889 63.699 35.3921 63.6826 35.4899 63.7061C35.5878 63.7297 35.6723 63.7912 35.7249 63.8771C35.7774 63.963 35.7938 64.0664 35.7703 64.1644L28.1632 95.7477C27.9559 97.1207 27.3563 98.4043 26.4367 99.4434C25.4717 100.368 24.3262 101.083 23.0721 101.543C22.4653 101.777 21.8443 101.972 21.2128 102.126C20.2304 102.331 19.2914 102.706 18.4385 103.235C18.2319 103.376 17.9515 103.59 17.9368 103.812C17.945 103.907 17.978 103.999 18.0323 104.078C18.0866 104.157 18.1605 104.221 18.2466 104.263C18.5074 104.38 18.7876 104.448 19.073 104.462C22.9983 104.92 27.6246 105.201 32.2361 103.686C34.6857 102.888 35.3571 101.639 36.0064 98.9555L45.1335 65.3766C45.1666 65.2866 45.2322 65.2122 45.3174 65.1682C45.4025 65.1241 45.501 65.1136 45.5934 65.1386C45.6859 65.1636 45.7657 65.2224 45.8172 65.3034C45.8686 65.3843 45.8879 65.4816 45.8713 65.5762L36.7443 99.1403C36.0507 101.993 35.2686 103.516 32.4722 104.41C29.8862 105.217 27.1896 105.611 24.4814 105.578Z" fill="#231F20"/>
<path d="M101.357 138.499C101.357 138.499 101.763 152.329 102.692 152.395C103.622 152.462 122.548 159.513 124.237 157.414C125.713 155.596 124.791 151.346 121.382 150.155C116.645 148.492 113.133 143.947 113.133 143.947L112.698 134.929" fill="#3F403F"/>
<path d="M122.739 158.182C119.825 158.182 113.885 156.431 105.636 153.748C104.212 153.275 102.862 152.831 102.685 152.809C102.309 152.809 101.416 152.713 101.01 138.536C101.008 138.486 101.016 138.436 101.034 138.389C101.051 138.342 101.078 138.299 101.112 138.263C101.147 138.226 101.188 138.197 101.234 138.177C101.28 138.156 101.329 138.145 101.379 138.145C101.479 138.144 101.575 138.183 101.648 138.251C101.721 138.32 101.764 138.414 101.77 138.514C101.947 144.575 102.405 151.198 102.877 152.07C103.216 152.136 104.013 152.402 105.902 153.023C110.085 154.406 122.835 158.619 123.972 157.207C124.287 156.721 124.486 156.169 124.553 155.593C124.621 155.018 124.556 154.434 124.363 153.888C124.159 153.122 123.773 152.417 123.237 151.833C122.701 151.25 122.031 150.806 121.286 150.54C116.497 148.862 113.007 144.398 112.867 144.205C112.815 144.146 112.786 144.07 112.786 143.991L112.343 134.981C112.339 134.88 112.375 134.782 112.442 134.707C112.51 134.633 112.604 134.588 112.705 134.582C112.756 134.574 112.808 134.578 112.857 134.593C112.906 134.608 112.952 134.633 112.99 134.668C113.028 134.703 113.058 134.746 113.078 134.793C113.097 134.841 113.106 134.893 113.103 134.944L113.539 143.814C114.062 144.457 117.331 148.322 121.544 149.801C122.404 150.108 123.176 150.62 123.796 151.292C124.415 151.964 124.863 152.776 125.1 153.659C125.326 154.323 125.395 155.03 125.302 155.726C125.208 156.421 124.955 157.085 124.562 157.665C124.313 157.877 124.021 158.032 123.707 158.122C123.392 158.211 123.062 158.232 122.739 158.182Z" fill="#0D0F13"/>
<path d="M55.7216 138.499C55.7216 138.499 48.0923 139.512 45.0598 141.035C45.0598 141.035 45.9231 148.189 37.2609 152.528C37.2609 152.528 34.4497 155.137 35.7852 157.739C37.1207 160.341 49.2286 157.192 52.999 155.137C55.2378 153.929 57.3132 152.438 59.1747 150.702L55.7216 138.499Z" fill="#3F403F"/>
<path d="M38.7881 159.129C38.0733 159.147 37.3597 159.06 36.6705 158.87C36.4075 158.808 36.1599 158.692 35.9429 158.531C35.726 158.37 35.5442 158.165 35.4088 157.931C33.9921 155.1 36.8844 152.388 37.0025 152.269L37.091 152.21C45.3991 148.049 44.6908 141.168 44.6834 141.123C44.6721 141.044 44.6861 140.964 44.7232 140.894C44.7603 140.823 44.8187 140.767 44.89 140.731C47.9446 139.201 55.3525 138.204 55.6698 138.167C55.7603 138.153 55.8527 138.173 55.929 138.224C56.0054 138.274 56.0603 138.351 56.083 138.44L59.5066 150.629C59.5256 150.694 59.5261 150.763 59.5078 150.828C59.4895 150.893 59.4533 150.952 59.4033 150.998C57.5238 152.771 55.4202 154.289 53.1464 155.514C50.3943 156.97 43.1266 159.129 38.7881 159.129ZM37.4821 152.868C37.1722 153.171 35.0103 155.426 36.0876 157.591C36.1803 157.731 36.2997 157.852 36.439 157.946C36.5783 158.039 36.7347 158.105 36.8992 158.138C40.1678 159.173 49.6786 156.512 52.7849 154.819C54.9149 153.653 56.8967 152.233 58.6876 150.592L55.4189 138.943C53.9433 139.15 48.1365 140.044 45.436 141.286C45.4721 142.659 45.2364 144.025 44.7424 145.307C43.9529 147.472 42.0346 150.547 37.4821 152.846V152.868Z" fill="#0D0F13"/>
<path d="M52.7408 84.7937C52.7408 84.7937 34.2285 92.6064 30.9598 103.272C27.8535 113.406 43.3113 143.925 43.3113 143.925L56.6661 141.707C56.6661 141.707 49.6124 111.173 50.21 109.606C50.8077 108.04 64.5831 104.07 72.6477 104.691C80.7123 105.312 95.5871 107.973 95.5871 107.973L100.295 142.291L115.73 140.074C115.73 140.074 113.804 100.737 108.278 92.6655C102.752 84.5941 89.832 83.6998 89.832 83.6998L52.7408 84.7937Z" fill="#1E212A"/>
<path d="M43.3112 144.346C43.2422 144.345 43.1748 144.326 43.1162 144.289C43.0577 144.253 43.0103 144.201 42.9792 144.139C42.352 142.89 27.4846 113.354 30.6056 103.198C31.9854 98.6895 36.1173 94.1659 42.8759 89.7533C45.9724 87.7383 49.2243 85.9735 52.6006 84.4759C52.6443 84.4655 52.6897 84.4655 52.7334 84.4759L89.8024 83.3893C90.3779 83.3893 103.047 84.3724 108.58 92.5103C114.114 100.648 116.018 138.433 116.099 140.029C116.102 140.12 116.071 140.209 116.012 140.279C115.954 140.348 115.872 140.394 115.782 140.406L100.346 142.661C100.298 142.669 100.25 142.668 100.202 142.656C100.155 142.645 100.111 142.624 100.072 142.595C100.034 142.566 100.001 142.529 99.9774 142.487C99.9534 142.445 99.9382 142.398 99.9329 142.35L95.2624 108.298C93.2333 107.936 79.9891 105.63 72.6255 105.061C64.5093 104.44 51.0511 108.49 50.5494 109.754C50.1805 111.04 54.2386 129.556 57.0276 141.685C57.0475 141.784 57.029 141.887 56.976 141.973C56.9467 142.015 56.9095 142.05 56.8663 142.077C56.8232 142.103 56.7752 142.121 56.7251 142.128L43.3702 144.346H43.3112ZM52.8219 85.215C51.6488 85.725 34.376 93.3455 31.3066 103.442C28.429 112.851 42.079 140.709 43.5178 143.599L56.2529 141.463C54.8879 135.55 49.2803 111.026 49.8927 109.481C50.6306 107.589 64.9151 103.73 72.7067 104.307C80.6975 104.92 95.5354 107.566 95.683 107.596C95.7596 107.609 95.8302 107.646 95.8845 107.702C95.9388 107.758 95.9742 107.829 95.9855 107.906L100.641 141.855L115.398 139.704C115.184 135.868 113.125 100.36 108.02 92.8503C102.692 85.0154 89.9721 84.0546 89.8467 84.0472L52.8219 85.215Z" fill="#231F20"/>
<path d="M83.302 34.2885C83.302 34.2885 48.4022 33.4607 42.042 39.9873C35.6819 46.5138 32.8928 68.4218 32.8928 68.4218L47.2733 72.5905L50.2247 61.74L52.7038 84.7937L89.8171 83.7367L87.8028 60.6905L101.357 56.3887C101.357 56.3887 94.6204 37.3559 83.302 34.2885Z" fill="#F23B3B"/>
<path d="M78.7864 21.5532C78.7864 21.5532 82.7339 13.6518 81.2361 11.5896C79.7383 9.52746 78.72 10.274 78.7127 10.2814C80.3064 9.12832 78.4101 6.75569 77.3846 5.95004C76.5774 5.35914 75.6805 4.90241 74.7283 4.59742C72.3999 3.66714 69.9227 3.16632 67.4164 3.11915C64.899 3.08556 62.4434 3.90033 60.4438 5.43264C57.3817 7.91614 56.4004 11.0575 56.7546 14.8936C56.9907 17.6358 57.8245 20.3706 57.9868 23.061C61.1226 23.3789 64.2879 23.8002 67.468 23.8445C69.9619 23.9184 77.3181 24.4802 78.7864 21.5532Z" fill="#392C27"/>
<path d="M70.8031 24.325C69.8587 24.325 68.9733 24.325 68.2355 24.2658H67.4312C64.8414 24.1993 62.2664 23.9332 59.7282 23.6671L57.9205 23.4824C57.8295 23.4722 57.745 23.4304 57.6816 23.3642C57.6182 23.298 57.58 23.2117 57.5737 23.1202C57.4572 21.704 57.2501 20.2968 56.9539 18.9071C56.6847 17.6027 56.4828 16.2853 56.3489 14.9601C55.9874 10.7175 57.2122 7.56875 60.2004 5.17395C62.2678 3.58425 64.8105 2.74042 67.4165 2.77915C69.964 2.8219 72.4831 3.32261 74.8539 4.25743C75.8522 4.57278 76.7956 5.04155 77.6503 5.647C78.4693 6.29005 79.7605 7.81267 79.7384 9.15051C79.7347 9.37682 79.6871 9.60025 79.5982 9.80834C80.4263 10.0669 81.1303 10.6221 81.5756 11.3679C83.1177 13.4892 79.8269 20.3632 79.1555 21.7158C78.0118 23.9554 74.0644 24.325 70.8031 24.325ZM58.3115 22.7284L59.7872 22.8837C62.2885 23.1497 64.8783 23.4158 67.4312 23.475H68.2428C70.9286 23.5711 77.2076 23.7928 78.4324 21.3536C79.9671 18.2493 81.9002 13.1492 80.9115 11.7892C79.9228 10.4292 79.1776 10.3996 78.912 10.5623C78.8284 10.6165 78.7269 10.6361 78.6291 10.6168C78.5314 10.5975 78.4449 10.5408 78.3881 10.4588C78.3598 10.4191 78.3396 10.3741 78.3288 10.3265C78.3179 10.279 78.3165 10.2297 78.3248 10.1816C78.333 10.1335 78.3507 10.0875 78.3767 10.0463C78.4028 10.005 78.4368 9.96939 78.4767 9.94138C78.6155 9.85104 78.7294 9.72723 78.8081 9.5813C78.8867 9.43537 78.9275 9.27199 78.9267 9.10616C78.9267 8.11571 77.8716 6.80005 77.1338 6.21614C76.3572 5.65118 75.4953 5.21449 74.5809 4.92265C72.2991 4.00544 69.8675 3.51927 67.4091 3.48872C64.9763 3.44811 62.6008 4.2292 60.6652 5.70613C57.891 7.9605 56.7547 10.8801 57.0941 14.8419C57.2272 16.1374 57.4267 17.4252 57.6918 18.7001C57.9691 20.031 58.176 21.3757 58.3115 22.7284Z" fill="#231F20"/>
<path d="M75.2446 22.6545C76.0415 19.2619 81.7966 18.8332 81.2211 22.8615C81.0768 24.2665 80.4418 25.5753 79.4282 26.5572C78.9138 27.0341 78.2695 27.3472 77.5771 27.4564C76.8847 27.5656 76.1756 27.4662 75.5398 27.1706" fill="#FFD6D6"/>
<path d="M76.9493 27.8876C76.3969 27.8931 75.8518 27.761 75.3629 27.5033C75.2744 27.4548 75.2084 27.3733 75.1794 27.2764C75.1504 27.1796 75.1607 27.0752 75.208 26.9859C75.2304 26.9405 75.2619 26.9002 75.3006 26.8675C75.3392 26.8348 75.3841 26.8104 75.4326 26.7959C75.481 26.7813 75.5319 26.7769 75.5821 26.7829C75.6323 26.7889 75.6808 26.8051 75.7245 26.8307C76.2914 27.0839 76.9201 27.1649 77.5325 27.0637C78.145 26.9626 78.7144 26.6836 79.1702 26.2615C80.1172 25.3417 80.7103 24.1169 80.8451 22.8024C81.0295 21.4941 80.4835 20.5849 79.3694 20.4002C78.575 20.2728 77.7615 20.4407 77.0821 20.8722C76.4026 21.3037 75.9041 21.9691 75.6802 22.7432C75.6567 22.8412 75.5953 22.9259 75.5095 22.9786C75.4237 23.0312 75.3206 23.0476 75.2227 23.0241C75.1249 23.0006 75.0404 22.9391 74.9878 22.8531C74.9352 22.7672 74.9189 22.6638 74.9424 22.5658C75.2069 21.5914 75.8265 20.7517 76.6789 20.2126C77.5313 19.6734 78.5545 19.474 79.5465 19.6536C80.7639 19.8828 81.9592 20.8584 81.6641 22.9132C81.504 24.4064 80.825 25.7957 79.7457 26.838C78.9738 27.52 77.9784 27.8936 76.9493 27.8876Z" fill="#231F20"/>
<path d="M61.0563 21.6493C60.7612 18.1754 55.1536 16.904 55.1536 20.9767C55.095 22.3878 55.5339 23.7745 56.3932 24.8941C56.8325 25.4386 57.4228 25.8408 58.0898 26.0499C58.7568 26.259 59.4706 26.2658 60.1414 26.0693" fill="#FFD6D6"/>
<path d="M59.1376 26.5793C58.5503 26.5665 57.9726 26.428 57.4432 26.173C56.9137 25.9181 56.4449 25.5526 56.0682 25.1011C55.145 23.9048 54.6722 22.421 54.7327 20.9102C54.7327 18.8332 56.0682 18.0423 57.3078 17.9536C58.3208 17.933 59.3049 18.2934 60.0657 18.9639C60.8265 19.6344 61.3088 20.5662 61.4175 21.5754C61.4379 21.6307 61.4453 21.6901 61.4391 21.7488C61.4329 21.8075 61.4133 21.8639 61.3819 21.9138C61.3504 21.9637 61.3079 22.0057 61.2576 22.0364C61.2073 22.0672 61.1506 22.0859 61.092 22.0912C61.0333 22.0965 60.9742 22.0882 60.9192 22.0669C60.8643 22.0457 60.815 22.012 60.7751 21.9685C60.7352 21.9251 60.7059 21.873 60.6893 21.8164C60.6728 21.7597 60.6695 21.7 60.6797 21.6419C60.5695 20.8375 60.1682 20.1018 59.5519 19.5744C58.9357 19.047 58.1476 18.7648 57.3373 18.7814C56.1715 18.8332 55.5001 19.6167 55.4927 20.9397C55.4341 22.2684 55.8413 23.5758 56.6437 24.6354C57.0335 25.1217 57.5578 25.4821 58.151 25.6714C58.7442 25.8607 59.38 25.8706 59.9787 25.6998C60.0766 25.6655 60.184 25.6715 60.2774 25.7165C60.3708 25.7616 60.4425 25.842 60.4768 25.94C60.511 26.038 60.505 26.1456 60.46 26.2392C60.4151 26.3328 60.3348 26.4046 60.237 26.4389C59.8811 26.5478 59.5094 26.5953 59.1376 26.5793Z" fill="#231F20"/>
<path d="M60.3035 38.812C60.8162 39.9247 61.6299 40.8711 62.6524 41.544C63.6749 42.2168 64.8651 42.5891 66.0881 42.6186C67.3381 42.7441 68.5993 42.5432 69.7488 42.0354C70.8983 41.5276 71.8969 40.7304 72.6475 39.7212V37.3042V31.6868V26.4389L62.3916 25.6998L61.7422 29.9424L61.5357 31.3172L60.3035 38.812Z" fill="#FFD6D6"/>
<path d="M66.7376 43.0251C66.5162 43.0251 66.2948 43.0251 66.0587 43.0251C61.3735 42.6851 60.0011 39.1299 59.9421 38.9746C59.9236 38.9119 59.9236 38.8452 59.9421 38.7825L61.949 25.6554C61.9619 25.5599 62.0115 25.4732 62.0873 25.4138C62.1632 25.3544 62.2591 25.3271 62.3548 25.3376L72.6107 26.0767C72.7067 26.0824 72.7968 26.1246 72.8626 26.1947C72.9285 26.2648 72.9651 26.3574 72.9649 26.4537L73.0461 39.7581C73.0457 39.8312 73.0253 39.9028 72.987 39.9651C72.2671 40.9403 71.3234 41.7275 70.2356 42.2601C69.1478 42.7927 67.948 43.0551 66.7376 43.0251ZM60.6799 38.7677C61.1773 39.7899 61.9469 40.6546 62.9039 41.2663C63.8609 41.878 64.968 42.213 66.103 42.2342C67.2677 42.3589 68.4448 42.1824 69.5221 41.7218C70.5993 41.2611 71.5408 40.5316 72.2566 39.6029L72.1902 26.8232L62.6352 26.0841L60.6799 38.7677Z" fill="#231F20"/>
<path d="M61.4546 31.3024C62.2203 32.6189 63.3036 33.7219 64.6052 34.5103C66.7228 35.8999 69.925 37.5186 72.6328 37.3042V31.6868C70.6568 31.7872 68.6757 31.6557 66.7301 31.295C64.9953 31.0994 63.3007 30.6382 61.7055 29.9276L61.4546 31.3024Z" fill="#231F20"/>
<path d="M72.1386 37.6959C69.2389 37.6959 66.0884 35.922 64.4061 34.8207C63.0507 34.0012 61.9238 32.852 61.1301 31.4798C61.0925 31.4097 61.0795 31.329 61.0932 31.2507L61.2924 29.8759C61.3026 29.8181 61.3258 29.7634 61.3603 29.716C61.3949 29.6686 61.4398 29.6297 61.4916 29.6024C61.5433 29.577 61.6001 29.5637 61.6576 29.5637C61.7152 29.5637 61.772 29.577 61.8237 29.6024C63.3869 30.2944 65.0465 30.743 66.745 30.9328C68.6686 31.291 70.6273 31.4224 72.5813 31.3246C72.6311 31.3195 72.6814 31.3254 72.7286 31.342C72.7758 31.3586 72.8187 31.3855 72.8543 31.4207C72.8917 31.4541 72.9215 31.4952 72.9419 31.541C72.9622 31.5869 72.9726 31.6366 72.9724 31.6868V37.3042C72.9727 37.3973 72.9379 37.4871 72.875 37.5556C72.8121 37.6241 72.7256 37.6663 72.633 37.6738C72.4854 37.6886 72.3157 37.6959 72.1386 37.6959ZM61.8089 31.2359C62.5434 32.4429 63.5553 33.4566 64.7603 34.1924C66.0736 35.0498 69.3349 36.9864 72.2124 36.942V32.0637C70.331 32.1287 68.4482 31.9874 66.5975 31.6424C64.9945 31.4479 63.4227 31.0505 61.9196 30.4598L61.8089 31.2359Z" fill="#231F20"/>
<path d="M66.6636 32.5737L67.5785 32.6402C68.611 32.7168 69.6484 32.5888 70.6315 32.2636C71.6146 31.9384 72.5241 31.4222 73.3079 30.7447C74.0918 30.0672 74.7348 29.2416 75.2 28.3151C75.6652 27.3886 75.9437 26.3793 76.0194 25.345L76.9121 12.8831L67.7039 14.4649L60.2813 11.6562L59.3664 24.1254C59.291 25.1603 59.42 26.1999 59.7461 27.1847C60.0721 28.1696 60.5888 29.0804 61.2665 29.8651C61.9443 30.6497 62.7698 31.2929 63.6959 31.7576C64.6219 32.2224 65.6304 32.4997 66.6636 32.5737Z" fill="#FFD6D6"/>
<path d="M68.1689 33.0468C67.9623 33.0468 67.7557 33.0468 67.5491 33.0468L66.6342 32.9802C64.4477 32.8176 62.4152 31.7921 60.9832 30.1289C59.5512 28.4657 58.837 26.3011 58.9976 24.1106L59.942 11.634C59.9463 11.5745 59.9643 11.5167 59.9947 11.4654C60.0252 11.4141 60.0671 11.3706 60.1172 11.3383C60.1673 11.306 60.2242 11.2859 60.2835 11.2795C60.3427 11.2731 60.4026 11.2806 60.4585 11.3014L67.7852 14.0731L76.8975 12.5062C76.9539 12.4973 77.0115 12.5011 77.0662 12.5174C77.1209 12.5337 77.1713 12.5619 77.2137 12.6002C77.2561 12.6384 77.2895 12.6856 77.3114 12.7384C77.3332 12.7912 77.3431 12.8482 77.3402 12.9053L76.3958 25.345C76.2449 27.4281 75.3128 29.3769 73.7868 30.8C72.2608 32.2231 70.2538 33.0152 68.1689 33.0172V33.0468ZM66.6932 32.1968L67.6081 32.2633C69.5884 32.412 71.5466 31.7667 73.052 30.4693C74.5574 29.1719 75.4868 27.3287 75.6358 25.345L76.5138 13.3636L67.7778 14.8418C67.7122 14.856 67.6443 14.856 67.5786 14.8418L60.6356 12.2179L59.7575 24.1771C59.6153 26.1643 60.2656 28.1268 61.5658 29.6344C62.866 31.1419 64.7099 32.0714 66.6932 32.2189V32.1968Z" fill="#231F20"/>
<path d="M68.2425 26.3798C67.5837 26.3795 66.9264 26.3152 66.2799 26.1876C66.231 26.1788 66.1843 26.1602 66.1428 26.1329C66.1012 26.1057 66.0656 26.0702 66.038 26.0288C66.0105 25.9874 65.9915 25.9408 65.9824 25.8919C65.9732 25.843 65.974 25.7927 65.9848 25.7441C65.9936 25.6949 66.0121 25.648 66.0393 25.606C66.0664 25.5641 66.1016 25.528 66.1428 25.4998C66.184 25.4716 66.2304 25.4518 66.2792 25.4418C66.3281 25.4317 66.3785 25.4315 66.4275 25.4411C67.1572 25.576 67.8994 25.6306 68.641 25.6037C68.8771 25.2785 68.4565 22.758 67.667 20.1341C67.6525 20.0855 67.6476 20.0346 67.6528 19.9842C67.6579 19.9338 67.6728 19.8849 67.6968 19.8403C67.7208 19.7957 67.7533 19.7562 67.7925 19.7242C67.8317 19.6922 67.8768 19.6682 67.9253 19.6536C67.9737 19.6391 68.0246 19.6342 68.0749 19.6393C68.1252 19.6445 68.174 19.6595 68.2186 19.6835C68.2631 19.7075 68.3025 19.7401 68.3344 19.7793C68.3664 19.8186 68.3903 19.8638 68.4049 19.9123C68.7664 21.1097 69.8806 25.0863 69.2165 26.0693C69.1586 26.1564 69.0809 26.2286 68.9899 26.28C68.8988 26.3313 68.797 26.3605 68.6926 26.365L68.2425 26.3798Z" fill="#231F20"/>
<path d="M71.9867 18.7459C72.0407 18.009 71.8407 17.3937 71.54 17.3716C71.2392 17.3495 70.9516 17.9289 70.8976 18.6658C70.8436 19.4027 71.0436 20.018 71.3443 20.0401C71.6451 20.0622 71.9327 19.4828 71.9867 18.7459Z" fill="#231F20"/>
<path d="M65.0148 17.8968C65.0688 17.1599 64.8688 16.5446 64.568 16.5225C64.2673 16.5003 63.9797 17.0798 63.9257 17.8166C63.8717 18.5535 64.0717 19.1688 64.3724 19.1909C64.6732 19.2131 64.9607 18.6336 65.0148 17.8968Z" fill="#231F20"/>
<path d="M70.1759 30.4376C70.1096 30.4378 70.0444 30.42 69.9872 30.3862C69.9301 30.3524 69.8831 30.3038 69.8513 30.2454C68.0362 27.1115 62.8935 28.028 62.8418 28.028C62.7469 28.0398 62.6511 28.015 62.5739 27.9586C62.4966 27.9022 62.4437 27.8184 62.4258 27.7243C62.408 27.6302 62.4265 27.5328 62.4778 27.452C62.529 27.3711 62.609 27.3128 62.7016 27.2889C62.9377 27.2445 68.4273 26.2911 70.508 29.8833C70.5588 29.9715 70.5726 30.0763 70.5463 30.1747C70.52 30.2731 70.4558 30.357 70.3678 30.4081C70.3078 30.4356 70.2414 30.4459 70.1759 30.4376Z" fill="#231F20"/>
<path d="M101.135 57.867C101.135 57.867 102.995 49.4778 96.0148 47.6078C89.0349 45.7377 67.977 46.7578 67.977 46.7578C67.977 46.7578 57.0791 41.9312 55.5149 43.5203C53.9507 45.1095 52.261 48.6943 52.5635 50.5495C52.866 52.4048 55.6624 53.9717 55.6624 53.0404C55.6624 52.1091 55.5075 50.5495 55.5075 50.5495C55.5075 50.5495 59.6984 53.8165 63.5721 52.5748C63.5721 52.5748 91.027 63.2996 96.1476 62.3609C101.268 61.4222 101.135 57.867 101.135 57.867Z" fill="#FFD6D6"/>
<path d="M95.4467 62.797C88.9758 62.797 65.7413 53.8165 63.5794 52.9813C60.5026 53.8904 57.3447 52.2421 55.9797 51.3256C56.024 51.8504 56.0682 52.5304 56.0682 53.0404C56.0722 53.1241 56.0594 53.2078 56.0305 53.2865C56.0017 53.3652 55.9575 53.4373 55.9004 53.4986C55.8434 53.5599 55.7746 53.6092 55.6983 53.6434C55.6219 53.6777 55.5395 53.6963 55.4558 53.6982C54.4671 53.7721 52.5045 52.22 52.2093 50.6086C51.8773 48.613 53.6038 44.9542 55.2566 43.2173C56.9094 41.4803 65.9774 45.4347 68.0138 46.329C69.7182 46.2477 89.3152 45.3829 96.1107 47.1938C103.098 49.0638 101.645 57.1943 101.512 57.8596C101.512 58.3474 101.261 61.7844 96.2362 62.7009C95.9767 62.7582 95.7123 62.7904 95.4467 62.797ZM63.6311 52.1904C63.6775 52.1827 63.7248 52.1827 63.7713 52.1904C64.0443 52.2939 91.1893 62.8635 96.1402 61.9618C100.848 61.1044 100.796 57.9778 100.789 57.8448C100.781 57.7117 100.789 57.7783 100.789 57.7487C101.059 56.329 101.077 54.8727 100.84 53.4469C100.324 50.4904 98.6784 48.6721 95.9484 47.9404C89.1013 46.1147 68.1983 47.0903 67.9917 47.0977C67.9335 47.1119 67.8728 47.1119 67.8146 47.0977C63.3876 45.139 56.747 42.8181 55.8321 43.7864C54.3564 45.3164 52.7037 48.783 52.9914 50.483C53.2217 51.3392 53.7675 52.0762 54.5188 52.5452C54.7602 52.7275 55.0365 52.8583 55.3304 52.9295C55.3304 52.013 55.1828 50.6012 55.1828 50.5865C55.175 50.5128 55.189 50.4384 55.2231 50.3727C55.2573 50.307 55.31 50.2528 55.3747 50.2169C55.4375 50.1768 55.5104 50.1554 55.5849 50.1554C55.6594 50.1554 55.7324 50.1768 55.7952 50.2169C55.7952 50.2169 59.8755 53.3434 63.513 52.183C63.5525 52.1775 63.5926 52.18 63.6311 52.1904Z" fill="#231F20"/>
<path d="M65.8447 48.1473V50.4312L71.3933 51.6582C71.3933 51.6582 75.2595 47.6817 76.2409 47.046L75.8424 44.9469L65.8447 48.1473Z" fill="#231F20"/>
<path d="M71.4227 52.0278H71.3415L65.793 50.8008C65.7103 50.7836 65.6363 50.7379 65.5838 50.6718C65.5312 50.6056 65.5034 50.5232 65.5052 50.4386V48.1547C65.5053 48.0769 65.5295 48.001 65.5744 47.9374C65.6194 47.8739 65.6828 47.8259 65.7561 47.7999L75.7612 44.6069C75.8086 44.585 75.8602 44.5736 75.9124 44.5736C75.9646 44.5736 76.0163 44.585 76.0637 44.6069C76.1511 44.665 76.212 44.7553 76.2334 44.8582L76.6318 46.9573C76.644 47.0291 76.6352 47.103 76.6064 47.1699C76.5776 47.2368 76.53 47.2939 76.4695 47.3343C74.7975 48.7699 73.2016 50.2921 71.6883 51.8947C71.6553 51.9338 71.6148 51.9657 71.5691 51.9886C71.5235 52.0115 71.4736 52.0248 71.4227 52.0278ZM66.2578 50.1356L71.3268 51.2591C71.9982 50.5717 74.7872 47.7334 75.8866 46.8834L75.6136 45.4051L66.2578 48.3617V50.1356Z" fill="#231F20"/>
<path d="M65.8447 48.1473C65.8447 48.1473 67.9476 44.7399 70.3455 43.7938L75.8424 44.9469C75.8424 44.9469 72.2787 47.2973 71.0981 49.3373L65.8447 48.1473Z" fill="#EAEAEA"/>
<path d="M71.1277 49.7365H71.0466L65.7858 48.5465C65.7268 48.534 65.6718 48.5073 65.6254 48.4687C65.5791 48.43 65.543 48.3806 65.5202 48.3247C65.4929 48.2709 65.4788 48.2114 65.4788 48.151C65.4788 48.0907 65.4929 48.0312 65.5202 47.9773C65.6087 47.8295 67.7337 44.4516 70.2128 43.4686C70.283 43.4501 70.3567 43.4501 70.4268 43.4686L75.9532 44.5625C76.027 44.5776 76.0946 44.6146 76.1473 44.6686C76.1999 44.7226 76.2351 44.7913 76.2483 44.8656C76.2624 44.9393 76.2537 45.0156 76.2233 45.0843C76.193 45.1529 76.1425 45.2107 76.0786 45.2499C76.0786 45.2499 72.5739 47.5708 71.4598 49.5073C71.4326 49.5737 71.3867 49.6307 71.3278 49.6714C71.2688 49.712 71.1993 49.7347 71.1277 49.7365ZM66.4941 47.9182L70.9212 48.9234C72.0387 47.4655 73.3812 46.1955 74.8981 45.1612L70.3825 44.2151C68.7002 44.9247 67.136 46.9795 66.4941 47.896V47.9182Z" fill="#231F20"/>
<path d="M67.3206 50.1578C66.8383 50.7803 66.4865 51.494 66.2862 52.2561C66.0858 53.0181 66.0412 53.8128 66.1548 54.5926L69.6153 55.4648C69.4908 53.8724 69.8372 52.2785 70.6114 50.8821L67.3206 50.1578Z" fill="#231F20"/>
<path d="M69.5928 55.8269H69.5337L66.0438 54.9104C65.969 54.8922 65.9018 54.8511 65.8515 54.7928C65.8013 54.7345 65.7704 54.6619 65.7634 54.5852C65.6428 53.7552 65.6932 52.9092 65.9115 52.0995C66.1297 51.2897 66.5112 50.5333 67.0325 49.8769C67.0737 49.8293 67.127 49.7939 67.1868 49.7743C67.2466 49.7548 67.3106 49.7519 67.3719 49.766L70.67 50.5052C70.7282 50.5174 70.7823 50.5442 70.8274 50.5829C70.8726 50.6217 70.9072 50.6712 70.9283 50.7269C70.9554 50.7794 70.9696 50.8377 70.9696 50.8969C70.9696 50.9561 70.9554 51.0144 70.9283 51.0669C70.1953 52.3915 69.8693 53.9035 69.9912 55.413C69.9951 55.472 69.9859 55.5311 69.9642 55.5861C69.9425 55.641 69.9089 55.6905 69.8658 55.7309C69.7908 55.7973 69.6928 55.8318 69.5928 55.8269ZM66.4791 54.2895L69.2017 54.9843C69.167 53.6515 69.4476 52.3294 70.0207 51.126L67.4383 50.5643C66.7049 51.6606 66.3666 52.9747 66.4791 54.2895Z" fill="#231F20"/>
<path d="M70.6628 46.9351C70.5736 46.936 70.4871 46.9045 70.4194 46.8464C70.3648 46.7974 70.3254 46.7338 70.3057 46.6631C70.2861 46.5923 70.2872 46.5175 70.3087 46.4473L70.7809 44.969C70.8139 44.8793 70.8803 44.8059 70.9662 44.7642C71.0521 44.7225 71.1508 44.7157 71.2415 44.7454C71.3323 44.7751 71.408 44.8388 71.4528 44.9232C71.4976 45.0077 71.508 45.1062 71.4818 45.1982L71.2826 45.819L72.7583 45.0799C72.8013 45.0586 72.8482 45.0461 72.8961 45.0431C72.944 45.0402 72.992 45.0468 73.0374 45.0626C73.0827 45.0785 73.1244 45.1032 73.1601 45.1353C73.1958 45.1675 73.2248 45.2064 73.2453 45.2499C73.2667 45.2936 73.2793 45.341 73.2823 45.3896C73.2854 45.4381 73.2788 45.4868 73.2631 45.5328C73.2473 45.5788 73.2226 45.6213 73.1904 45.6577C73.1583 45.6941 73.1192 45.7238 73.0756 45.7451L70.8621 46.8464C70.8052 46.894 70.7362 46.9247 70.6628 46.9351Z" fill="#BEBEBF"/>
<path d="M51.0216 68.954C50.9283 68.9528 50.8387 68.9177 50.7694 68.8551C50.7001 68.7925 50.656 68.7068 50.6453 68.614C50.4018 66.3966 48.262 47.3195 48.262 46.6025C48.2577 46.5516 48.2644 46.5003 48.2816 46.4522C48.2989 46.4041 48.3263 46.3603 48.3621 46.3238C48.3978 46.2873 48.441 46.2589 48.4887 46.2407C48.5364 46.2225 48.5874 46.2148 48.6383 46.2182C48.7395 46.2201 48.836 46.2612 48.9075 46.3328C48.9791 46.4045 49.0201 46.5012 49.022 46.6025C49.022 47.2012 50.7412 62.6344 51.3979 68.5327C51.4083 68.6324 51.3795 68.7323 51.3174 68.811C51.2554 68.8897 51.1651 68.941 51.0658 68.954H51.0216Z" fill="#231F20"/>
<path d="M120.637 0.369568C107.4 0.369568 96.6716 8.41876 96.6716 18.3601C96.6716 22.7506 98.7671 26.7715 102.25 29.8907L96.834 34.1629L105.408 32.2633C110.006 34.9982 115.267 36.4124 120.614 36.3507C133.851 36.3507 144.579 28.2941 144.579 18.3601C144.579 8.42615 133.873 0.369568 120.637 0.369568Z" fill="#EAEAEA"/>
<path d="M120.637 36.7203C115.273 36.7715 109.995 35.3667 105.363 32.655L96.9373 34.525C96.8557 34.5435 96.7703 34.5336 96.6951 34.497C96.6198 34.4604 96.5593 34.3993 96.5232 34.3237C96.4872 34.2481 96.4779 34.1625 96.4968 34.0809C96.5158 33.9993 96.5618 33.9266 96.6274 33.8746L101.682 29.8759C98.2064 26.6237 96.3027 22.5436 96.3027 18.3601C96.3027 8.23398 107.215 0 120.651 0C134.087 0 145 8.23398 145 18.3601C145 28.4863 134.051 36.7203 120.637 36.7203ZM105.43 31.8937C105.497 31.8923 105.564 31.9102 105.622 31.9455C110.166 34.6371 115.358 36.0327 120.637 35.9811C133.645 35.9811 144.247 28.0724 144.247 18.3601C144.247 8.64789 133.66 0.739136 120.637 0.739136C107.614 0.739136 97.0258 8.6405 97.0258 18.3601C97.0258 22.4623 98.9663 26.4906 102.478 29.6172C102.518 29.6537 102.55 29.6982 102.572 29.7479C102.594 29.7976 102.604 29.8512 102.604 29.9054C102.604 29.96 102.592 30.0139 102.567 30.0626C102.543 30.1114 102.507 30.1538 102.464 30.1863L98.3465 33.4755L105.349 31.9233L105.43 31.8937Z" fill="#BEBEBF"/>
<path d="M119.131 22.6693C119.069 22.6703 119.008 22.655 118.954 22.625C118.897 22.5924 118.848 22.5453 118.815 22.4882C118.781 22.431 118.763 22.3661 118.762 22.2997V7.79788C118.762 7.69987 118.801 7.60587 118.871 7.53656C118.94 7.46725 119.034 7.42831 119.131 7.42831C119.229 7.43021 119.321 7.46975 119.39 7.53865C119.459 7.60755 119.498 7.70046 119.5 7.79788V21.6493L131.217 14.014C131.299 13.9601 131.4 13.9411 131.496 13.9612C131.592 13.9813 131.676 14.0389 131.73 14.1212C131.784 14.2035 131.803 14.3039 131.783 14.4002C131.763 14.4966 131.705 14.581 131.623 14.6349L119.331 22.6102C119.271 22.6475 119.202 22.6679 119.131 22.6693Z" fill="#BEBEBF"/>
</svg>
