<svg width="180" height="167" viewBox="0 0 180 167" fill="none" xmlns="http://www.w3.org/2000/svg">
<path d="M67.1995 166.689C104.313 166.689 134.399 164.233 134.399 161.203C134.399 158.173 104.313 155.717 67.1995 155.717C30.0863 155.717 0 158.173 0 161.203C0 164.233 30.0863 166.689 67.1995 166.689Z" fill="#121419"/>
<path d="M47.6547 36.961C46.6241 37.0303 45.5959 36.7959 44.6971 36.2869C43.7984 35.7779 43.0686 35.0166 42.598 34.0971C42.1274 33.1776 41.9368 32.1404 42.0495 31.1137C42.1623 30.087 42.5736 29.1159 43.2326 28.3205C40.3499 26.9924 38.8255 23.5815 39.0368 20.4196C39.2481 17.2577 40.9159 14.3825 42.9986 11.9526C44.7116 9.96798 46.8623 8.17952 49.4356 7.68901C49.9227 7.64048 50.3976 7.5077 50.8392 7.2966C51.1867 7.05216 51.4882 6.74813 51.7297 6.39859C53.6087 3.99888 55.9254 1.79537 58.8232 0.829448C61.7209 -0.136474 65.2677 0.414402 67.2071 2.77638C68.1765 1.93478 69.3786 1.40736 70.6544 1.26393C71.9301 1.12049 73.2194 1.3678 74.3515 1.97312C75.4836 2.57844 76.4052 3.51325 76.9944 4.65384C77.5836 5.79443 77.8126 7.08704 77.6511 8.36063C79.6927 8.66204 81.6071 9.53586 83.1725 10.8808C84.7378 12.2258 85.8899 13.9868 86.4953 15.9597C87.5744 19.9291 85.7407 24.5926 82.0808 26.4717C81.6582 26.6905 81.1526 26.9773 81.1677 27.4451C81.2093 27.7275 81.3356 27.9906 81.5299 28.1998C82.7071 29.8826 82.1185 32.32 80.7753 33.8444C79.432 35.3687 77.4247 36.1762 75.4929 36.9459C75.9226 37.3768 76.209 37.9297 76.313 38.5293C76.417 39.1289 76.3335 39.746 76.0739 40.2964C75.5141 41.3983 74.6429 42.3115 73.5686 42.9225C69.3728 45.6317 64.181 44.7865 59.4797 44.8846C55.1406 44.9751 50.8317 42.2056 47.9565 39.0664C47.3981 38.4702 46.9529 37.3836 47.6547 36.961Z" fill="#3A2A27"/>
<path d="M64.6791 45.3147C63.9245 45.3147 63.1698 45.3147 62.4756 45.3147C61.4946 45.3147 60.4683 45.2694 59.5023 45.3147C55.5632 45.3826 51.2015 43.1716 47.6849 39.3758C47.4374 39.1276 47.2429 38.8317 47.1132 38.5062C46.9835 38.1806 46.9213 37.832 46.9303 37.4817C46.926 37.4542 46.926 37.4262 46.9303 37.3987C45.9143 37.3498 44.9305 37.0267 44.0835 36.4635C43.2365 35.9004 42.5579 35.1182 42.1198 34.2003C41.6817 33.2823 41.5005 32.2628 41.5955 31.2501C41.6904 30.2374 42.058 29.2693 42.6591 28.4488C40.0556 27.015 38.4332 23.7776 38.6595 20.3969C38.8482 17.5067 40.2141 14.5863 42.7119 11.7036C44.8852 9.19824 47.0585 7.76445 49.3677 7.31922L49.6243 7.27394C49.9873 7.25967 50.3409 7.15398 50.6522 6.96666C50.9635 6.77934 51.2225 6.51645 51.4052 6.20237C53.7747 3.18386 56.1518 1.32748 58.7024 0.474754C61.8492 -0.574177 65.2979 0.15781 67.2524 2.24813C68.281 1.45397 69.5177 0.974919 70.8129 0.868919C72.1081 0.76292 73.4062 1.03452 74.5503 1.65086C75.6943 2.2672 76.6353 3.20186 77.2593 4.34177C77.8832 5.48168 78.1635 6.77798 78.0662 8.07385C80.1051 8.44232 82.0038 9.36335 83.5553 10.7366C85.1068 12.1098 86.2517 13.8825 86.8651 15.8616C88.0122 20.08 85.9822 24.9171 82.2544 26.8112C81.877 26.9999 81.5375 27.2112 81.545 27.4376C81.5824 27.5942 81.6576 27.7392 81.7638 27.8602L81.8318 27.9583C83.175 29.8599 82.4128 32.5238 81.0168 34.0632C79.6359 35.4186 77.9707 36.4497 76.1419 37.0817C76.4723 37.5762 76.6719 38.1463 76.722 38.7389C76.7722 39.3314 76.6712 39.927 76.4286 40.47C75.8511 41.6334 74.9393 42.5977 73.8101 43.2395C71.0104 45.0506 67.841 45.3147 64.6791 45.3147ZM60.34 44.4997C61.0569 44.4997 61.7813 44.4997 62.4907 44.4997C66.2638 44.5752 70.1501 44.6582 73.3724 42.5754C74.3878 42.0097 75.2105 41.1529 75.7344 40.1153C75.9685 39.6346 76.0471 39.0929 75.9592 38.5654C75.8713 38.038 75.6213 37.5511 75.2439 37.1723C75.1945 37.1303 75.1567 37.0763 75.1342 37.0155C75.1118 36.9547 75.1053 36.8891 75.1156 36.8251C75.1261 36.7602 75.1532 36.699 75.1942 36.6475C75.2351 36.5959 75.2886 36.5558 75.3495 36.5308C77.1153 35.8215 79.1226 35.0216 80.4583 33.5123C81.6582 32.1917 82.3298 29.9278 81.213 28.3431L81.145 28.2601C80.9393 28.0229 80.8127 27.7275 80.7828 27.4149C80.7828 26.6603 81.4997 26.2981 81.8997 26.0943C85.3257 24.3285 87.1821 19.9064 86.1256 16.0125C85.5286 14.1201 84.4107 12.434 82.8999 11.1475C81.3891 9.86092 79.5466 9.02585 77.5832 8.73792C77.4856 8.72298 77.3977 8.67035 77.3385 8.59134C77.2792 8.51233 77.2533 8.41323 77.2663 8.31533C77.4145 7.11987 77.1981 5.90752 76.6453 4.83723C76.0925 3.76694 75.2292 2.88867 74.1686 2.31756C73.1079 1.74645 71.8995 1.50918 70.7017 1.63683C69.5038 1.76449 68.3726 2.25113 67.4561 3.03294C67.4182 3.06629 67.3739 3.09153 67.3259 3.10711C67.2779 3.12268 67.2272 3.12826 67.1769 3.12349C67.1271 3.11977 67.0786 3.10578 67.0344 3.08241C66.9903 3.05903 66.9514 3.02677 66.9203 2.98766C65.2224 0.919982 61.9398 0.165356 58.9515 1.16901C56.5442 1.96891 54.2803 3.74984 52.0315 6.60987C51.7651 6.99698 51.4301 7.33203 51.043 7.59843C50.6446 7.81052 50.209 7.94376 49.7601 7.99084L49.5186 8.03612C47.383 8.45116 45.3455 9.80194 43.2854 12.1715C40.9008 14.9259 39.6028 17.7029 39.4217 20.4195C39.2029 23.6795 40.8329 26.7735 43.3986 27.9658C43.4508 27.9901 43.4968 28.0257 43.5334 28.0701C43.5699 28.1145 43.5961 28.1665 43.6099 28.2224C43.622 28.2792 43.6208 28.3381 43.6064 28.3943C43.592 28.4506 43.5648 28.5028 43.5269 28.5469C42.9046 29.2822 42.5138 30.1853 42.4036 31.1423C42.2934 32.0993 42.4688 33.0675 42.9076 33.9251C43.3465 34.7826 44.0292 35.4912 44.8699 35.9616C45.7106 36.432 46.6716 36.6432 47.6321 36.5686C47.718 36.5598 47.8043 36.5814 47.876 36.6297C47.9477 36.6779 48.0002 36.7497 48.0245 36.8327C48.0501 36.9137 48.0477 37.0009 48.0175 37.0804C47.9874 37.1598 47.9314 37.2268 47.8584 37.2704C47.8118 37.2962 47.7723 37.3331 47.7433 37.3779C47.7144 37.4226 47.6969 37.4738 47.6924 37.5269C47.7053 38.0086 47.9057 38.4662 48.2509 38.8023C51.5863 42.4396 55.7971 44.5676 59.4873 44.4921L60.34 44.4997Z" fill="#231F20"/>
<path d="M101.55 147.476C103.278 147.476 116.16 148.872 122.189 151.868C128.219 154.864 129.524 155.098 128.302 159.143C127.079 163.187 116.462 164.184 108.379 162.659C103.174 161.589 98.153 159.764 93.4756 157.241L101.55 147.476Z" fill="#1E212A"/>
<path d="M116.001 163.738C113.423 163.728 110.851 163.476 108.319 162.984C103.078 161.905 98.022 160.07 93.3097 157.535C93.2659 157.509 93.2279 157.474 93.1981 157.432C93.1683 157.391 93.1472 157.344 93.1361 157.294C93.1274 157.245 93.1296 157.194 93.1426 157.146C93.1557 157.098 93.1792 157.053 93.2116 157.015L101.286 147.25C101.316 147.21 101.354 147.177 101.399 147.155C101.444 147.133 101.493 147.121 101.543 147.121H101.618C103.724 147.121 116.303 148.555 122.34 151.551L123.698 152.223C128.536 154.592 129.841 155.241 128.634 159.241C127.872 161.776 122.906 163.738 116.001 163.738ZM94.0115 157.135C98.5555 159.534 103.415 161.28 108.447 162.32C116.56 163.829 126.853 162.757 127.977 159.045C129.011 155.603 128.264 155.234 123.397 152.849L122.038 152.177C116.281 149.317 103.965 147.861 101.709 147.816L94.0115 157.135Z" fill="#231F20"/>
<path d="M103.278 147.438C104.418 147.717 105.409 148.417 106.055 149.397C106.7 150.376 106.951 151.564 106.757 152.721C106.191 157.015 97.1129 157.196 96.5922 157.249C96.0715 157.301 103.278 147.438 103.278 147.438Z" fill="#FFB9B9"/>
<path d="M96.5922 157.49C96.5248 157.488 96.459 157.469 96.401 157.435C96.3429 157.4 96.2945 157.352 96.2602 157.294C96.147 157.067 95.9658 156.72 102.999 147.204C103.039 147.149 103.096 147.107 103.16 147.084C103.225 147.061 103.295 147.058 103.361 147.076C103.399 147.076 107.7 148.155 107.134 152.706C106.561 157.075 98.2901 157.46 96.6375 157.49H96.5922ZM103.384 147.808C101.173 150.827 97.8826 155.354 97.0601 156.788C99.1277 156.69 105.927 156.109 106.387 152.615C106.565 151.593 106.359 150.541 105.811 149.66C105.263 148.779 104.41 148.131 103.414 147.838L103.384 147.808Z" fill="#FFB9B9"/>
<path d="M35.9957 157.271C35.7316 157.407 33.2639 160.614 22.5029 161.897C11.742 163.18 7.74999 165.497 5.35027 159.844C2.95056 154.192 4.59565 150.54 9.87803 148.925C15.1604 147.31 29.7926 145.974 32.6602 148.676C35.5278 151.378 35.9957 157.271 35.9957 157.271Z" fill="#1E212A"/>
<path d="M10.6628 163.814C7.99901 163.814 6.28601 162.923 5.03333 159.98C3.78064 157.037 3.59199 154.509 4.50509 152.555C5.35027 150.744 7.13119 149.408 9.78748 148.6C14.7529 147.091 29.8379 145.537 32.9017 148.427C35.8372 151.189 36.3051 156.999 36.3277 157.241C36.3312 157.305 36.3177 157.369 36.2885 157.426C36.2593 157.483 36.2156 157.531 36.1617 157.565L36.056 157.656C32.9545 160.478 27.0005 161.708 22.5331 162.237C20.2164 162.516 18.2242 162.84 16.4961 163.127C14.5713 163.5 12.6215 163.729 10.6628 163.814ZM24.5933 147.469C19.4241 147.469 13.1607 148.291 10.0063 149.257C7.53114 150.012 5.88605 151.219 5.13142 152.849C4.30133 154.615 4.48244 156.924 5.66721 159.709C7.44058 163.897 10.0591 163.482 16.3678 162.448C18.1336 162.161 20.141 161.837 22.4652 161.557C26.827 161.037 32.6451 159.844 35.6108 157.143C35.5052 156.154 34.8562 151.272 32.4187 148.948C31.3321 147.876 28.2306 147.469 24.5933 147.469Z" fill="#231F20"/>
<path d="M39.4293 154.962C39.4293 154.962 34.5469 159.037 31.2944 158.554C28.042 158.071 23.5444 156.29 25.3555 152.781C27.1666 149.272 38.8256 147.159 38.8256 147.159L39.4293 154.962Z" fill="#FFB9B9"/>
<path d="M31.8529 158.939C31.6483 158.939 31.4439 158.924 31.2416 158.894C28.8042 158.531 25.8611 157.49 24.9178 155.641C24.685 155.167 24.5747 154.643 24.5971 154.116C24.6195 153.588 24.7739 153.075 25.0461 152.623C26.9176 148.985 38.2823 146.91 38.7652 146.82C38.8128 146.811 38.8615 146.813 38.9082 146.825C38.955 146.837 38.9988 146.858 39.0369 146.888C39.0751 146.918 39.1069 146.955 39.1302 146.998C39.1536 147.041 39.168 147.088 39.1727 147.137L39.7764 154.932C39.7806 154.987 39.7719 155.042 39.7509 155.093C39.73 155.144 39.6974 155.19 39.6557 155.226C39.4595 155.385 35.1657 158.939 31.8529 158.939ZM38.5162 147.574C36.5165 147.967 27.1968 149.951 25.6876 152.94C25.4649 153.295 25.3357 153.7 25.312 154.118C25.2882 154.536 25.3707 154.954 25.5517 155.332C26.3818 156.939 29.0985 157.875 31.3699 158.214C34.1394 158.63 38.2974 155.445 39.0973 154.811L38.5162 147.574Z" fill="#231F20"/>
<path d="M98.0788 120.732C98.0788 120.732 92.9323 140.805 74.1496 144.639C55.3669 148.472 45.6474 147.461 38.9915 134.783C32.3357 122.106 36.7277 114.348 36.7277 114.348L96.0036 113.171L98.0788 120.732Z" fill="#1B1E26"/>
<path d="M58.6572 146.986C49.6016 146.986 43.3156 143.831 38.652 134.957C31.9811 122.241 36.2296 114.484 36.3881 114.159C36.421 114.102 36.4683 114.055 36.5252 114.022C36.5822 113.989 36.6468 113.971 36.7126 113.971L95.9886 112.793C96.074 112.789 96.1584 112.815 96.2272 112.866C96.296 112.916 96.345 112.99 96.3659 113.073L98.4185 120.619C98.4336 120.683 98.4336 120.751 98.4185 120.815C98.3656 121.019 93.0002 141.19 74.1949 145.001C68.256 146.231 63.117 146.986 58.6572 146.986ZM36.9767 114.718C36.3881 115.963 33.4149 123.343 39.3236 134.61C46.0775 147.438 55.9254 147.982 74.0365 144.269C91.7174 140.662 97.2337 122.211 97.6487 120.732L95.6943 113.556L36.9767 114.718Z" fill="#231F20"/>
<path d="M32.3056 120.913C32.3056 120.913 22.5935 89.5207 23.8689 69.8476C25.1442 50.1744 32.4565 49.4726 42.4327 48.3633C46.8623 47.8653 70.4595 44.3713 79.2962 54.7701C88.1329 65.1689 103.686 113.872 103.686 113.872L32.3056 120.913Z" fill="#0EAF59"/>
<path d="M67.358 48.4162L65.8488 58.9206C65.8488 58.9206 62.5435 64.3463 55.9254 61.5995C49.3074 58.8527 49.1791 53.7891 49.1791 53.7891L52.3183 34.3801C52.3183 34.3801 59.2986 28.1167 62.2341 16.1483C62.2341 16.1483 68.0825 26.3509 76.572 28.6449C76.572 28.6449 76.0061 37.1194 74.4893 42.3716C72.98 47.4502 67.4637 48.3558 67.358 48.4162Z" fill="#FFB9B9"/>
<path d="M59.4722 62.7466C58.1887 62.7311 56.9212 62.4591 55.7443 61.9467C48.9527 59.1395 48.7716 54.0156 48.764 53.7967L51.9259 34.3198C51.9413 34.2335 51.9835 34.1542 52.0467 34.0934C52.1146 34.033 58.9741 27.7696 61.8568 16.0578C61.8775 15.9859 61.9184 15.9214 61.9745 15.8719C62.0307 15.8225 62.0998 15.7901 62.1738 15.7786C62.2475 15.7682 62.3227 15.7798 62.3898 15.8121C62.457 15.8443 62.5131 15.8957 62.5511 15.9597C62.6114 16.0654 68.4296 26.0566 76.6475 28.2752C76.7325 28.2979 76.8069 28.3495 76.8579 28.4211C76.9088 28.4927 76.9332 28.58 76.9267 28.6676C76.9267 28.7507 76.3381 37.2478 74.8289 42.4773C73.5837 46.7862 69.5465 48.2653 67.7052 48.7181L66.1959 58.9735C66.1889 59.0234 66.1736 59.0719 66.1507 59.1168C65.407 60.21 64.4129 61.1097 63.2513 61.7411C62.0897 62.3724 60.794 62.7172 59.4722 62.7466ZM52.6806 34.5613L49.5564 53.8496C49.5564 53.9703 49.7828 58.6339 56.0764 61.2524C61.9549 63.6899 65.1319 59.3508 65.4941 58.7848L67.0034 48.3634C67.0104 48.3062 67.0312 48.2516 67.0641 48.2042C67.097 48.1569 67.1409 48.1183 67.192 48.0917C67.2615 48.0514 67.3386 48.0257 67.4184 48.0163C69.0409 47.6314 72.9498 46.2957 74.112 42.266C75.4401 37.6703 76.0438 30.4863 76.157 28.9242C69.0635 26.8414 63.917 19.5291 62.3775 17.1068C59.5099 27.7319 53.4956 33.7312 52.6806 34.5613Z" fill="#231F20"/>
<path d="M56.3857 34.6744C56.301 33.6927 55.8983 32.7654 55.2387 32.0332C54.5974 31.3755 53.8467 30.8342 53.0201 30.4334C52.5914 30.1683 52.1096 30.0009 51.6089 29.9429C51.2547 29.9464 50.9042 30.0155 50.5751 30.1467C49.7716 30.403 49.0863 30.9383 48.6432 31.6559C48.3515 32.2647 48.2142 32.936 48.2433 33.6104C48.2135 34.3403 48.2794 35.071 48.4395 35.7837C48.6167 36.4954 48.9343 37.1646 49.3735 37.7519C49.8128 38.3392 50.3649 38.8329 50.9975 39.2041C51.6301 39.5752 52.3304 39.8162 53.0574 39.9131C53.7844 40.01 54.5235 39.9607 55.2312 39.7682" fill="#FFB9B9"/>
<path d="M53.7974 40.304C52.4842 40.3052 51.2082 39.8678 50.1719 39.0612C49.1357 38.2546 48.3985 37.125 48.0773 35.8517C47.9023 35.1105 47.8312 34.3486 47.866 33.5878C47.8394 32.8528 47.9922 32.1224 48.3112 31.4598C48.792 30.6709 49.5386 30.0795 50.4167 29.7921C50.7922 29.6461 51.191 29.5694 51.5939 29.5657C52.1529 29.6245 52.6918 29.8076 53.171 30.1015C54.0338 30.5226 54.8175 31.0893 55.4877 31.7767C56.2035 32.5718 56.6406 33.5785 56.7329 34.6443C56.7392 34.744 56.7066 34.8423 56.6418 34.9183C56.577 34.9943 56.4852 35.0422 56.3858 35.0518C56.2865 35.0563 56.1893 35.0229 56.1136 34.9585C56.038 34.8941 55.9896 34.8034 55.9783 34.7047C55.9042 33.8068 55.5415 32.957 54.9444 32.2823C54.331 31.6594 53.6134 31.1486 52.8239 30.7731C52.4475 30.5318 52.0222 30.3772 51.5788 30.3203C51.2731 30.3228 50.9707 30.3843 50.6883 30.5014C49.9756 30.7215 49.3618 31.1831 48.9527 31.8069C48.6964 32.3643 48.5774 32.975 48.6056 33.5878C48.5694 34.285 48.6329 34.9838 48.7942 35.6631C48.9602 36.3236 49.2559 36.9446 49.6641 37.4899C50.0722 38.0352 50.5847 38.4939 51.1717 38.8394C51.7587 39.1849 52.4086 39.4102 53.0834 39.5023C53.7583 39.5944 54.4448 39.5514 55.1029 39.3758C55.1989 39.3504 55.3011 39.3638 55.3873 39.4133C55.4735 39.4627 55.5367 39.5442 55.5632 39.6399C55.5757 39.688 55.5786 39.7381 55.5716 39.7872C55.5647 39.8364 55.5482 39.8837 55.5229 39.9265C55.4977 39.9693 55.4643 40.0066 55.4246 40.0364C55.3849 40.0663 55.3397 40.088 55.2915 40.1003C54.8048 40.2347 54.3023 40.3032 53.7974 40.304Z" fill="#231F20"/>
<path d="M65.8714 31.6785C65.8714 31.6785 68.8371 37.5269 67.8636 38.3645C66.8901 39.2022 64.5508 38.2815 64.5508 38.2815" fill="#FFB9B9"/>
<path d="M66.6488 39.0966C65.8735 39.0727 65.1079 38.917 64.3849 38.6363C64.3388 38.618 64.2967 38.5908 64.2611 38.5562C64.2256 38.5217 64.1971 38.4804 64.1775 38.4349C64.1579 38.3893 64.1474 38.3403 64.1468 38.2907C64.1461 38.2411 64.1552 38.1919 64.1736 38.1458C64.2121 38.0539 64.2847 37.9806 64.3762 37.9412C64.4677 37.9018 64.5709 37.8994 64.6641 37.9345C65.215 38.1458 66.928 38.6363 67.5845 38.0779C67.9845 37.7458 66.9883 34.7726 65.5093 31.8447C65.4861 31.8007 65.472 31.7526 65.4678 31.7031C65.4636 31.6536 65.4694 31.6038 65.4849 31.5566C65.5004 31.5094 65.5253 31.4658 65.558 31.4285C65.5907 31.3911 65.6306 31.3607 65.6753 31.3391C65.7647 31.2963 65.8672 31.2897 65.9614 31.3206C66.0556 31.3515 66.1342 31.4176 66.1809 31.5051C67.1091 33.3464 69.1617 37.7232 68.0826 38.6514C67.6692 38.9586 67.1634 39.1156 66.6488 39.0966Z" fill="#231F20"/>
<path d="M62.1874 30.3567C62.2443 29.6588 61.8863 29.0602 61.3879 29.0195C60.8894 28.9789 60.4392 29.5117 60.3823 30.2096C60.3254 30.9074 60.6834 31.5061 61.1819 31.5467C61.6803 31.5873 62.1305 31.0546 62.1874 30.3567Z" fill="#231F20"/>
<path d="M71.5364 31.6485C71.5884 30.9503 71.2263 30.3541 70.7275 30.317C70.2288 30.2798 69.7823 30.8157 69.7303 31.514C69.6783 32.2122 70.0404 32.8084 70.5392 32.8455C71.0379 32.8827 71.4844 32.3468 71.5364 31.6485Z" fill="#231F20"/>
<path d="M65.1017 43.7752C63.9478 43.7955 62.8061 43.5366 61.7738 43.0206C59.9702 42.0773 58.8156 40.2738 58.3402 37.6627C58.3315 37.6137 58.3327 37.5634 58.3436 37.5147C58.3545 37.4661 58.3749 37.4201 58.4037 37.3794C58.4324 37.3387 58.469 37.3041 58.5112 37.2776C58.5534 37.2511 58.6005 37.2333 58.6496 37.2251C58.7474 37.2094 58.8474 37.232 58.9289 37.2883C59.0105 37.3445 59.0672 37.4299 59.0873 37.5269C59.5099 39.8964 60.5362 41.5189 62.1058 42.349C65.2752 44.0092 69.7351 42.0018 69.7804 41.9792C69.8714 41.9384 69.975 41.9353 70.0683 41.9707C70.1617 42.006 70.2372 42.0769 70.2784 42.1679C70.2997 42.2128 70.3116 42.2616 70.3136 42.3113C70.3156 42.3609 70.3076 42.4105 70.29 42.457C70.2723 42.5035 70.2455 42.546 70.2111 42.5819C70.1767 42.6178 70.1355 42.6463 70.0898 42.6659C68.5137 43.3525 66.8202 43.7292 65.1017 43.7752Z" fill="#231F20"/>
<path d="M67.3579 48.4162C67.3579 48.4162 60.5663 48.9746 57.0648 46.2126C57.0648 46.2126 60.0456 55.6455 66.309 55.6153L67.3579 48.4162Z" fill="#231F20"/>
<path d="M66.2637 55.9926C59.8192 55.9926 56.8158 46.7183 56.6875 46.3259C56.6653 46.2485 56.668 46.1661 56.695 46.0903C56.7221 46.0145 56.7723 45.9491 56.8385 45.9033C56.9021 45.8537 56.9804 45.8268 57.0611 45.8268C57.1417 45.8268 57.2201 45.8537 57.2837 45.9033C60.6569 48.5369 67.2448 48.0313 67.3127 48.0238C67.3689 48.0198 67.4252 48.0285 67.4776 48.0492C67.53 48.0698 67.5771 48.102 67.6155 48.1432C67.6538 48.1845 67.6825 48.2338 67.6993 48.2875C67.7161 48.3413 67.7207 48.3982 67.7126 48.4539L66.6637 55.6606C66.6475 55.7545 66.5983 55.8396 66.525 55.9004C66.4517 55.9613 66.359 55.994 66.2637 55.9926ZM57.8119 47.1635C58.7703 49.5255 61.487 54.9965 65.9694 55.2305L66.8976 48.8237C65.4487 48.884 60.9814 48.9293 57.827 47.1635H57.8119Z" fill="#231F20"/>
<path d="M34.9543 50.1142C21.0163 48.3786 7.93108 107.549 15.5377 113.171C27.4005 121.947 63.6075 109.964 63.6075 109.964L59.9852 94.3505C59.9852 94.3505 33.8525 95.5956 33.3771 90.2302C32.9017 84.8648 47.9791 59.7131 45.8662 56.0456C43.7532 52.3781 34.9543 50.1142 34.9543 50.1142Z" fill="#0EAF59"/>
<path d="M83.6202 94.7881C83.537 94.7905 83.4559 94.7616 83.393 94.7071C83.3301 94.6526 83.29 94.5765 83.2806 94.4938C81.4846 81.8764 77.5454 60.7469 76.2701 59.5093C76.208 59.4444 76.1735 59.358 76.1738 59.2682C76.1741 59.1784 76.2092 59.0922 76.2718 59.0277C76.3343 58.9632 76.4193 58.9255 76.5091 58.9224C76.5988 58.9194 76.6863 58.9512 76.7531 59.0112C78.3906 60.6035 82.6014 84.8421 83.9597 94.3957C83.9727 94.4868 83.9489 94.5792 83.8938 94.6528C83.8386 94.7264 83.7565 94.775 83.6654 94.7881H83.6202Z" fill="#231F20"/>
<path d="M70.286 124.641L46.2285 117.902L90.4119 109.594L114.326 119.615L70.286 124.641Z" fill="white"/>
<path d="M70.286 125.041C70.2537 125.048 70.2202 125.048 70.1879 125.041L46.1304 118.249C46.0303 118.249 45.9343 118.21 45.8636 118.139C45.7928 118.068 45.7531 117.972 45.7531 117.872C45.7531 117.772 45.7928 117.676 45.8636 117.605C45.9343 117.535 46.0303 117.495 46.1304 117.495L90.3138 109.194C90.3824 109.171 90.4564 109.171 90.5251 109.194L114.439 119.215C114.516 119.248 114.579 119.305 114.62 119.377C114.661 119.449 114.677 119.533 114.666 119.615C114.654 119.699 114.616 119.776 114.555 119.835C114.495 119.893 114.417 119.93 114.334 119.94L70.3312 125.041H70.286ZM47.8886 118L70.3162 124.286L112.847 119.434L90.3666 110.016L47.8886 118Z" fill="#231F20"/>
<path d="M56.0915 99.746C61.3739 100.327 66.2714 100.704 71.184 102.764C73.9913 103.944 76.6424 105.464 79.0774 107.292C80.3182 108.173 81.4774 109.163 82.5412 110.25C83.3863 111.171 83.1147 112.069 81.696 111.624C80.0462 111.107 78.4841 110.344 77.0626 109.36C80.4616 112.133 83.4742 115.349 86.02 118.921C86.3067 119.329 86.586 119.91 86.2464 120.272C85.9068 120.634 85.1522 120.272 84.7371 119.895L77.2739 112.816C79.2496 114.521 80.9299 116.54 82.2468 118.793C82.4355 119.117 82.6166 119.547 82.4204 119.842C82.0884 120.393 81.2432 119.978 80.7904 119.517C78.5549 117.26 76.5222 114.811 74.7157 112.197L78.7454 118.234C78.7072 118.346 78.6474 118.448 78.5693 118.536C78.4913 118.625 78.3965 118.696 78.2905 118.747C78.1846 118.799 78.0695 118.828 77.952 118.835C77.8345 118.841 77.7168 118.824 77.6059 118.785C77.1621 118.602 76.778 118.299 76.4966 117.91L71.6142 112.303L74.4968 116.272C74.9496 116.891 75.4024 117.782 74.8817 118.363C74.361 118.944 73.1838 118.363 72.5197 117.774C69.8486 115.337 66.9153 113.203 63.7736 111.413C62.6341 110.741 61.6606 109.828 60.4004 109.443C58.5893 108.885 56.3254 108.96 54.4388 108.749" fill="#FFB9B9"/>
<path d="M85.8841 120.785C85.3799 120.728 84.9108 120.499 84.556 120.136L82.1412 117.872C82.2996 118.121 82.4581 118.378 82.6015 118.627C82.7543 118.823 82.851 119.058 82.8816 119.305C82.9121 119.552 82.8753 119.802 82.7751 120.03C82.7074 120.147 82.6135 120.245 82.5008 120.319C82.3881 120.392 82.2598 120.438 82.1261 120.453C81.8407 120.449 81.5591 120.386 81.2993 120.268C81.0395 120.15 80.8071 119.979 80.6168 119.766C80.1188 119.268 79.6358 118.763 79.1604 118.257C79.1638 118.284 79.1638 118.312 79.1604 118.34C79.1318 118.48 79.074 118.612 78.9907 118.727C78.9075 118.843 78.8007 118.94 78.6774 119.012C78.5145 119.109 78.3334 119.172 78.1452 119.197C77.957 119.221 77.7657 119.207 77.5832 119.155C77.0755 118.956 76.6356 118.615 76.3155 118.174L75.425 117.155C75.5361 117.401 75.5752 117.673 75.5378 117.94C75.5004 118.208 75.388 118.459 75.2137 118.664C75.105 118.786 74.9727 118.884 74.8248 118.953C74.6768 119.022 74.5165 119.06 74.3534 119.064C73.5654 118.978 72.8356 118.608 72.3008 118.023C69.656 115.599 66.7446 113.482 63.6226 111.714C63.2378 111.488 62.868 111.231 62.5058 110.96C61.8465 110.446 61.1106 110.038 60.3249 109.752C59.0091 109.419 57.6597 109.237 56.3027 109.209C55.6538 109.171 55.0199 109.133 54.4237 109.073C54.3328 109.062 54.25 109.015 54.1935 108.943C54.137 108.871 54.1112 108.779 54.1219 108.688C54.1266 108.644 54.1401 108.6 54.1616 108.561C54.1832 108.521 54.2124 108.487 54.2475 108.459C54.2826 108.43 54.3229 108.41 54.3661 108.397C54.4093 108.385 54.4545 108.381 54.4992 108.386C55.0878 108.447 55.7066 108.485 56.3405 108.522C57.7536 108.549 59.159 108.739 60.5286 109.088C61.3793 109.399 62.1781 109.837 62.8982 110.386C63.2453 110.635 63.6 110.877 63.9698 111.096C67.1345 112.894 70.0883 115.04 72.7762 117.495C73.1844 117.91 73.7121 118.187 74.2855 118.287C74.3557 118.285 74.4246 118.268 74.4881 118.238C74.5517 118.208 74.6085 118.166 74.6553 118.114C75.0628 117.668 74.5043 116.8 74.2478 116.446L71.3651 112.484C71.3381 112.449 71.3183 112.41 71.3068 112.368C71.2952 112.325 71.2921 112.281 71.2977 112.238C71.3034 112.194 71.3175 112.152 71.3395 112.114C71.3614 112.076 71.3906 112.043 71.4255 112.016C71.4889 111.954 71.5743 111.919 71.6632 111.919C71.7521 111.919 71.8374 111.954 71.9009 112.016L76.7909 117.623C77.0294 117.957 77.356 118.218 77.7341 118.378C77.8235 118.403 77.9169 118.41 78.0089 118.398C78.1009 118.386 78.1897 118.356 78.2699 118.31C78.318 118.285 78.3594 118.248 78.3907 118.204L74.4591 112.295C74.408 112.22 74.3889 112.128 74.4059 112.039C74.4229 111.95 74.4746 111.871 74.5496 111.82C74.6247 111.769 74.7169 111.75 74.8061 111.767C74.8952 111.784 74.974 111.835 75.025 111.911C76.8234 114.505 78.8433 116.939 81.0621 119.185C81.3078 119.455 81.6429 119.626 82.0053 119.668C82.0352 119.667 82.0642 119.658 82.0895 119.642C82.1147 119.627 82.1352 119.604 82.1487 119.578C82.2317 119.449 82.1487 119.208 81.9752 118.876C81.0667 117.321 79.9803 115.878 78.7378 114.574L77.055 112.975C77.0005 112.91 76.9716 112.827 76.9736 112.743C76.9756 112.658 77.0084 112.577 77.0658 112.515C77.1233 112.453 77.2014 112.414 77.2856 112.406C77.3697 112.397 77.4541 112.42 77.5228 112.469C78.119 112.982 78.685 113.518 79.2283 114.084L84.9937 119.555C85.2177 119.81 85.5256 119.976 85.8615 120.023C85.892 120.024 85.9224 120.018 85.95 120.005C85.9776 119.991 86.0016 119.972 86.0199 119.947C86.1935 119.766 86.02 119.359 85.7709 119.027C83.2438 115.48 80.2542 112.288 76.8814 109.533C76.8197 109.475 76.7816 109.395 76.7746 109.31C76.7676 109.226 76.792 109.141 76.8433 109.073C76.8946 109.005 76.9691 108.958 77.0527 108.941C77.1362 108.925 77.223 108.939 77.2965 108.983C78.684 109.948 80.2108 110.696 81.8242 111.201C82.3525 111.367 82.6317 111.299 82.6845 111.201C82.7373 111.103 82.6845 110.771 82.3147 110.379C81.2676 109.304 80.1232 108.329 78.8963 107.466C76.4851 105.657 73.8592 104.154 71.0783 102.991C66.6487 101.142 62.219 100.667 57.4951 100.161L56.0235 99.995C55.9788 99.9903 55.9355 99.9768 55.8961 99.9552C55.8566 99.9336 55.8218 99.9045 55.7938 99.8694C55.7657 99.8343 55.7449 99.7939 55.7325 99.7507C55.7201 99.7075 55.7164 99.6623 55.7217 99.6176C55.7264 99.5729 55.7399 99.5296 55.7614 99.4902C55.783 99.4507 55.8122 99.416 55.8473 99.3879C55.8824 99.3598 55.9227 99.339 55.9659 99.3266C56.0091 99.3142 56.0543 99.3106 56.099 99.3158L57.6082 99.4743C62.3548 99.9874 66.8298 100.47 71.35 102.357C74.1834 103.531 76.8602 105.052 79.3189 106.885C80.5803 107.782 81.7573 108.792 82.8354 109.903C83.3788 110.492 83.5448 111.133 83.2731 111.563C83.1146 111.805 82.692 112.167 81.628 111.835C81.014 111.647 80.4117 111.423 79.8245 111.163C82.2372 113.421 84.4188 115.914 86.3369 118.604C86.8576 119.359 86.9255 119.97 86.5406 120.393C86.4583 120.483 86.3582 120.556 86.2466 120.607C86.135 120.657 86.0142 120.685 85.8917 120.687L85.8841 120.785Z" fill="#231F20"/>
<path d="M114.326 119.615L125.336 90.1471L80.3678 91.0376L70.286 124.641L114.326 119.615Z" fill="white"/>
<path d="M70.286 125.041C70.231 125.042 70.1766 125.03 70.127 125.006C70.0773 124.983 70.0336 124.948 69.9992 124.905C69.9597 124.858 69.9322 124.801 69.9191 124.741C69.9059 124.68 69.9075 124.618 69.9238 124.558L80.0056 90.9545C80.0301 90.8785 80.0771 90.8118 80.1405 90.7633C80.2039 90.7148 80.2805 90.6867 80.3603 90.6829L125.328 89.7924C125.39 89.7915 125.451 89.8054 125.506 89.833C125.561 89.8606 125.609 89.901 125.645 89.9509C125.678 90.0017 125.699 90.0593 125.707 90.1193C125.715 90.1794 125.709 90.2404 125.691 90.298L114.681 119.728C114.656 119.795 114.613 119.854 114.557 119.898C114.501 119.942 114.434 119.969 114.364 119.977L70.3313 125.041H70.286ZM80.6546 91.43L70.8444 124.226L114.085 119.291L124.815 90.5546L80.6546 91.43Z" fill="#231F20"/>
<path d="M111.926 119.887C111.926 119.887 124.129 129.795 119.842 138.881C115.556 147.967 37.588 158.35 37.588 158.35L34.079 146.472C34.079 146.472 95.2415 115.231 111.926 119.887Z" fill="#1B1E26"/>
<path d="M37.588 158.728C37.5066 158.726 37.4278 158.699 37.3627 158.651C37.2976 158.602 37.2497 158.534 37.2257 158.456L33.7167 146.578C33.6899 146.495 33.6942 146.404 33.7289 146.324C33.7636 146.243 33.8263 146.178 33.9054 146.14C34.0563 146.057 49.3979 138.247 66.5883 131.093C89.7176 121.472 104.999 117.578 112.002 119.525C112.054 119.539 112.103 119.565 112.145 119.6C114.274 121.409 116.166 123.481 117.775 125.766C121.14 130.61 121.955 135.198 120.129 139.047C115.767 148.208 40.8253 158.297 37.6408 158.72L37.588 158.728ZM34.5242 146.654L37.8596 157.913C43.308 157.158 115.398 147.212 119.45 138.707C123.434 130.316 112.658 120.981 111.723 120.219C95.8603 115.986 39.0972 144.39 34.5695 146.669L34.5242 146.654Z" fill="#231F20"/>
<path d="M30.0418 115.336C30.0418 115.336 90.5855 139.817 105.595 146.276L96.8715 159.754C96.8715 159.754 40.9688 158.66 24.9405 144.616C8.9122 130.572 9.97622 107.194 30.0418 115.336Z" fill="#1B1E26"/>
<path d="M96.8716 160.146C96.7358 160.146 82.6921 159.852 66.8752 157.845C45.5947 155.136 31.4077 150.789 24.6991 144.91C16.3076 137.56 10.4291 124.656 15.0474 117.163C16.5566 114.672 20.5863 111.088 30.2003 114.982C30.804 115.231 90.9176 139.545 105.761 145.922C105.812 145.942 105.857 145.974 105.894 146.014C105.93 146.055 105.957 146.103 105.972 146.155C105.988 146.209 105.991 146.264 105.984 146.319C105.976 146.373 105.957 146.426 105.927 146.472L97.2036 159.973C97.1682 160.028 97.1189 160.073 97.0607 160.104C97.0024 160.134 96.9373 160.149 96.8716 160.146ZM22.6087 114.023C19.5072 114.023 17.1301 115.216 15.6813 117.555C12.1194 123.343 15.0851 135.493 25.1896 144.344C40.4406 157.709 92.9022 159.294 96.6678 159.384L105.044 146.442C89.5442 139.802 30.5097 115.925 29.906 115.684C27.6012 114.671 25.1246 114.108 22.6087 114.023Z" fill="#231F20"/>
<path d="M114.56 107.851C114.625 108.199 114.775 108.526 114.998 108.802L116.175 110.56C116.132 110.378 116.05 110.208 115.934 110.062C115.818 109.915 115.671 109.796 115.504 109.713C115.337 109.629 115.154 109.584 114.967 109.579C114.781 109.574 114.595 109.61 114.424 109.684C114.09 109.865 113.812 110.135 113.622 110.464C113.431 110.793 113.335 111.168 113.345 111.548C113.379 112.307 113.558 113.053 113.873 113.744C114.711 115.918 116.605 119.095 119.344 117.45C121.201 116.333 121.714 112.394 121.978 110.432C122.499 106.568 121.314 101.602 116.348 102.357C116.492 104.26 117.201 106.076 118.386 107.571C117.578 106.787 114.311 105.572 114.56 107.851Z" fill="#FFB9B9"/>
<path d="M117.828 118.249C117.524 118.252 117.223 118.2 116.937 118.099C115.149 117.487 114.032 115.186 113.526 113.865C113.197 113.132 113.01 112.343 112.975 111.541C112.963 111.095 113.078 110.654 113.306 110.271C113.535 109.887 113.867 109.577 114.266 109.375C114.451 109.291 114.651 109.247 114.854 109.247L114.688 108.998C114.431 108.673 114.259 108.289 114.19 107.881C114.13 107.581 114.172 107.27 114.308 106.997C114.445 106.723 114.669 106.503 114.945 106.372C115.719 106.133 116.554 106.195 117.284 106.545C116.559 105.278 116.126 103.865 116.016 102.41C116.011 102.323 116.039 102.237 116.093 102.169C116.147 102.101 116.225 102.055 116.311 102.04C117.066 101.875 117.85 101.896 118.595 102.101C119.341 102.306 120.025 102.689 120.589 103.217C122.363 104.968 122.657 108.122 122.333 110.499C122.038 112.673 121.51 116.574 119.533 117.766C119.021 118.085 118.43 118.253 117.828 118.249ZM114.9 109.949C114.778 109.947 114.657 109.97 114.545 110.016C114.27 110.17 114.043 110.397 113.889 110.671C113.734 110.945 113.659 111.256 113.67 111.571C113.699 112.286 113.868 112.988 114.168 113.639C114.545 114.605 115.586 116.921 117.186 117.465C117.516 117.57 117.866 117.599 118.209 117.547C118.552 117.496 118.878 117.367 119.163 117.17C120.861 116.152 121.374 112.318 121.623 110.477C121.933 108.213 121.684 105.27 120.114 103.685C119.669 103.266 119.133 102.955 118.548 102.775C117.963 102.596 117.345 102.554 116.741 102.651C116.935 104.369 117.607 105.998 118.68 107.353C118.735 107.42 118.762 107.507 118.755 107.594C118.748 107.681 118.708 107.762 118.643 107.82C118.578 107.881 118.493 107.915 118.405 107.915C118.316 107.915 118.231 107.881 118.167 107.82C117.662 107.322 115.994 106.613 115.247 106.975C115.081 107.051 114.869 107.224 114.922 107.813C114.988 108.104 115.117 108.377 115.3 108.613L115.933 109.549C116.1 109.656 116.24 109.799 116.344 109.968C116.449 110.136 116.514 110.325 116.537 110.522C116.545 110.599 116.527 110.676 116.486 110.742C116.445 110.808 116.383 110.858 116.311 110.884C116.239 110.91 116.16 110.911 116.087 110.886C116.014 110.861 115.952 110.813 115.911 110.748L115.443 110.054C115.274 109.972 115.087 109.936 114.9 109.949Z" fill="#231F20"/>
<path d="M97.5582 143.484C97.5106 143.491 97.4623 143.491 97.4148 143.484C96.0942 142.971 64.8828 130.889 57.8497 126.58C57.7622 126.526 57.6997 126.439 57.6757 126.339C57.6517 126.239 57.6681 126.133 57.7214 126.045C57.7477 126.001 57.7826 125.962 57.8239 125.932C57.8653 125.901 57.9123 125.88 57.9623 125.868C58.0122 125.856 58.064 125.854 58.1146 125.862C58.1653 125.871 58.2138 125.889 58.2572 125.916C65.2299 130.188 97.3695 142.631 97.694 142.752C97.7909 142.789 97.8692 142.863 97.9116 142.958C97.9541 143.053 97.9572 143.161 97.9204 143.258C97.8891 143.327 97.838 143.385 97.7736 143.426C97.7091 143.466 97.6342 143.486 97.5582 143.484Z" fill="white"/>
<path d="M35.3241 115.231C35.224 115.237 35.1256 115.203 35.0506 115.136C34.9756 115.07 34.9301 114.976 34.9241 114.876C34.9181 114.776 34.9521 114.678 35.0186 114.603C35.0851 114.528 35.1787 114.482 35.2788 114.476L53.3898 112.28L56.265 97.7839L33.0602 95.8219C33.0047 95.8182 32.9508 95.802 32.9025 95.7746C32.8541 95.7471 32.8126 95.7091 32.781 95.6634C32.7471 95.6189 32.724 95.5671 32.7136 95.5121C32.7031 95.4571 32.7055 95.4004 32.7206 95.3465L42.2591 59.8337C42.2851 59.7337 42.3498 59.648 42.439 59.5957C42.5281 59.5433 42.6344 59.5285 42.7345 59.5545C42.8346 59.5806 42.9202 59.6453 42.9726 59.7344C43.0249 59.8236 43.0397 59.9299 43.0137 60.03L33.5884 95.1126L56.7328 97.0293C56.7859 97.0351 56.8373 97.0514 56.8839 97.0773C56.9306 97.1032 56.9716 97.1382 57.0045 97.1802C57.0361 97.2231 57.0584 97.2721 57.0701 97.324C57.0818 97.376 57.0826 97.4298 57.0724 97.4821L54.0539 112.658C54.0375 112.735 53.9976 112.806 53.9395 112.86C53.8814 112.914 53.808 112.949 53.7294 112.959L35.3241 115.186V115.231Z" fill="#231F20"/>
<path d="M135.056 12.7525H97.4299V16.6464H135.056V12.7525Z" fill="#E6E7E8"/>
<path d="M177.058 12.7525H139.432V16.6464H177.058V12.7525Z" fill="#E6E7E8"/>
<path d="M135.056 19.4235H112.968V23.3173H135.056V19.4235Z" fill="#0EAF59"/>
<path d="M172.855 19.4235H139.432V23.3173H172.855V19.4235Z" fill="#E6E7E8"/>
<path d="M135.056 26.1019H107.217V29.9957H135.056V26.1019Z" fill="#E6E7E8"/>
<path d="M155.129 26.1019H139.432V29.9957H155.129V26.1019Z" fill="#E6E7E8"/>
<path d="M135.063 32.7728H118.824V36.6667H135.063V32.7728Z" fill="#E6E7E8"/>
<path d="M170.176 32.7728H139.432V36.6667H170.176V32.7728Z" fill="#0EAF59"/>
<path d="M135.056 39.4513H129.886V43.3452H135.056V39.4513Z" fill="#0EAF59"/>
<path d="M160.087 39.4513H139.432V43.3452H160.087V39.4513Z" fill="#E6E7E8"/>
<path d="M134.407 66.8895H99.8296V71.3494H134.407V66.8895Z" fill="#0EAF59"/>
<path d="M161.196 66.8895H139.961V71.3494H161.196V66.8895Z" fill="#E6E7E8"/>
<path d="M134.399 74.5262H106.327V78.9861H134.399V74.5262Z" fill="#E6E7E8"/>
<path d="M170.878 74.5262H139.961V78.9861H170.878V74.5262Z" fill="#E6E7E8"/>
<path d="M134.399 82.1707H120.363V86.6305H134.399V82.1707Z" fill="#E6E7E8"/>
<path d="M176.726 82.1707H139.961V86.6305H176.726V82.1707Z" fill="#E6E7E8"/>
<path d="M134.399 89.8151H129.139V94.2749H134.399V89.8151Z" fill="#E6E7E8"/>
<path d="M179.035 89.8151H139.961V94.2749H179.035V89.8151Z" fill="#0EAF59"/>
<path d="M166.207 97.4519H139.961V101.912H166.207V97.4519Z" fill="#E6E7E8"/>
<path d="M153.265 57.2151L150.427 56.0832V54.5739L153.265 53.442L156.102 52.3101V54.1061C155.589 54.3249 155.083 54.5287 154.593 54.7249C154.102 54.9211 153.582 55.1248 153.084 55.3437L154.593 55.9172L156.102 56.4907V58.3169L153.265 57.2151Z" fill="#E6E7E8"/>
<path d="M156.94 58.8226L160.305 50.167L162.071 50.6952L158.683 59.3885L156.94 58.8226Z" fill="#E6E7E8"/>
<path d="M165.739 53.4647C166.682 53.842 167.633 54.2193 168.576 54.5966V56.1059L165.739 57.2378L162.901 58.3698V56.5209L164.411 55.9474L165.92 55.3739C165.407 55.1551 164.901 54.9513 164.411 54.7551C163.92 54.5589 163.399 54.3552 162.901 54.1363V52.3328L165.739 53.4647Z" fill="#E6E7E8"/>
<path d="M98.4185 3.47061C98.4175 3.29568 98.4562 3.12279 98.5317 2.96501C98.5976 2.80427 98.6981 2.66 98.826 2.54241C98.9516 2.42628 99.0974 2.3342 99.2562 2.27075C99.4262 2.20098 99.6082 2.16509 99.7919 2.1651C99.9658 2.16669 100.138 2.2026 100.298 2.27075C100.453 2.33601 100.596 2.42794 100.72 2.54241C100.841 2.66445 100.938 2.80771 101.007 2.96501C101.077 3.12444 101.113 3.29659 101.113 3.47061C101.113 3.64706 101.077 3.82166 101.007 3.98375C100.936 4.13317 100.839 4.26863 100.72 4.38371C100.468 4.61938 100.137 4.75372 99.7919 4.76102C99.6082 4.76103 99.4262 4.72514 99.2562 4.65537C99.0959 4.59481 98.9496 4.50239 98.826 4.38371C98.7004 4.27299 98.6001 4.1366 98.5317 3.98375C98.456 3.82333 98.4174 3.64797 98.4185 3.47061ZM98.4185 7.89272C98.4221 7.71993 98.46 7.54958 98.53 7.39154C98.5999 7.2335 98.7005 7.09092 98.826 6.97208C98.9491 6.85101 99.0955 6.75604 99.2562 6.69286C99.4267 6.62568 99.6087 6.59236 99.7919 6.59476C99.9653 6.59377 100.137 6.62711 100.298 6.69286C100.455 6.75796 100.598 6.85276 100.72 6.97208C100.841 7.09131 100.938 7.23208 101.007 7.38712C101.076 7.54793 101.112 7.72128 101.112 7.89649C101.112 8.0717 101.076 8.24506 101.007 8.40587C100.938 8.55866 100.841 8.69696 100.72 8.81337C100.596 8.92784 100.453 9.01977 100.298 9.08503C100.137 9.15079 99.9653 9.18413 99.7919 9.18313C99.6087 9.18554 99.4267 9.15222 99.2562 9.08503C99.0974 9.02159 98.9516 8.9295 98.826 8.81337C98.6986 8.70131 98.598 8.56204 98.5317 8.40587C98.4553 8.2457 98.4166 8.07017 98.4185 7.89272Z" fill="#E6E7E8"/>
</svg>
