<svg width="220" height="165" viewBox="0 0 220 165" fill="none" xmlns="http://www.w3.org/2000/svg">
<path d="M161.449 67.622C163.961 64.0631 166.213 60.3269 168.188 56.4425C169.92 52.5727 171.028 48.4513 171.469 44.2328C171.509 43.3365 171.748 42.4603 172.17 41.6688C173.205 40.1426 175.215 40.6386 175.771 42.2869C175.967 43.07 176.057 43.876 176.038 44.6831C176.115 46.7301 176.718 48.7224 177.789 50.4674C178.938 52.2912 180.781 53.3748 182.273 54.8858C183.724 56.3353 185.044 57.9109 186.217 59.5941C186.796 60.4488 187.991 61.975 187.74 63.1044C187.093 65.6837 175.84 75.5659 165.553 78.7938" fill="#FFB9B9"/>
<path d="M165.561 79.1219C165.486 79.1234 165.413 79.1004 165.352 79.0563C165.292 79.0122 165.247 78.9495 165.226 78.8777C165.2 78.7897 165.209 78.6948 165.251 78.6135C165.294 78.5321 165.367 78.4708 165.454 78.4427C176.038 75.1309 186.857 65.2182 187.405 63.0051C187.626 62.1505 186.75 60.9066 186.179 60.0825L185.966 59.7772C184.807 58.1079 183.5 56.5474 182.06 55.1147C181.542 54.5881 180.964 54.1074 180.408 53.6342C179.298 52.7946 178.327 51.7851 177.53 50.6429C176.432 48.8433 175.813 46.7911 175.733 44.683V44.2252C175.745 43.6018 175.668 42.98 175.505 42.3784C175.404 42.048 175.215 41.7518 174.957 41.5228C174.698 41.2938 174.382 41.1409 174.043 41.0812C173.742 41.0419 173.436 41.0935 173.165 41.2295C172.894 41.3655 172.669 41.5795 172.52 41.8443C172.141 42.5502 171.925 43.3326 171.888 44.1336V44.2404C171.449 48.4963 170.334 52.6544 168.584 56.5569C166.603 60.4564 164.341 64.2056 161.815 67.7746C161.789 67.8127 161.756 67.8453 161.717 67.8705C161.679 67.8957 161.635 67.9131 161.59 67.9216C161.545 67.9301 161.498 67.9296 161.453 67.9201C161.408 67.9106 161.366 67.8922 161.328 67.8661C161.29 67.8408 161.257 67.8082 161.232 67.7702C161.207 67.7323 161.19 67.6897 161.181 67.6449C161.173 67.6002 161.173 67.5542 161.183 67.5096C161.192 67.4651 161.21 67.4228 161.236 67.3854C163.707 63.8562 165.915 60.1503 167.845 56.2975C169.561 52.4609 170.658 48.3759 171.096 44.1946V44.0878C171.145 43.1704 171.405 42.277 171.858 41.478C172.078 41.1038 172.404 40.8029 172.793 40.613C173.183 40.423 173.621 40.3523 174.05 40.4096C174.518 40.4859 174.955 40.6913 175.313 41.0026C175.671 41.314 175.935 41.7191 176.076 42.1724C176.264 42.8375 176.356 43.5262 176.35 44.2175V44.6678C176.422 46.6544 177.004 48.5888 178.04 50.2842C178.801 51.3653 179.726 52.3205 180.781 53.1153C181.352 53.5961 181.938 54.0921 182.479 54.6415C183.948 56.1037 185.281 57.6976 186.461 59.4033L186.674 59.6933C187.321 60.6243 188.296 62.0284 188.007 63.1883C187.337 65.8973 176.083 75.8329 165.584 79.1219C165.576 79.1223 165.569 79.1223 165.561 79.1219Z" fill="#FFB9B9"/>
<path d="M60.7562 43.3398C60.7562 43.3398 97.5692 45.8199 102.153 48.6816C106.736 51.5432 122.786 70.0866 134.009 71.2771C138.898 71.8357 143.849 71.3991 148.566 69.9934C153.282 68.5877 157.667 66.2419 161.457 63.0966L169.596 79.7552C169.596 79.7552 148.81 99.4585 131.222 94.9028C117.814 91.4307 96.7545 80.5412 96.7545 80.5412L58.632 91.0567L60.7562 43.3398Z" fill="#1E212A"/>
<path d="M136.697 95.9636C134.818 95.971 132.945 95.7402 131.123 95.2768C118.355 91.9726 98.5589 81.8843 96.7164 80.9533L58.7309 91.4231C58.6723 91.4387 58.611 91.4406 58.5516 91.4287C58.4922 91.4168 58.4363 91.3914 58.3882 91.3545C58.3421 91.3154 58.3057 91.2661 58.2819 91.2105C58.2581 91.1548 58.2476 91.0944 58.2512 91.034L60.3755 43.3247C60.3832 43.2224 60.4295 43.127 60.5049 43.0576C60.5431 43.0239 60.5878 42.9983 60.6363 42.9826C60.6847 42.9668 60.7359 42.9612 60.7866 42.966C62.3094 43.0652 97.7443 45.4843 102.358 48.3078C104.581 49.9715 106.683 51.7924 108.647 53.7563C115.606 60.2274 126.113 70.0104 134.047 70.8575C138.881 71.3953 143.773 70.9588 148.436 69.5735C153.098 68.1883 157.438 65.8824 161.198 62.7915C161.241 62.75 161.293 62.7193 161.35 62.702C161.407 62.6848 161.467 62.6814 161.526 62.6923C161.584 62.7028 161.639 62.7268 161.687 62.7626C161.735 62.7984 161.773 62.8449 161.8 62.8983L169.939 79.5569C169.973 79.6314 169.983 79.7147 169.968 79.7953C169.953 79.8759 169.914 79.9499 169.855 80.0071C169.665 80.2208 152.838 95.9636 136.697 95.9636ZM96.7545 80.1597C96.8158 80.1593 96.8762 80.1751 96.9296 80.2055C97.1428 80.3123 118.104 91.1103 131.314 94.5366C147.577 98.7489 166.924 81.6859 169.124 79.679L161.335 63.7148C153.609 69.8669 143.774 72.7185 133.963 71.6511C125.778 70.7812 115.157 60.8913 108.13 54.3515C105.381 51.7951 103.219 49.7729 101.955 49.0098C97.7519 46.4 65.0732 44.042 61.1216 43.7673L59.0354 90.5685L96.6555 80.1979L96.7545 80.1597Z" fill="#231F20"/>
<path d="M108 108.013C108.556 96.3986 108.975 82.7238 108.168 77.6796C107.17 76.451 105.206 74.3525 105.206 74.3525C104.974 64.8666 103.3 55.4716 100.242 46.4916L94.1505 45.7285C94.1505 45.7285 97.8965 56.5798 98.361 74.0854L66.8015 72.254C66.8015 72.254 66.0858 53.8708 61.2282 42.4929H54.5813C54.5813 42.4929 54.1092 63.0357 53.7057 74.5433C53.7057 74.5433 45.9776 81.0984 43.8077 84.3568C42.7341 85.9746 42.7417 97.1693 43.0463 108.013H108Z" fill="#0EAF59"/>
<path d="M138.912 93.1477C139.125 93.0566 139.302 92.8976 139.416 92.6953C139.53 92.4929 139.573 92.2587 139.54 92.0289C139.507 91.7991 139.399 91.5867 139.234 91.4247C139.068 91.2627 138.853 91.1602 138.623 91.1331C131.131 90.141 114.167 87.9128 105.122 86.7681C104.386 86.6733 103.637 86.7466 102.933 86.9826C102.229 87.2185 101.587 87.6109 101.055 88.1305C100.524 88.65 100.116 89.2833 99.8632 89.983C99.6102 90.6827 99.5183 91.4306 99.5944 92.1709L100.683 103.06C100.761 103.839 101.022 104.589 101.446 105.246C101.869 105.904 102.442 106.452 103.118 106.845C103.793 107.237 104.552 107.464 105.332 107.505C106.112 107.546 106.891 107.401 107.604 107.082L138.912 93.1477Z" fill="#A4A4A4"/>
<path d="M105.602 107.868C104.294 107.857 103.036 107.364 102.067 106.483C101.098 105.602 100.486 104.395 100.348 103.091L99.2518 92.2091C99.1724 91.4162 99.2723 90.6155 99.5441 89.8666C99.8159 89.1177 100.253 88.4398 100.822 87.8833C101.391 87.3268 102.078 86.906 102.832 86.6522C103.585 86.3983 104.386 86.318 105.175 86.4172C113.908 87.5237 129.92 89.6299 138.676 90.7821C138.979 90.8235 139.261 90.9626 139.478 91.1785C139.695 91.3943 139.837 91.6752 139.88 91.9786C139.924 92.282 139.868 92.5914 139.721 92.8602C139.574 93.129 139.344 93.3424 139.065 93.4683L107.741 107.403C107.069 107.707 106.34 107.866 105.602 107.868ZM104.498 87.0735C103.855 87.0699 103.219 87.2022 102.631 87.4618C102.043 87.7213 101.516 88.1023 101.085 88.5798C100.654 89.0572 100.328 89.6205 100.129 90.2327C99.93 90.845 99.862 91.4924 99.9294 92.1328L101.026 103.022C101.094 103.748 101.333 104.447 101.725 105.061C102.116 105.675 102.649 106.186 103.277 106.553C103.906 106.919 104.612 107.13 105.338 107.168C106.064 107.205 106.789 107.069 107.452 106.769L138.783 92.8578C138.923 92.7949 139.039 92.6881 139.114 92.5533C139.188 92.4185 139.217 92.2631 139.195 92.1106C139.174 91.9581 139.103 91.8168 138.995 91.7079C138.886 91.599 138.745 91.5285 138.593 91.5071C129.829 90.3548 113.817 88.2486 105.092 87.1421C104.895 87.1075 104.697 87.0846 104.498 87.0735Z" fill="#231F20"/>
<path d="M110.475 97.4363C110.475 97.4363 99.3812 100.283 97.7899 99.2372C96.1986 98.1918 93.983 92.5448 93.983 92.5448L86.3767 95.2462L86.1864 91.2246C86.1864 91.2246 94.8053 87.0276 95.5667 88.2562C96.3281 89.4848 98.0716 96.8335 99.465 96.6503C100.858 96.4672 110.368 95.147 110.368 95.147" fill="#A4A4A4"/>
<path d="M99.1833 99.8019C98.6399 99.8466 98.0942 99.7493 97.5996 99.5195C96.1453 98.5656 94.2799 94.1778 93.7927 92.9797L86.5367 95.5743C86.4853 95.5927 86.4302 95.5989 86.376 95.5923C86.3218 95.5857 86.2699 95.5664 86.2245 95.5361C86.1791 95.5058 86.1416 95.465 86.1151 95.4172C86.0887 95.3695 86.0739 95.316 86.0722 95.2614L85.8819 91.2475C85.8774 91.179 85.893 91.1107 85.9268 91.051C85.9607 90.9913 86.0112 90.9429 86.0722 90.9117C89.3995 89.2939 95.0946 86.7681 95.8941 88.073C96.3218 88.9658 96.6758 89.8922 96.9524 90.843C97.4549 92.3692 98.7645 96.3679 99.4497 96.2763C100.828 96.0703 110.239 94.8112 110.338 94.8035C110.383 94.7971 110.428 94.7997 110.473 94.8113C110.517 94.8228 110.558 94.843 110.594 94.8707C110.63 94.8984 110.66 94.9331 110.683 94.9726C110.706 95.0122 110.72 95.0559 110.726 95.1012C110.732 95.1463 110.73 95.1923 110.718 95.2364C110.707 95.2805 110.686 95.3219 110.659 95.3582C110.631 95.3944 110.597 95.4247 110.557 95.4474C110.518 95.4701 110.474 95.4847 110.429 95.4903C110.33 95.4903 100.919 96.7647 99.5487 96.9708C98.4067 97.1463 97.5234 94.7425 96.29 91.0643C96.026 90.1668 95.6977 89.2895 95.3078 88.4393C94.8738 87.9814 90.907 89.355 86.5823 91.4383L86.7422 94.7578L93.8688 92.209C93.9538 92.1806 94.0464 92.1853 94.1281 92.222C94.2099 92.2588 94.2749 92.3249 94.3104 92.4074C94.9195 93.9336 96.7697 98.1307 97.9955 98.9396C99.0614 99.6416 106.173 98.1765 110.406 97.0929C110.45 97.0813 110.496 97.0786 110.541 97.0848C110.586 97.0911 110.629 97.1061 110.669 97.1291C110.708 97.1522 110.742 97.1827 110.77 97.2191C110.797 97.2554 110.817 97.2968 110.829 97.3409C110.84 97.385 110.843 97.4309 110.837 97.476C110.83 97.5212 110.815 97.5647 110.792 97.604C110.769 97.6433 110.739 97.6777 110.703 97.7052C110.667 97.7328 110.625 97.7529 110.581 97.7644C109.028 98.1993 102.442 99.8019 99.1833 99.8019Z" fill="#231F20"/>
<path d="M64.1825 79.7933C64.1825 79.7933 77.8189 79.5568 80.7959 80.4725C83.7729 81.3882 92.7725 90.3928 91.8131 94.0328C90.8538 97.6728 81.8085 102.091 78.7097 100.771C75.6109 99.4509 72.2531 94.9715 72.2531 94.9715C72.2531 94.9715 63.2612 91.3009 58.632 91.0567L64.1825 79.7933Z" fill="#FFB9B9"/>
<path d="M80.1105 101.359C79.5904 101.369 79.0733 101.279 78.5877 101.092C75.6335 99.8248 72.4966 95.8872 72.0474 95.2615C71.1109 94.8799 62.9108 91.6291 58.6242 91.4002C58.5673 91.3967 58.512 91.3797 58.463 91.3505C58.414 91.3212 58.3727 91.2807 58.3425 91.2323C58.3145 91.1808 58.2998 91.123 58.2998 91.0644C58.2998 91.0057 58.3145 90.948 58.3425 90.8965L63.893 79.6407C63.9201 79.5824 63.963 79.5328 64.0168 79.4977C64.0707 79.4627 64.1333 79.4435 64.1975 79.4423C64.7533 79.4423 77.9025 79.221 80.948 80.1367C84.1687 81.1212 93.2139 90.286 92.1937 94.1244C91.6302 96.2764 88.638 98.4131 86.0341 99.6875C84.1973 100.652 82.1796 101.221 80.1105 101.359ZM59.1724 90.7439C63.9082 91.2094 72.0246 94.506 72.3824 94.651C72.4413 94.6733 72.4918 94.7132 72.5271 94.7655C72.5651 94.8036 75.8772 99.1762 78.8466 100.451C80.1409 101 82.8286 100.451 85.699 99.0617C88.7979 97.5355 91.0744 95.5362 91.4932 93.9413C92.3992 90.5302 83.5215 81.6553 80.712 80.8006C78.0167 79.9765 66.1467 80.1139 64.4107 80.1367L59.1724 90.7439Z" fill="#231F20"/>
<path d="M55.0077 43.3398C48.3452 45.0947 41.9937 47.8722 36.1786 51.5737C31.0012 54.9314 8.00738 69.0183 4.45171 73.1925C0.896036 77.3667 -3.75603 90.4157 7.40588 95.5667C18.5678 100.718 60.444 93.8573 60.444 93.8573L67.4335 77.5345L47.7441 78.4808L58.6319 73.3146C58.6319 73.3146 59.0126 67.4005 57.8705 56.8773C56.9264 47.5751 55.0077 43.3398 55.0077 43.3398Z" fill="#1E212A"/>
<path d="M22.0397 97.8713C15.8039 97.8713 10.3753 97.3524 7.24597 95.9102C3.43905 94.155 1.10921 91.385 0.302137 87.6763C-0.923694 82.0369 1.82491 75.665 4.16236 72.9407C7.14699 69.4533 23.197 59.3269 31.8235 53.8631C33.6204 52.7337 35.067 51.818 35.9731 51.2304C41.8295 47.5138 48.2211 44.7213 54.9239 42.9507C55.0098 42.9305 55.1 42.9407 55.1791 42.9796C55.2583 43.0186 55.3215 43.0839 55.3579 43.1644C55.4341 43.3399 57.3071 47.5599 58.2817 56.8163C58.9443 62.2892 59.1988 67.8039 59.043 73.3146C59.0355 73.3822 59.0113 73.4468 58.9728 73.5027C58.9343 73.5586 58.8825 73.6041 58.8222 73.6351L49.6856 77.9848L67.4716 77.1302C67.5363 77.1267 67.6009 77.1396 67.6594 77.1676C67.7179 77.1956 67.7685 77.2378 67.8066 77.2904C67.8409 77.3457 67.8622 77.4081 67.8688 77.473C67.8754 77.5378 67.8672 77.6032 67.8447 77.6643L60.8551 93.9871C60.8296 94.0463 60.7898 94.0982 60.7393 94.1382C60.6888 94.1782 60.6292 94.2049 60.5658 94.2161C59.2715 94.4374 38.0136 97.8713 22.0397 97.8713ZM54.7793 43.7901C48.2784 45.5564 42.078 48.2881 36.3842 51.8943C35.4781 52.4819 34.0315 53.4205 32.2346 54.5346C23.6386 59.9527 7.64951 70.0409 4.7334 73.4367C2.50254 76.0695 -0.124239 82.1285 1.04829 87.516C1.80968 90.9805 3.99486 93.5674 7.56575 95.2157C18.0957 100.069 56.9797 94.0253 60.1775 93.514L66.8396 77.9467L47.7593 78.8624C47.6711 78.8667 47.5841 78.8402 47.5132 78.7873C47.4424 78.7344 47.3921 78.6584 47.371 78.5724C47.3511 78.4862 47.3606 78.3959 47.3978 78.3157C47.4351 78.2355 47.498 78.1701 47.5766 78.1298L58.236 73.0628C58.363 67.6691 58.1086 62.2732 57.4746 56.9155C56.6827 49.1395 55.2133 44.8966 54.7793 43.7901Z" fill="#231F20"/>
<path d="M59.7283 8.91619C59.8246 8.23385 60.0089 7.56693 60.2765 6.93212C61.3652 4.52834 64.9438 3.42947 67.3421 3.20054C70.1897 2.93345 72.6718 3.23869 75.1616 1.87274C77.6897 0.532536 80.5967 0.0913418 83.4074 0.621248C84.3375 0.792082 85.2378 1.098 86.0798 1.52934C87.3537 2.22387 88.4111 3.25784 89.1354 4.517C89.8596 5.77616 90.2224 7.21148 90.1837 8.66436C90.039 12.0983 87.9681 15.4407 85.6839 17.8827C84.1495 19.4254 82.4805 20.8274 80.6968 22.0721L76.9965 24.8193C73.1896 27.6275 67.8599 30.4052 62.9413 28.9706C59.2029 27.8717 57.2157 23.7204 56.5381 20.1796C55.7767 16.2801 55.2894 11.6939 59.5836 9.74797C59.6369 9.45799 59.675 9.17564 59.7283 8.91619Z" fill="#3A2A27"/>
<path d="M65.7432 29.7414C64.7544 29.7463 63.7699 29.6101 62.8195 29.3369C57.977 27.9099 56.4923 22.0264 56.1497 20.256C55.5863 17.2799 54.528 11.7779 59.2486 9.48857C59.2486 9.26727 59.3095 9.04597 59.3475 8.82467C59.4446 8.11281 59.6367 7.41725 59.9186 6.75666C61.053 4.24605 64.6087 3.05561 67.304 2.79615C68.0654 2.72747 68.7278 2.69695 69.4055 2.66642C71.4231 2.57485 73.1667 2.49854 74.9712 1.51414C77.5766 0.133913 80.5719 -0.320688 83.4682 0.22449C84.4355 0.399173 85.3718 0.715427 86.2473 1.16311C87.592 1.89234 88.7075 2.98256 89.4687 4.31154C90.2298 5.64053 90.6066 7.15575 90.5567 8.68731C90.3816 12.8157 87.595 16.387 85.9504 18.1422C84.4064 19.7061 82.7216 21.1239 80.9176 22.3774L77.2401 25.1246C74.1946 27.3605 69.9841 29.7414 65.7432 29.7414ZM60.0937 8.9544C60.048 9.23675 60.01 9.5191 59.9719 9.80145C59.9636 9.8649 59.9388 9.92507 59.9001 9.97594C59.8613 10.0268 59.8099 10.0666 59.7511 10.0914C55.7005 11.9229 56.1573 16.1963 56.9035 20.111C57.5583 23.5373 59.5151 27.5665 63.0403 28.6043C67.8979 30.0237 73.1819 27.1621 76.7452 24.5141L80.4455 21.7669C82.212 20.5383 83.8633 19.1514 85.3793 17.6233C86.9554 15.9368 89.6202 12.5334 89.7877 8.64916C89.8295 7.26333 89.4864 5.89312 88.7967 4.69124C88.1071 3.48937 87.0979 2.50307 85.8818 1.84227C85.0788 1.43019 84.2192 1.1396 83.3312 0.979962C80.6071 0.458064 77.7869 0.883402 75.3366 2.18567C73.3799 3.25401 71.4612 3.33796 69.4359 3.42953C68.7735 3.42953 68.0806 3.49057 67.3725 3.55925C65.3625 3.75003 61.685 4.70391 60.6114 7.06954C60.36 7.67333 60.186 8.30668 60.0937 8.9544Z" fill="#231F20"/>
<path d="M85.0825 35.9225L86.5368 47.369C86.5368 47.369 85.4251 53.4739 78.329 52.9168C76.2313 52.7367 74.2 52.0906 72.3825 51.0254C70.565 49.9601 69.0071 48.5026 67.8219 46.7586L64.7764 27.4368C64.7764 27.4368 69.4056 23.9036 66.124 13.1209C72.0945 14.6267 78.3595 14.4922 84.2602 12.7318C84.2602 12.7318 89.3006 24.1783 89.3387 29.6192C89.3767 35.0602 85.0825 35.9225 85.0825 35.9225Z" fill="#FFB9B9"/>
<path d="M79.1969 53.3595C78.9076 53.3595 78.6106 53.3595 78.2984 53.3595C76.1378 53.1843 74.0444 52.5231 72.1739 51.4253C70.3034 50.3274 68.7039 48.821 67.4944 47.0181C67.4675 46.9764 67.4494 46.9296 67.4411 46.8807L64.3955 27.5513C64.3839 27.4839 64.3912 27.4146 64.4168 27.3513C64.4423 27.2879 64.4851 27.2329 64.5402 27.1926C64.5783 27.1926 68.9029 23.6442 65.7508 13.2965C65.7319 13.2298 65.7311 13.1593 65.7485 13.0922C65.7659 13.0251 65.8008 12.9639 65.8497 12.9149C65.8986 12.8659 65.9597 12.8309 66.0266 12.8134C66.0936 12.796 66.1639 12.7968 66.2305 12.8157C72.1381 14.2777 78.328 14.1329 84.1611 12.396C84.2502 12.3714 84.3451 12.3793 84.4288 12.4185C84.5126 12.4576 84.5796 12.5254 84.6179 12.6097C84.8235 13.0752 89.6888 24.1936 89.7268 29.6422C89.7268 34.404 86.5747 35.8691 85.5088 36.2278L86.9173 47.3844C86.9249 47.4221 86.9249 47.461 86.9173 47.4988C86.5183 49.2269 85.5271 50.7599 84.1163 51.8308C82.7055 52.9017 80.9647 53.4427 79.1969 53.3595ZM68.1796 46.6518C69.3437 48.3217 70.858 49.7163 72.6165 50.7379C74.3749 51.7595 76.335 52.3834 78.3593 52.5658C84.755 53.0542 86.0189 47.9872 86.1483 47.3844L84.7017 35.9378C84.6903 35.8422 84.7153 35.7459 84.7718 35.6681C84.8283 35.5902 84.912 35.5367 85.0062 35.5181C85.1661 35.5181 88.9883 34.6329 88.9578 29.5888C88.9578 24.7812 84.8387 15.0135 84.0393 13.1591C78.3779 14.7616 72.4088 14.9347 66.6645 13.6628C69.3065 23.0032 66.0097 26.8034 65.1417 27.5818L68.1796 46.6518Z" fill="#231F20"/>
<path d="M68.7126 26.4675C68.3266 25.565 67.6586 24.8125 66.8091 24.3232C65.9987 23.9059 65.1233 23.6297 64.2204 23.5067C63.7194 23.3903 63.1986 23.3903 62.6976 23.5067C62.3622 23.6145 62.0516 23.7884 61.784 24.018C61.1351 24.508 60.6773 25.2097 60.4896 26.002C60.4054 26.6672 60.4838 27.3428 60.718 27.9708C60.9159 28.6723 61.2052 29.3445 61.5784 29.9702C61.9674 30.5828 62.4736 31.112 63.0679 31.5273C63.6622 31.9426 64.3327 32.2357 65.0407 32.3897C65.7487 32.5437 66.4802 32.5555 67.1928 32.4244C67.9053 32.2933 68.5849 32.022 69.1922 31.6261" fill="#FFB9B9"/>
<path d="M66.1696 32.9006C65.7551 32.8995 65.3418 32.8561 64.9361 32.7709C63.4075 32.4292 62.075 31.4969 61.2282 30.1763C60.8374 29.5215 60.5328 28.8187 60.3222 28.0854C60.07 27.398 59.989 26.6594 60.0861 25.9335C60.3057 25.0295 60.8472 24.237 61.6089 23.7052C61.9156 23.4457 62.2699 23.2487 62.652 23.1253C63.1977 22.9954 63.7661 22.9954 64.3118 23.1253C65.2581 23.2542 66.1751 23.546 67.0223 23.9876C67.9368 24.5098 68.66 25.3122 69.0857 26.2769C69.1056 26.3234 69.1161 26.3735 69.1166 26.4241C69.117 26.4748 69.1074 26.525 69.0882 26.5719C69.0691 26.6188 69.0408 26.6614 69.0051 26.6972C68.9694 26.733 68.9269 26.7613 68.8801 26.7805C68.8342 26.8004 68.7848 26.8108 68.7348 26.8111C68.6849 26.8115 68.6353 26.8018 68.5892 26.7825C68.543 26.7633 68.5011 26.735 68.4661 26.6993C68.4311 26.6635 68.4036 26.6211 68.3852 26.5745C68.0307 25.7491 67.419 25.0611 66.6417 24.6133C65.8679 24.222 65.034 23.964 64.1748 23.8502C63.7438 23.7517 63.2962 23.7517 62.8652 23.8502C62.5862 23.9492 62.3281 24.0993 62.1038 24.2928C61.5017 24.7216 61.0681 25.3479 60.878 26.0632C60.8039 26.6676 60.8797 27.2809 61.0988 27.8489C61.2833 28.5199 61.5601 29.162 61.9211 29.7566C62.2828 30.3275 62.7543 30.8206 63.308 31.2071C63.8617 31.5936 64.4866 31.8658 65.1463 32.0078C65.8061 32.1499 66.4874 32.1589 67.1507 32.0345C67.8139 31.91 68.4458 31.6545 69.0096 31.2828C69.0944 31.2283 69.1974 31.2098 69.2959 31.2312C69.3943 31.2527 69.4803 31.3124 69.5349 31.3973C69.5632 31.4386 69.5829 31.4852 69.5929 31.5343C69.6028 31.5835 69.6029 31.6341 69.5929 31.6832C69.583 31.7323 69.5633 31.7789 69.535 31.8203C69.5067 31.8616 69.4705 31.8968 69.4283 31.9238C68.4609 32.5621 67.3278 32.9018 66.1696 32.9006Z" fill="#231F20"/>
<path d="M86.0419 42.4929C83.4219 42.374 80.8851 41.5345 78.7097 40.0663C75.2302 37.6472 75.215 35.9226 75.215 35.9226C75.215 35.9226 80.499 37.7922 84.8313 36.1668L86.0419 42.4929Z" fill="#231F20"/>
<path d="M86.0417 42.8439C83.3443 42.7294 80.7319 41.8655 78.4963 40.3486C74.9559 37.8914 74.8417 36.0904 74.8417 35.892C74.8426 35.8311 74.8574 35.7711 74.8852 35.7169C74.9129 35.6626 74.9527 35.6155 75.0016 35.5792C75.0505 35.5438 75.1074 35.5211 75.1671 35.5131C75.2269 35.5051 75.2877 35.5121 75.3442 35.5334C75.3975 35.5334 80.5597 37.3419 84.7016 35.7776C84.7534 35.7576 84.809 35.7492 84.8644 35.7531C84.9198 35.7569 84.9737 35.7728 85.0223 35.7997C85.0709 35.8266 85.113 35.8638 85.1458 35.9088C85.1785 35.9537 85.201 36.0053 85.2117 36.0599L86.4147 42.3937C86.4251 42.4483 86.4236 42.5044 86.4105 42.5584C86.3973 42.6123 86.3728 42.6629 86.3386 42.7065C86.3014 42.7489 86.2558 42.7831 86.2046 42.8067C86.1535 42.8304 86.098 42.843 86.0417 42.8439ZM75.7706 36.4644C76.0675 37.1206 76.8593 38.2882 78.9227 39.7228C80.9189 41.0595 83.2225 41.8632 85.6153 42.0579L84.5798 36.6399C81.1155 37.7464 77.3086 36.8993 75.7706 36.4644Z" fill="#231F20"/>
<path d="M77.5599 20.7215C77.5599 20.7215 82.1739 25.3001 81.5191 26.4219C80.8643 27.5436 78.367 27.3758 78.367 27.3758" fill="#ECADAD"/>
<path d="M78.6791 27.7648H78.3441C78.2431 27.7588 78.1487 27.7128 78.0816 27.6369C78.0145 27.5611 77.9802 27.4616 77.9862 27.3604C77.9923 27.2592 78.0382 27.1646 78.1139 27.0973C78.1895 27.03 78.2888 26.9957 78.3897 27.0017C78.976 27.0017 80.75 27.0017 81.1916 26.2386C81.4581 25.8037 79.6004 23.3083 77.2934 21.0037C77.2217 20.9319 77.1814 20.8345 77.1814 20.7328C77.1814 20.6312 77.2217 20.5338 77.2934 20.4619C77.365 20.3901 77.4623 20.3497 77.5636 20.3497C77.665 20.3497 77.7622 20.3901 77.8339 20.4619C79.2806 21.8889 82.5698 25.3992 81.8084 26.6202C81.2221 27.6504 79.4481 27.7648 78.6791 27.7648Z" fill="#231F20"/>
<path d="M73.3442 22.4619C73.8373 22.4065 74.1741 21.798 74.0964 21.1028C74.0187 20.4075 73.556 19.8887 73.0629 19.9441C72.5698 19.9994 72.233 20.6079 72.3107 21.3032C72.3884 21.9985 72.8511 22.5172 73.3442 22.4619Z" fill="#231F20"/>
<path d="M82.0359 20.7359C82.4908 20.5374 82.6337 19.8565 82.3551 19.215C82.0764 18.5736 81.4817 18.2146 81.0267 18.4131C80.5718 18.6116 80.4289 19.2926 80.7076 19.934C80.9863 20.5754 81.581 20.9345 82.0359 20.7359Z" fill="#231F20"/>
<path d="M81.3058 34.6405C81.1535 34.6405 80.9936 34.6405 80.8261 34.6405C79.2264 34.6149 77.6569 34.1992 76.2534 33.4294C74.8499 32.6596 73.6545 31.5588 72.7707 30.2221C72.7407 30.1644 72.725 30.1002 72.725 30.0351C72.725 29.97 72.7407 29.9059 72.7707 29.8482C72.802 29.7922 72.8472 29.7452 72.9018 29.7118C72.9565 29.6784 73.0188 29.6597 73.0828 29.6574L86.0264 28.9935C86.1261 28.9893 86.2235 29.0246 86.2976 29.0917C86.3716 29.1587 86.4164 29.2523 86.4223 29.3522C86.4908 30.8016 85.9907 32.2204 85.029 33.305C84.532 33.7703 83.9454 34.1288 83.3051 34.3584C82.6648 34.5881 81.9845 34.6841 81.3058 34.6405ZM73.8138 30.3671C74.671 31.4238 75.7449 32.2835 76.9627 32.8879C78.1804 33.4922 79.5136 33.827 80.8718 33.8697C81.5185 33.9556 82.1761 33.8998 82.7992 33.7062C83.4223 33.5125 83.9961 33.1856 84.4808 32.748C85.2142 31.9254 85.6301 30.8671 85.6533 29.7642L73.8138 30.3671Z" fill="#231F20"/>
<path d="M85.2652 110.592H36.7192V126.938H85.2652V110.592Z" fill="#1E212A"/>
<path d="M85.2651 127.319H36.7192C36.6182 127.319 36.5214 127.279 36.45 127.208C36.3786 127.136 36.3385 127.039 36.3385 126.938V110.592C36.3385 110.491 36.3786 110.394 36.45 110.322C36.5214 110.251 36.6182 110.211 36.7192 110.211H85.2651C85.3661 110.211 85.4629 110.251 85.5343 110.322C85.6057 110.394 85.6458 110.491 85.6458 110.592V126.938C85.6458 127.039 85.6057 127.136 85.5343 127.208C85.4629 127.279 85.3661 127.319 85.2651 127.319ZM37.0999 126.556H84.854V110.974H37.0999V126.556Z" fill="#171920"/>
<path d="M34.5797 110.592H1.63452V126.938H34.5797V110.592Z" fill="#1E212A"/>
<path d="M34.6026 127.319H1.6346C1.53363 127.319 1.4368 127.279 1.36541 127.208C1.29401 127.136 1.25391 127.039 1.25391 126.938V110.592C1.25391 110.491 1.29401 110.394 1.36541 110.322C1.4368 110.251 1.53363 110.211 1.6346 110.211H34.6026C34.7036 110.211 34.8004 110.251 34.8718 110.322C34.9432 110.394 34.9833 110.491 34.9833 110.592V126.938C34.9833 127.039 34.9432 127.136 34.8718 127.208C34.8004 127.279 34.7036 127.319 34.6026 127.319ZM2.03813 126.556H34.2219V110.974H2.01529L2.03813 126.556Z" fill="#1E212A"/>
<path d="M136.712 110.592H88.1661V126.938H136.712V110.592Z" fill="#1E212A"/>
<path d="M136.712 127.319H88.1661C88.0651 127.319 87.9683 127.279 87.8969 127.208C87.8255 127.136 87.7854 127.039 87.7854 126.938V110.592C87.7854 110.491 87.8255 110.394 87.8969 110.322C87.9683 110.251 88.0651 110.211 88.1661 110.211H136.712C136.813 110.211 136.91 110.251 136.981 110.322C137.053 110.394 137.093 110.491 137.093 110.592V126.938C137.093 127.039 137.053 127.136 136.981 127.208C136.91 127.279 136.813 127.319 136.712 127.319ZM88.5468 126.556H136.331V110.974H88.5468V126.556Z" fill="#171920"/>
<path d="M219.581 110.592H185.768V126.938H219.581V110.592Z" fill="#1E212A"/>
<path d="M219.619 127.319H185.768C185.667 127.319 185.57 127.279 185.499 127.208C185.427 127.136 185.387 127.039 185.387 126.938V110.592C185.387 110.491 185.427 110.394 185.499 110.322C185.57 110.251 185.667 110.211 185.768 110.211H219.619C219.72 110.211 219.817 110.251 219.888 110.322C219.96 110.394 220 110.491 220 110.592V126.938C220 127.039 219.96 127.136 219.888 127.208C219.817 127.279 219.72 127.319 219.619 127.319ZM186.187 126.556H219.239V110.974H186.118L186.187 126.556Z" fill="#1E212A"/>
<path d="M72.1084 129.273H23.5625V145.619H72.1084V129.273Z" fill="#1E212A"/>
<path d="M72.1008 146H23.5625C23.4615 146 23.3647 145.96 23.2933 145.889C23.2219 145.817 23.1818 145.72 23.1818 145.619V129.273C23.1818 129.172 23.2219 129.075 23.2933 129.003C23.3647 128.932 23.4615 128.891 23.5625 128.891H72.1008C72.2018 128.891 72.2986 128.932 72.37 129.003C72.4414 129.075 72.4815 129.172 72.4815 129.273V145.619C72.4815 145.72 72.4414 145.817 72.37 145.889C72.2986 145.96 72.2018 146 72.1008 146ZM23.9431 145.237H71.7201V129.655H23.9431V145.237Z" fill="#1E212A"/>
<path d="M122.786 129.273H74.2404V145.619H122.786V129.273Z" fill="#1E212A"/>
<path d="M122.786 146H74.2402C74.1392 146 74.0424 145.96 73.971 145.889C73.8996 145.817 73.8595 145.72 73.8595 145.619V129.273C73.8595 129.172 73.8996 129.075 73.971 129.003C74.0424 128.932 74.1392 128.891 74.2402 128.891H122.786C122.887 128.891 122.984 128.932 123.055 129.003C123.127 129.075 123.167 129.172 123.167 129.273V145.619C123.167 145.72 123.127 145.817 123.055 145.889C122.984 145.96 122.887 146 122.786 146ZM74.6209 145.237H122.405V129.655H74.6209V145.237Z" fill="#171920"/>
<path d="M173.464 129.273H124.918V145.619H173.464V129.273Z" fill="#1E212A"/>
<path d="M173.464 146H124.918C124.817 146 124.72 145.96 124.649 145.889C124.577 145.817 124.537 145.72 124.537 145.619V129.273C124.539 129.172 124.58 129.077 124.651 129.005C124.722 128.934 124.818 128.893 124.918 128.891H173.464C173.565 128.891 173.662 128.932 173.733 129.003C173.805 129.075 173.845 129.172 173.845 129.273V145.619C173.845 145.72 173.805 145.817 173.733 145.889C173.662 145.96 173.565 146 173.464 146ZM125.299 145.237H173.083V129.655H125.299V145.237Z" fill="#1E212A"/>
<path d="M210.041 129.273H175.604V145.619H210.041V129.273Z" fill="#1E212A"/>
<path d="M210.041 146H175.604C175.503 146 175.406 145.96 175.334 145.889C175.263 145.817 175.223 145.72 175.223 145.619V129.273C175.223 129.172 175.263 129.075 175.334 129.003C175.406 128.932 175.503 128.891 175.604 128.891H210.041C210.141 128.893 210.237 128.934 210.308 129.005C210.379 129.077 210.42 129.172 210.422 129.273V145.619C210.422 145.72 210.382 145.817 210.31 145.889C210.239 145.96 210.142 146 210.041 146ZM175.984 145.237H209.66V129.655H175.984V145.237Z" fill="#1E212A"/>
<path d="M199.385 70.3745L162.322 38.95L151.789 51.4292L188.852 82.8537L199.385 70.3745Z" fill="#1E212A"/>
<path d="M188.867 83.1892C188.785 83.189 188.707 83.1592 188.646 83.1053L151.582 51.6883C151.546 51.6588 151.517 51.6226 151.495 51.5816C151.473 51.5407 151.46 51.4959 151.456 51.4498C151.452 51.4037 151.457 51.3572 151.47 51.313C151.484 51.2688 151.506 51.2278 151.536 51.1923L162.074 38.7155C162.102 38.6798 162.138 38.6504 162.179 38.6294C162.219 38.6084 162.264 38.5961 162.31 38.5934C162.355 38.5885 162.4 38.5927 162.443 38.6059C162.486 38.619 162.526 38.6407 162.561 38.6697L199.625 70.0943C199.695 70.1537 199.739 70.2379 199.747 70.3292C199.756 70.4205 199.728 70.5115 199.671 70.5827L189.164 83.0671C189.104 83.1367 189.019 83.1804 188.928 83.1892H188.867ZM152.32 51.3754L188.867 82.3498L198.948 70.3996L162.378 39.4404L152.32 51.3754Z" fill="#231F20"/>
<path d="M82.7221 147.962H34.1761V164.307H82.7221V147.962Z" fill="#1E212A"/>
<path d="M82.7223 164.689H34.1763C34.0754 164.689 33.9786 164.648 33.9072 164.577C33.8358 164.505 33.7957 164.408 33.7957 164.307V147.961C33.7957 147.86 33.8358 147.763 33.9072 147.692C33.9786 147.62 34.0754 147.58 34.1763 147.58H82.7223C82.8233 147.58 82.9201 147.62 82.9915 147.692C83.0629 147.763 83.103 147.86 83.103 147.961V164.307C83.101 164.408 83.0603 164.504 82.9893 164.575C82.9183 164.646 82.8226 164.687 82.7223 164.689ZM34.557 163.926H82.3416V148.343H34.557V163.926Z" fill="#1E212A"/>
<path d="M133.4 147.962H84.854V164.307H133.4V147.962Z" fill="#1E212A"/>
<path d="M133.4 164.689H84.8541C84.7537 164.687 84.658 164.646 84.587 164.575C84.5161 164.504 84.4753 164.408 84.4734 164.307V147.961C84.4734 147.86 84.5135 147.763 84.5849 147.692C84.6563 147.62 84.7531 147.58 84.8541 147.58H133.4C133.501 147.58 133.598 147.62 133.669 147.692C133.741 147.763 133.781 147.86 133.781 147.961V164.307C133.781 164.408 133.741 164.505 133.669 164.577C133.598 164.648 133.501 164.689 133.4 164.689ZM85.2348 163.926H133.019V148.343H85.2348V163.926Z" fill="#1E212A"/>
<path d="M184.085 147.962H135.539V164.307H184.085V147.962Z" fill="#1E212A"/>
<path d="M184.085 164.689H135.539C135.438 164.689 135.341 164.648 135.27 164.577C135.199 164.505 135.159 164.408 135.159 164.307V147.961C135.159 147.86 135.199 147.763 135.27 147.692C135.341 147.62 135.438 147.58 135.539 147.58H184.085C184.186 147.58 184.283 147.62 184.354 147.692C184.426 147.763 184.466 147.86 184.466 147.961V164.307C184.464 164.408 184.423 164.504 184.352 164.575C184.281 164.646 184.186 164.687 184.085 164.689ZM135.92 163.926H183.704V148.343H135.92V163.926Z" fill="#1E212A"/>
<path d="M174.126 51.1465C174.058 51.3678 173.989 51.5968 173.913 51.8181C173.266 53.6648 171.972 55.4504 172.352 57.3658C172.579 58.2438 173.015 59.0532 173.624 59.7238C176.266 62.9975 180.172 65.5005 184.542 64.8824C186.545 64.6 188.501 63.2188 188.905 61.2348C189.27 59.4491 188.357 57.6634 187.321 56.1677C185.163 53.2271 182.524 50.673 179.517 48.613C178.619 47.9796 177.53 47.3768 176.472 47.6668C176.07 47.8105 175.704 48.0398 175.399 48.3389C175.094 48.6379 174.857 48.9996 174.705 49.399C174.466 49.965 174.272 50.5494 174.126 51.1465Z" fill="#FFB9B9"/>
<path d="M183.233 65.3249C179.692 65.3249 176.152 63.4171 173.335 59.9832C172.693 59.2635 172.233 58.3998 171.995 57.4649C171.698 55.9845 172.33 54.5957 172.931 53.2602C173.159 52.7642 173.395 52.2453 173.571 51.734C173.647 51.5203 173.708 51.299 173.776 51.0777L173.852 50.8107C173.986 50.2895 174.159 49.7793 174.37 49.2844C174.547 48.84 174.816 48.4385 175.16 48.1068C175.504 47.7752 175.915 47.521 176.365 47.3614C177.598 47.0257 178.794 47.7201 179.7 48.3611C182.737 50.4472 185.405 53.0262 187.595 55.9921C188.494 57.3047 189.651 59.2811 189.232 61.3339C188.814 63.3866 186.91 64.9281 184.58 65.2562C184.133 65.3122 183.683 65.3351 183.233 65.3249ZM177.042 47.9414C176.881 47.9429 176.72 47.9634 176.563 48.0024C176.216 48.1354 175.902 48.34 175.639 48.603C175.377 48.8659 175.173 49.1813 175.04 49.5286C174.842 49.9956 174.681 50.478 174.56 50.9709L174.477 51.2304C174.416 51.4669 174.34 51.7035 174.263 51.9324C174.073 52.459 173.837 52.9931 173.609 53.5044C173.022 54.7941 172.467 56.0227 172.718 57.3199C172.936 58.1398 173.346 58.8958 173.913 59.5253C176.921 63.2493 180.766 65.0883 184.519 64.5618C186.194 64.3252 188.182 63.1653 188.585 61.1889C188.951 59.4032 187.885 57.5947 187.062 56.3889C184.925 53.4847 182.315 50.9617 179.342 48.9258C178.692 48.3723 177.891 48.0291 177.042 47.9414Z" fill="#231F20"/>
</svg>
