<svg width="172" height="143" viewBox="0 0 172 143" fill="none" xmlns="http://www.w3.org/2000/svg">
<path d="M84.6154 103.382L154.45 103.463C155.444 103.412 156.394 103.032 157.148 102.381C157.902 101.73 158.418 100.847 158.614 99.8708L171.604 31.2946C171.718 30.8674 171.732 30.4195 171.644 29.986C171.556 29.5526 171.369 29.1455 171.097 28.7967C170.825 28.4478 170.476 28.1668 170.077 27.9758C169.678 27.7847 169.241 27.6888 168.798 27.6956L98.9643 27.6148C97.9697 27.6656 97.0203 28.0464 96.2662 28.6969C95.5122 29.3474 94.9963 30.2307 94.8002 31.2071L81.8102 99.7833C81.6956 100.211 81.6818 100.658 81.7697 101.092C81.8576 101.525 82.0448 101.932 82.3167 102.281C82.5886 102.63 82.9377 102.911 83.3366 103.102C83.7354 103.293 84.1732 103.389 84.6154 103.382Z" fill="#EAEAEA"/>
<path d="M154.429 103.799L84.5951 103.719C84.1249 103.727 83.6586 103.631 83.2304 103.437C82.8021 103.242 82.4226 102.955 82.1195 102.595C81.7991 102.198 81.5722 101.733 81.4558 101.236C81.3393 100.738 81.3362 100.221 81.4468 99.7228L94.4705 31.1398C94.6854 30.0891 95.2434 29.1396 96.0569 28.4406C96.8703 27.7416 97.8931 27.3328 98.9642 27.2785L168.798 27.3592C169.263 27.3547 169.724 27.4523 170.147 27.6453C170.57 27.8382 170.946 28.1218 171.247 28.4759C171.567 28.8751 171.794 29.3409 171.91 29.8392C172.027 30.3374 172.03 30.8554 171.92 31.3551L158.943 99.9381C158.727 100.992 158.166 101.944 157.349 102.643C156.531 103.343 155.504 103.749 154.429 103.799ZM84.5951 103.046L154.429 103.127C155.346 103.079 156.221 102.727 156.915 102.126C157.61 101.525 158.084 100.711 158.264 99.8102L171.247 31.234C171.34 30.832 171.341 30.4143 171.252 30.0115C171.162 29.6088 170.984 29.2312 170.729 28.9064C170.487 28.6258 170.186 28.402 169.848 28.2509C169.509 28.0997 169.142 28.025 168.771 28.0319L98.9373 27.9512C98.0204 27.9992 97.1458 28.3513 96.4514 28.9519C95.757 29.5525 95.2825 30.3673 95.1028 31.2677L82.1397 99.8439C82.0473 100.246 82.0459 100.664 82.1355 101.066C82.2252 101.469 82.4035 101.846 82.6577 102.171C82.8997 102.452 83.2006 102.676 83.5389 102.827C83.8773 102.978 84.2447 103.053 84.6152 103.046H84.5951Z" fill="#231F20"/>
<path d="M170.386 38.0755L93.5824 37.9813C93.4932 37.9813 93.4077 37.9459 93.3446 37.8828C93.2815 37.8197 93.2461 37.7342 93.2461 37.645C93.2478 37.5563 93.2838 37.4717 93.3465 37.409C93.4092 37.3463 93.4938 37.3103 93.5824 37.3086L170.393 37.4028C170.482 37.4028 170.567 37.4382 170.63 37.5013C170.694 37.5644 170.729 37.6499 170.729 37.7391C170.727 37.829 170.69 37.9145 170.626 37.9774C170.562 38.0403 170.476 38.0755 170.386 38.0755Z" fill="#231F20"/>
<path d="M165.233 33.7407C165.969 32.9594 166.045 31.8344 165.401 31.2278C164.758 30.6213 163.639 30.7629 162.903 31.5442C162.166 32.3255 162.091 33.4506 162.734 34.0571C163.377 34.6637 164.496 34.522 165.233 33.7407Z" fill="#D1D3D4"/>
<path d="M159.116 33.7323C159.853 32.951 159.928 31.8259 159.285 31.2194C158.641 30.6129 157.522 30.7545 156.786 31.5358C156.049 32.3171 155.974 33.4422 156.617 34.0487C157.261 34.6552 158.379 34.5136 159.116 33.7323Z" fill="#D1D3D4"/>
<path d="M152.999 33.7239C153.736 32.9426 153.811 31.8175 153.168 31.211C152.524 30.6044 151.406 30.7461 150.669 31.5274C149.933 32.3087 149.857 33.4338 150.501 34.0403C151.144 34.6468 152.263 34.5052 152.999 33.7239Z" fill="#D1D3D4"/>
<path d="M134.066 43.363L127.467 78.1893L155.452 78.2229L162.051 43.3966L134.066 43.363Z" fill="white"/>
<path d="M134.06 43.363H162.051L155.458 78.1893H127.467L134.06 43.363ZM134.06 42.6903C133.901 42.6874 133.747 42.7405 133.624 42.8401C133.501 42.9398 133.417 43.0797 133.387 43.2352L126.794 78.0615C126.775 78.1598 126.778 78.2612 126.804 78.3583C126.829 78.4553 126.875 78.5454 126.94 78.6222C127.004 78.6989 127.085 78.7602 127.176 78.8017C127.267 78.8432 127.367 78.8638 127.467 78.862H155.452C155.611 78.8646 155.766 78.8106 155.889 78.7095C156.012 78.6085 156.096 78.4671 156.124 78.3104L162.717 43.4841C162.735 43.3874 162.732 43.2879 162.708 43.1926C162.683 43.0973 162.638 43.0085 162.576 42.9325C162.513 42.8565 162.433 42.7955 162.344 42.7536C162.254 42.7117 162.157 42.6901 162.058 42.6903H134.073H134.06Z" fill="#231F20"/>
<path d="M153.965 52.4984C153.91 52.9513 153.956 53.4107 154.1 53.8438C154.227 54.0965 154.381 54.3354 154.557 54.5569C155.112 55.4046 155.432 56.3841 155.485 57.3957C155.56 58.0803 155.467 58.7727 155.216 59.4139C155.014 59.8848 154.692 60.3019 154.503 60.7593C154.279 61.3155 154.243 61.93 154.402 62.5083C154.557 63.0532 154.866 63.6452 154.584 64.1296C154.473 64.2878 154.321 64.4132 154.145 64.4925C153.968 64.5718 153.774 64.6022 153.582 64.5803C153.198 64.5314 152.821 64.4389 152.458 64.3045C150.406 63.7125 147.823 63.995 145.671 63.847L137.598 63.282C136.501 63.2012 135.143 62.9254 134.853 61.8626C134.611 60.9678 135.486 59.4744 135.835 58.6335C136.374 57.1837 137.081 55.8019 137.941 54.5165C138.438 53.9293 138.86 53.2831 139.199 52.5926C139.35 52.1352 139.478 51.6704 139.582 51.2001C140.044 49.847 140.843 48.6339 141.903 47.6751C142.588 46.9676 143.375 46.3668 144.238 45.8924C147.164 44.3721 152.028 45.4013 153.36 48.637C153.84 49.8647 154.047 51.1826 153.965 52.4984Z" fill="#392C27"/>
<path d="M153.649 64.9368H153.562C153.237 64.9097 152.919 64.8396 152.613 64.7283L152.364 64.6543C150.906 64.3263 149.411 64.1929 147.917 64.2574C147.117 64.2574 146.37 64.2574 145.644 64.2036L137.571 63.6385C135.788 63.5174 134.793 62.9658 134.524 61.9702C134.295 61.136 134.826 60.0059 135.25 59.0977C135.351 58.8824 135.445 58.6874 135.519 58.5192C136.067 57.0436 136.785 55.637 137.659 54.3282C137.766 54.1735 137.881 54.0255 137.995 53.8775C138.35 53.4529 138.647 52.9822 138.876 52.4782C138.975 52.2085 139.053 51.9319 139.112 51.6508C139.152 51.4692 139.199 51.2943 139.246 51.1126C139.721 49.7025 140.553 48.4395 141.661 47.4464C142.366 46.7089 143.181 46.0849 144.076 45.5964C145.02 45.1576 146.041 44.912 147.081 44.8738C148.121 44.8357 149.158 45.0059 150.131 45.3744C150.905 45.623 151.619 46.031 152.226 46.572C152.833 47.1131 153.32 47.7753 153.656 48.516C154.147 49.7901 154.353 51.1562 154.261 52.5186V52.5791C154.2 52.8574 154.206 53.1461 154.277 53.4219C154.348 53.6977 154.483 53.9528 154.671 54.1667L154.793 54.3416C155.387 55.2398 155.73 56.2801 155.788 57.3554C155.869 58.1024 155.765 58.8577 155.485 59.5552C155.379 59.7868 155.257 60.0115 155.122 60.2279C154.991 60.4441 154.874 60.6689 154.772 60.9006C154.581 61.3852 154.553 61.9188 154.692 62.4209C154.692 62.5285 154.759 62.6362 154.793 62.7438C154.914 62.9862 154.98 63.2522 154.987 63.523C154.994 63.7939 154.941 64.063 154.833 64.3112C154.705 64.5071 154.529 64.6671 154.322 64.7765C154.114 64.8859 153.883 64.9411 153.649 64.9368ZM147.325 45.5628C146.319 45.5536 145.325 45.7842 144.426 46.2355C143.591 46.691 142.831 47.2718 142.173 47.9576C141.15 48.8659 140.383 50.0253 139.946 51.3212C139.892 51.4893 139.858 51.6575 139.818 51.8257C139.749 52.1386 139.659 52.4465 139.549 52.7473C139.3 53.3112 138.971 53.8367 138.573 54.308L138.244 54.7453C137.408 56.0089 136.717 57.3629 136.185 58.7815C136.111 58.9632 136.01 59.165 135.91 59.3937C135.546 60.1539 135.055 61.2033 135.237 61.7886C135.418 62.3738 136.239 62.8447 137.665 62.9456L145.738 63.5107C146.444 63.5578 147.184 63.5645 147.965 63.5645C149.524 63.4981 151.085 63.6406 152.606 63.9883L152.869 64.0691C153.121 64.1578 153.383 64.2165 153.649 64.244C153.775 64.2604 153.904 64.2437 154.022 64.1953C154.14 64.1469 154.243 64.0686 154.322 63.9681C154.47 63.7192 154.322 63.356 154.221 62.9725C154.18 62.8514 154.14 62.7304 154.106 62.616C153.928 61.9641 153.968 61.2719 154.221 60.645C154.332 60.3823 154.462 60.1282 154.611 59.8848C154.732 59.6762 154.846 59.4812 154.941 59.2793C155.169 58.6818 155.252 58.0385 155.183 57.4025C155.138 56.4442 154.839 55.5152 154.315 54.7116L154.194 54.5502C154.047 54.3612 153.923 54.1557 153.824 53.938C153.663 53.4855 153.606 53.0029 153.656 52.5253L154.006 52.4782H153.662C153.752 51.2172 153.564 49.9519 153.111 48.7716C152.811 48.1186 152.378 47.5356 151.839 47.0605C151.301 46.5854 150.668 46.2287 149.983 46.0135C149.131 45.7079 148.231 45.5575 147.325 45.5695V45.5628Z" fill="#231F20"/>
<path d="M129.371 68.1322L127.467 78.2229H155.459L157.362 68.1659C155.055 65.401 151.18 64.4458 147.769 64.1296C146.424 64.0085 145.213 63.9749 144.157 63.9749H143.908C142.919 63.9749 141.776 63.9749 140.545 64.1161H140.484C136.939 64.4054 132.721 65.3741 129.371 68.1322Z" fill="#FF7E7E"/>
<path d="M140.033 66.0468L140.888 75.4648L141.143 78.2095H141.776L143.067 75.4581L147.473 66.0939C145.805 65.5086 141.924 65.5087 140.033 66.0468Z" fill="#231F20"/>
<path d="M147.487 66.0603C147.028 66.7036 146.423 67.2283 145.721 67.591C145.019 67.9537 144.241 68.1438 143.451 68.1457C142.734 68.1949 142.02 68.02 141.408 67.6451C140.796 67.2702 140.315 66.7139 140.033 66.0535L141.944 57.8532H148.671L147.487 66.0603Z" fill="#FAB8B7"/>
<path d="M143.457 68.4888C142.669 68.5347 141.886 68.3357 141.215 67.919C140.544 67.5023 140.018 66.8883 139.71 66.1612C139.69 66.1 139.69 66.034 139.71 65.9728L141.621 57.7792C141.639 57.7033 141.682 57.6355 141.743 57.5868C141.804 57.538 141.879 57.511 141.957 57.5101H148.684C148.734 57.5095 148.784 57.5201 148.829 57.5411C148.875 57.562 148.915 57.5928 148.947 57.6312C148.98 57.6684 149.004 57.7124 149.018 57.7601C149.032 57.8078 149.035 57.8579 149.027 57.907L147.837 66.1074C147.831 66.1552 147.815 66.2011 147.79 66.2419C147.301 66.9365 146.652 67.5032 145.898 67.8943C145.144 68.2854 144.307 68.4893 143.457 68.4888ZM140.397 66.0267C140.67 66.5935 141.107 67.0653 141.652 67.3807C142.196 67.6962 142.823 67.8408 143.451 67.7959C144.17 67.7935 144.878 67.624 145.52 67.3005C146.162 66.9771 146.721 66.5088 147.151 65.9325L148.267 58.2097H142.213L140.397 66.0267Z" fill="#231F20"/>
<path d="M148.012 61.3715C147.353 62.1413 146.542 62.7666 145.63 63.208C144.157 63.9681 141.998 64.8158 140.43 64.5534L141.352 61.0889C142.536 61.2309 143.733 61.2309 144.917 61.0889C146.007 61.0442 147.084 60.8379 148.113 60.4768C148.294 60.4364 148.281 61.0419 148.012 61.3715Z" fill="#231F20"/>
<path d="M141.036 64.9436C140.81 64.9436 140.585 64.9256 140.363 64.8897C140.316 64.8828 140.272 64.866 140.233 64.8405C140.193 64.815 140.16 64.7813 140.134 64.7417C140.108 64.7027 140.091 64.6583 140.084 64.6118C140.077 64.5652 140.08 64.5177 140.094 64.4727L141.015 61.0082C141.036 60.9292 141.085 60.8606 141.154 60.8159C141.222 60.7711 141.305 60.7534 141.385 60.766C142.543 60.9098 143.713 60.9098 144.87 60.766C145.929 60.725 146.976 60.5278 147.978 60.1808C148.06 60.1473 148.151 60.1424 148.237 60.1667C148.322 60.1911 148.397 60.2434 148.449 60.3153C148.534 60.5202 148.561 60.7445 148.528 60.9638C148.495 61.1831 148.402 61.3892 148.261 61.5598C147.575 62.3691 146.727 63.0248 145.772 63.4838C144.682 64.069 142.711 64.9436 141.036 64.9436ZM140.854 64.2709C142.475 64.3314 144.594 63.3627 145.476 62.9254C146.349 62.5132 147.124 61.9192 147.749 61.1831C147.791 61.1201 147.825 61.0524 147.85 60.9813C146.902 61.261 145.924 61.428 144.937 61.4791C143.82 61.6022 142.692 61.6022 141.574 61.4791L140.854 64.2709Z" fill="#231F20"/>
<path d="M150.924 78.566H150.817C150.773 78.5523 150.733 78.53 150.698 78.5005C150.663 78.4709 150.635 78.4347 150.614 78.394C150.593 78.3533 150.581 78.3088 150.578 78.2633C150.574 78.2177 150.58 78.172 150.595 78.1287L153.286 69.6794C153.3 69.6353 153.322 69.5943 153.352 69.5589C153.382 69.5235 153.419 69.4944 153.46 69.4731C153.501 69.4519 153.546 69.439 153.593 69.4351C153.639 69.4313 153.685 69.4366 153.73 69.4507C153.774 69.4649 153.815 69.4876 153.85 69.5175C153.886 69.5475 153.915 69.5841 153.936 69.6254C153.957 69.6666 153.97 69.7116 153.974 69.7578C153.978 69.804 153.972 69.8505 153.958 69.8947L151.267 78.344C151.242 78.4129 151.194 78.4716 151.133 78.5116C151.071 78.5516 150.998 78.5707 150.924 78.566Z" fill="#231F20"/>
<path d="M131.994 78.5324C131.903 78.5271 131.817 78.4861 131.755 78.4182C131.694 78.3502 131.661 78.2608 131.665 78.1691L132.176 69.7131C132.201 69.6409 132.249 69.5788 132.312 69.5363C132.376 69.4938 132.451 69.4733 132.528 69.4779C132.604 69.4825 132.677 69.5119 132.735 69.5617C132.793 69.6114 132.833 69.6788 132.849 69.7535L132.337 78.2095C132.332 78.2969 132.294 78.3791 132.23 78.4391C132.166 78.4992 132.082 78.5325 131.994 78.5324Z" fill="#231F20"/>
<path d="M141.426 55.9696C141.567 54.0457 139.347 53.568 139.038 55.8351C138.898 56.551 138.97 57.2923 139.246 57.9676C139.302 58.1012 139.386 58.2215 139.492 58.3205C139.598 58.4194 139.724 58.4949 139.861 58.5419C139.998 58.5889 140.144 58.6064 140.288 58.5932C140.433 58.58 140.573 58.5364 140.699 58.4654" fill="#FAB8B7"/>
<path d="M140.201 58.9497C140.076 58.9522 139.951 58.934 139.831 58.8959C139.638 58.8361 139.459 58.7363 139.306 58.6031C139.153 58.4699 139.029 58.3061 138.943 58.1223C138.633 57.3857 138.544 56.5744 138.688 55.788C138.876 54.4426 139.69 53.9111 140.417 53.9851C140.862 54.076 141.253 54.3391 141.505 54.7171C141.757 55.0951 141.849 55.5574 141.762 56.0032C141.736 56.0754 141.687 56.137 141.623 56.1785C141.558 56.22 141.482 56.2392 141.405 56.2331C141.329 56.227 141.256 56.1959 141.199 56.1446C141.142 56.0934 141.104 56.0248 141.089 55.9494C141.143 55.1758 140.76 54.7251 140.349 54.6847C139.939 54.6444 139.515 54.9336 139.387 55.8889C139.256 56.5335 139.317 57.2024 139.562 57.8128C139.609 57.9112 139.674 57.9993 139.755 58.072C139.836 58.1448 139.931 58.2007 140.033 58.2367C140.117 58.2619 140.206 58.2689 140.293 58.2573C140.38 58.2457 140.463 58.2157 140.538 58.1694C140.619 58.1254 140.715 58.1148 140.804 58.1399C140.893 58.165 140.969 58.2239 141.015 58.3039C141.059 58.3852 141.068 58.4802 141.041 58.5684C141.015 58.6565 140.955 58.7307 140.874 58.7748C140.669 58.891 140.437 58.9514 140.201 58.9497Z" fill="#231F20"/>
<path d="M150.131 55.983C150.716 54.0591 153.118 53.5882 152.573 55.8552C152.409 56.635 152.061 57.3642 151.557 57.981C151.052 58.5326 150.366 58.795 149.909 58.4788" fill="#FAB8B7"/>
<path d="M150.393 58.9632C150.153 58.97 149.917 58.8992 149.72 58.7613C149.645 58.7087 149.594 58.6285 149.579 58.5383C149.563 58.4481 149.584 58.3553 149.636 58.2804C149.689 58.2054 149.769 58.1545 149.859 58.1387C149.949 58.1229 150.042 58.1436 150.117 58.1963C150.393 58.3846 150.904 58.1963 151.308 57.7456C151.773 57.1729 152.094 56.4969 152.243 55.7745C152.297 55.5458 152.438 54.8125 152.034 54.6982C151.631 54.5838 150.776 55.0749 150.467 56.084C150.453 56.1281 150.431 56.1692 150.402 56.2047C150.372 56.2403 150.336 56.2697 150.295 56.2912C150.212 56.3348 150.116 56.3437 150.026 56.316C149.937 56.2884 149.863 56.2264 149.819 56.1438C149.776 56.0612 149.767 55.9646 149.794 55.8754C150.211 54.53 151.395 53.8102 152.203 54.0322C152.458 54.0995 153.265 54.4425 152.875 55.936C152.702 56.7723 152.325 57.5532 151.779 58.2097C151.61 58.4219 151.401 58.598 151.163 58.7274C150.924 58.8569 150.663 58.937 150.393 58.9632Z" fill="#231F20"/>
<path d="M141.493 51.745L140.437 57.3218C139.932 60.0126 141.628 62.1653 144.224 62.172H144.769C146.11 62.1036 147.39 61.5913 148.409 60.7157C149.427 59.8402 150.125 58.651 150.393 57.3352C150.649 55.9898 151.577 53.891 150.595 52.8819C149.027 51.2674 147.507 50.191 146.639 48.0047C144.648 48.4218 141.493 48.9734 141.493 51.745Z" fill="#FAB8B7"/>
<path d="M144.776 62.5151H144.224C143.607 62.5289 142.994 62.4037 142.432 62.1487C141.869 61.8937 141.371 61.5154 140.975 61.0418C140.556 60.5147 140.26 59.9001 140.11 59.2434C139.96 58.5868 139.959 57.9048 140.107 57.2477L141.157 51.7113C141.157 48.7783 144.291 48.1325 146.357 47.7087L146.579 47.6616C146.658 47.6447 146.74 47.6564 146.812 47.6946C146.883 47.7327 146.939 47.7949 146.969 47.8701C147.605 49.3207 148.576 50.6001 149.801 51.6037C150.144 51.9333 150.474 52.2764 150.85 52.6329C151.752 53.5545 151.321 55.1354 150.978 56.4068C150.884 56.7567 150.797 57.0796 150.743 57.389C150.459 58.7849 149.718 60.0466 148.638 60.9748C147.557 61.903 146.199 62.445 144.776 62.5151ZM146.431 48.3881C144.473 48.7985 141.843 49.3703 141.843 51.7517C141.846 51.774 141.846 51.7967 141.843 51.8189L140.787 57.389C140.658 57.9458 140.656 58.5242 140.781 59.0819C140.905 59.6396 141.153 60.1622 141.506 60.6113C141.84 61.0059 142.258 61.3204 142.73 61.5312C143.201 61.742 143.714 61.8437 144.231 61.8289H144.783C146.042 61.7627 147.244 61.2792 148.199 60.4547C149.154 59.6301 149.808 58.5114 150.057 57.2746C150.117 56.9652 150.211 56.6019 150.312 56.2387C150.622 55.0816 150.985 53.7698 150.353 53.1307C150.003 52.7675 149.68 52.458 149.323 52.1217C148.104 51.1028 147.118 49.8342 146.431 48.4016V48.3881Z" fill="#231F20"/>
<path d="M145.26 58.129C145.011 58.1281 144.761 58.1124 144.513 58.0819C144.464 58.083 144.415 58.0734 144.37 58.0537C144.324 58.0341 144.284 58.0049 144.251 57.9681C144.218 57.9314 144.193 57.8879 144.178 57.8407C144.164 57.7935 144.159 57.7437 144.166 57.6947C144.172 57.6457 144.189 57.5987 144.215 57.5568C144.242 57.5149 144.277 57.4792 144.318 57.4521C144.359 57.425 144.406 57.4071 144.455 57.3997C144.504 57.3923 144.553 57.3956 144.601 57.4092C145.006 57.4506 145.414 57.4506 145.819 57.4092C145.945 56.3324 145.881 55.2418 145.63 54.1869C145.614 54.096 145.635 54.0025 145.688 53.9269C145.741 53.8513 145.822 53.7997 145.913 53.7833C146.003 53.7694 146.096 53.791 146.171 53.8437C146.246 53.8963 146.298 53.9759 146.316 54.0659C146.444 54.7857 146.841 57.194 146.357 57.8532C146.312 57.918 146.254 57.9725 146.187 58.0131C146.12 58.0537 146.045 58.0795 145.967 58.0887C145.732 58.1178 145.496 58.1312 145.26 58.129Z" fill="#231F20"/>
<path d="M126.72 50.6014H97.982C97.9288 50.6085 97.8746 50.6042 97.8232 50.5887C97.7717 50.5732 97.7242 50.5469 97.6838 50.5116C97.6433 50.4762 97.6109 50.4326 97.5887 50.3837C97.5665 50.3348 97.5551 50.2817 97.5551 50.228C97.5551 50.1743 97.5665 50.1212 97.5887 50.0723C97.6109 50.0234 97.6433 49.9798 97.6838 49.9444C97.7242 49.9091 97.7717 49.8828 97.8232 49.8673C97.8746 49.8518 97.9288 49.8475 97.982 49.8547L126.72 49.8883C126.811 49.9004 126.894 49.945 126.954 50.0137C127.014 50.0823 127.047 50.1704 127.047 50.2616C127.047 50.3529 127.014 50.441 126.954 50.5096C126.894 50.5783 126.811 50.6228 126.72 50.635V50.6014Z" fill="#D1D3D4"/>
<path d="M125.745 55.7274H97.0132C96.96 55.7346 96.9059 55.7303 96.8544 55.7148C96.803 55.6993 96.7555 55.673 96.715 55.6377C96.6746 55.6023 96.6422 55.5587 96.62 55.5098C96.5978 55.4609 96.5863 55.4078 96.5863 55.3541C96.5863 55.3004 96.5978 55.2473 96.62 55.1984C96.6422 55.1494 96.6746 55.1058 96.715 55.0705C96.7555 55.0351 96.803 55.0088 96.8544 54.9933C96.9059 54.9779 96.96 54.9736 97.0132 54.9807L125.751 55.0143C125.842 55.0265 125.925 55.0711 125.985 55.1397C126.045 55.2084 126.078 55.2965 126.078 55.3877C126.078 55.4789 126.045 55.567 125.985 55.6357C125.925 55.7044 125.842 55.7489 125.751 55.7611L125.745 55.7274Z" fill="#D1D3D4"/>
<path d="M124.776 60.8535L96.038 60.8199C95.9392 60.8181 95.8451 60.7776 95.7759 60.7072C95.7067 60.6367 95.668 60.5419 95.668 60.4432C95.668 60.345 95.707 60.2509 95.7763 60.1815C95.8457 60.1121 95.9398 60.0732 96.038 60.0732L124.776 60.1068C124.829 60.0996 124.884 60.1039 124.935 60.1194C124.986 60.1349 125.034 60.1612 125.074 60.1966C125.115 60.2319 125.147 60.2755 125.169 60.3244C125.192 60.3733 125.203 60.4264 125.203 60.4802C125.203 60.5339 125.192 60.587 125.169 60.6359C125.147 60.6848 125.115 60.7284 125.074 60.7637C125.034 60.7991 124.986 60.8254 124.935 60.8409C124.884 60.8564 124.829 60.8607 124.776 60.8535Z" fill="#D1D3D4"/>
<path d="M123.807 65.9795L95.0691 65.9392C95.0203 65.9401 94.9718 65.9312 94.9265 65.9129C94.8812 65.8946 94.84 65.8674 94.8055 65.8329C94.771 65.7983 94.7437 65.7572 94.7255 65.7119C94.7072 65.6666 94.6982 65.618 94.6992 65.5692C94.6983 65.52 94.7072 65.4712 94.7254 65.4255C94.7436 65.3799 94.7707 65.3383 94.8051 65.3032C94.8396 65.2681 94.8807 65.2403 94.926 65.2213C94.9713 65.2023 95.02 65.1925 95.0691 65.1925L123.807 65.2261C123.907 65.2261 124.003 65.2658 124.074 65.3364C124.144 65.4071 124.184 65.5029 124.184 65.6028C124.182 65.7022 124.142 65.797 124.072 65.8673C124.002 65.9376 123.907 65.9778 123.807 65.9795Z" fill="#D1D3D4"/>
<path d="M122.812 71.1325H102.55C102.459 71.1204 102.376 71.0758 102.316 71.0072C102.256 70.9385 102.223 70.8504 102.223 70.7592C102.223 70.668 102.256 70.5798 102.316 70.5112C102.376 70.4425 102.459 70.398 102.55 70.3858H122.812C122.902 70.398 122.985 70.4425 123.045 70.5112C123.105 70.5798 123.138 70.668 123.138 70.7592C123.138 70.8504 123.105 70.9385 123.045 71.0072C122.985 71.0758 122.902 71.1204 122.812 71.1325Z" fill="#D1D3D4"/>
<path d="M151.893 98.6599L89.1292 98.5859C89.0739 98.5869 89.0191 98.5754 88.969 98.5521C88.9189 98.5287 88.8747 98.4943 88.8399 98.4513C88.8042 98.4091 88.7784 98.3593 88.7644 98.3058C88.7504 98.2522 88.7487 98.1962 88.7592 98.1419L91.6115 83.0933C91.6284 83.009 91.6737 82.9329 91.7397 82.8779C91.8058 82.8228 91.8888 82.792 91.9748 82.7906L154.739 82.8646C154.794 82.864 154.849 82.8758 154.899 82.8991C154.949 82.9224 154.993 82.9566 155.028 82.9991C155.063 83.0421 155.088 83.0919 155.102 83.1452C155.115 83.1986 155.118 83.2542 155.109 83.3086L152.256 98.3571C152.24 98.4415 152.194 98.5175 152.128 98.5726C152.062 98.6277 151.979 98.6585 151.893 98.6599ZM89.5799 97.8392L151.584 97.9132L154.275 83.6113L92.264 83.5373L89.5799 97.8392Z" fill="#D1D3D4"/>
<path d="M153.615 88.3203L91.0532 88.2463C90.9999 88.2535 90.9458 88.2492 90.8943 88.2337C90.8429 88.2182 90.7954 88.1919 90.755 88.1565C90.7145 88.1212 90.6821 88.0776 90.6599 88.0287C90.6377 87.9798 90.6262 87.9267 90.6262 87.873C90.6262 87.8192 90.6377 87.7662 90.6599 87.7172C90.6821 87.6683 90.7145 87.6247 90.755 87.5894C90.7954 87.554 90.8429 87.5277 90.8943 87.5122C90.9458 87.4968 90.9999 87.4924 91.0532 87.4996L153.615 87.5736C153.706 87.5858 153.789 87.6303 153.849 87.699C153.909 87.7676 153.942 87.8557 153.942 87.947C153.942 88.0382 153.909 88.1263 153.849 88.1949C153.789 88.2636 153.706 88.3082 153.615 88.3203Z" fill="#D1D3D4"/>
<path d="M134.92 98.6397H134.853C134.756 98.6201 134.671 98.5634 134.616 98.4816C134.56 98.3998 134.539 98.2996 134.557 98.2024L137.403 83.1539C137.422 83.0571 137.479 82.9718 137.561 82.9164C137.643 82.8611 137.743 82.84 137.84 82.8579C137.937 82.8775 138.023 82.934 138.08 83.0155C138.136 83.097 138.159 83.1973 138.143 83.2951L135.29 98.3437C135.272 98.4279 135.225 98.5033 135.158 98.5571C135.091 98.611 135.007 98.6402 134.92 98.6397Z" fill="#D1D3D4"/>
<path d="M103.256 98.5994H103.189C103.091 98.5814 103.004 98.5252 102.947 98.4433C102.89 98.3613 102.868 98.2602 102.886 98.1621L105.738 83.1068C105.741 83.0532 105.756 83.0009 105.781 82.9533C105.806 82.9057 105.84 82.8641 105.883 82.8311C105.925 82.798 105.974 82.7745 106.026 82.7619C106.079 82.7494 106.133 82.7482 106.186 82.7583C106.238 82.7685 106.288 82.7898 106.332 82.8209C106.376 82.8519 106.413 82.892 106.44 82.9383C106.467 82.9847 106.484 83.0364 106.489 83.0898C106.495 83.1432 106.489 83.1972 106.472 83.2481L103.626 98.2967C103.609 98.3821 103.563 98.459 103.495 98.5142C103.428 98.5694 103.343 98.5995 103.256 98.5994Z" fill="#D1D3D4"/>
<path d="M50.4819 76.0635L120.316 76.1442C121.31 76.0961 122.26 75.7171 123.015 75.0675C123.769 74.4179 124.285 73.5349 124.48 72.5587L137.47 3.98244C137.847 1.9643 136.589 0.383431 134.665 0.383431L64.8308 0.302704C63.8401 0.34943 62.8932 0.724518 62.1393 1.36884C61.3853 2.01316 60.8673 2.89008 60.6667 3.86135L47.6767 72.4779C47.2999 74.449 48.5579 76.0635 50.4819 76.0635Z" fill="#EAEAEA"/>
<path d="M120.316 76.5142L50.4817 76.4335C50.0119 76.4444 49.5455 76.3497 49.1171 76.1565C48.6886 75.9632 48.309 75.6763 48.0062 75.3168C47.6856 74.9179 47.4587 74.4521 47.3423 73.9537C47.2259 73.4554 47.2229 72.9373 47.3335 72.4376L60.337 3.86137C60.5497 2.80957 61.1072 1.85875 61.9211 1.15938C62.735 0.460016 63.7588 0.0520332 64.8307 0L134.665 0.0807272C135.133 0.0660456 135.598 0.156308 136.026 0.344888C136.455 0.533469 136.835 0.815581 137.14 1.17052C137.461 1.56968 137.687 2.03551 137.804 2.53377C137.92 3.03203 137.923 3.55004 137.813 4.04972L124.83 72.6192C124.623 73.6804 124.065 74.6413 123.247 75.3477C122.428 76.054 121.396 76.4649 120.316 76.5142ZM50.4817 75.7608L120.316 75.8415C121.241 75.7937 122.123 75.4359 122.82 74.8257C123.516 74.2155 123.988 73.3885 124.157 72.478L137.14 3.91518C137.233 3.51419 137.234 3.09765 137.144 2.69606C137.055 2.29448 136.876 1.91804 136.622 1.59433C136.383 1.31077 136.082 1.08488 135.744 0.93347C135.405 0.78206 135.036 0.709027 134.665 0.719804L64.8307 0.639077C63.9142 0.688258 63.0401 1.04078 62.346 1.64117C61.6518 2.24156 61.177 3.05573 60.9962 3.95554L48.0062 72.5318C47.9154 72.9328 47.9147 73.3491 48.0043 73.7504C48.0939 74.1518 48.2714 74.5282 48.5242 74.8526C48.764 75.1358 49.0645 75.3614 49.4034 75.5128C49.7422 75.6642 50.1108 75.7374 50.4817 75.7272V75.7608Z" fill="#231F20"/>
<path d="M136.266 10.7567L59.4625 10.6692C59.3732 10.6692 59.2877 10.6338 59.2246 10.5707C59.1615 10.5076 59.1261 10.4221 59.1261 10.3328C59.1261 10.2436 59.1615 10.1581 59.2246 10.095C59.2877 10.0319 59.3732 9.99649 59.4625 9.99649L136.266 10.0839C136.355 10.0857 136.439 10.1217 136.502 10.1844C136.565 10.2471 136.601 10.3316 136.602 10.4203C136.602 10.5095 136.567 10.5951 136.504 10.6581C136.441 10.7212 136.355 10.7567 136.266 10.7567Z" fill="#231F20"/>
<path d="M131.101 6.42977C131.837 5.64848 131.913 4.52341 131.269 3.91687C130.626 3.31033 129.507 3.45201 128.771 4.2333C128.034 5.01459 127.959 6.13964 128.602 6.74618C129.246 7.35272 130.364 7.21106 131.101 6.42977Z" fill="#D1D3D4"/>
<path d="M124.984 6.4214C125.721 5.6401 125.796 4.51503 125.153 3.9085C124.509 3.30196 123.391 3.44363 122.654 4.22492C121.918 5.00622 121.842 6.13127 122.486 6.73781C123.129 7.34435 124.248 7.20269 124.984 6.4214Z" fill="#D1D3D4"/>
<path d="M118.867 6.41297C119.604 5.63168 119.679 4.50661 119.036 3.90007C118.393 3.29353 117.274 3.43521 116.537 4.2165C115.801 4.99779 115.725 6.12285 116.369 6.72939C117.012 7.33592 118.131 7.19426 118.867 6.41297Z" fill="#D1D3D4"/>
<path d="M99.9329 16.0509L93.3336 50.8772L121.325 50.9041L127.918 16.0845L99.9329 16.0509Z" fill="white"/>
<path d="M99.9395 16.0509H127.924L121.332 50.8772L93.3402 50.8436L99.9395 16.0509ZM99.9395 15.3782C99.7812 15.3753 99.6269 15.4284 99.5039 15.5281C99.3808 15.6277 99.2969 15.7676 99.2668 15.9231L92.6742 50.7494C92.656 50.8461 92.6592 50.9456 92.6836 51.0409C92.708 51.1362 92.7531 51.225 92.8155 51.301C92.8788 51.3769 92.958 51.438 93.0475 51.4799C93.137 51.5217 93.2347 51.5433 93.3335 51.5432L121.325 51.5768C121.483 51.5797 121.638 51.5266 121.761 51.427C121.884 51.3273 121.968 51.1874 121.998 51.0319L128.59 16.2056C128.609 16.109 128.605 16.0095 128.581 15.9141C128.557 15.8188 128.511 15.73 128.449 15.654C128.386 15.5768 128.308 15.5145 128.218 15.4715C128.128 15.4284 128.03 15.4058 127.931 15.4051H99.9462L99.9395 15.3782Z" fill="#231F20"/>
<path d="M95.2307 40.8134L93.3269 50.8704L121.318 50.9041L123.229 40.8605C120.922 38.0889 117.047 37.1404 113.636 36.8242C112.291 36.7031 111.08 36.6695 110.024 36.6695H109.775C108.786 36.6695 107.642 36.6695 106.411 36.8108H106.351C102.819 37.1135 98.5942 38.062 95.2307 40.8134Z" fill="#F0DC42"/>
<path d="M105.9 38.7347L106.761 48.1527L107.01 50.8973H107.642L108.934 48.146L113.34 38.7818C110.893 38.2231 108.354 38.207 105.9 38.7347Z" fill="#231F20"/>
<path d="M113.353 38.7482C112.895 39.3911 112.289 39.9151 111.587 40.2767C110.885 40.6383 110.107 40.8269 109.317 40.8269C108.601 40.8771 107.886 40.7026 107.274 40.3276C106.661 39.9525 106.181 39.3957 105.9 38.7347L107.817 30.5411H114.544L113.353 38.7482Z" fill="#FAB8B7"/>
<path d="M109.358 41.1767C108.57 41.2197 107.788 41.0194 107.117 40.6031C106.447 40.1867 105.921 39.5744 105.611 38.8491C105.594 38.7874 105.594 38.7224 105.611 38.6607L107.521 30.4604C107.54 30.3839 107.585 30.316 107.647 30.2673C107.709 30.2186 107.785 30.1919 107.864 30.1913H114.591C114.641 30.1908 114.689 30.2007 114.735 30.2204C114.78 30.2401 114.82 30.2692 114.854 30.3056C114.886 30.3445 114.91 30.3897 114.924 30.4384C114.938 30.487 114.941 30.5381 114.934 30.5882L113.744 38.7818C113.738 38.8296 113.722 38.8756 113.697 38.9164C113.21 39.6156 112.561 40.1864 111.805 40.5801C111.049 40.9737 110.21 41.1784 109.358 41.1767ZM106.297 38.7078C106.569 39.276 107.006 39.7491 107.55 40.0658C108.095 40.3825 108.722 40.5281 109.351 40.4838C110.07 40.4846 110.78 40.3164 111.423 39.9927C112.065 39.6691 112.623 39.199 113.051 38.6204L114.174 30.8976H108.12L106.297 38.7078Z" fill="#231F20"/>
<path d="M113.878 34.0594C113.221 34.8291 112.41 35.4524 111.497 35.8892C110.023 36.6493 107.864 37.5037 106.297 37.2346L107.218 33.7634C108.402 33.9088 109.6 33.9088 110.784 33.7634C111.873 33.7187 112.95 33.5124 113.979 33.1512C114.161 33.1243 114.154 33.723 113.878 34.0594Z" fill="#231F20"/>
<path d="M106.902 37.6248C106.677 37.6268 106.452 37.611 106.229 37.5777C106.137 37.5606 106.054 37.5073 106.001 37.4297C105.976 37.3898 105.96 37.3454 105.953 37.2992C105.946 37.253 105.949 37.2059 105.96 37.1606L106.882 33.6961C106.903 33.6153 106.953 33.5451 107.022 33.4991C107.092 33.4531 107.176 33.4346 107.259 33.4472C108.416 33.5883 109.586 33.5883 110.743 33.4472C111.8 33.4022 112.844 33.2051 113.845 32.862C113.926 32.8266 114.017 32.8199 114.102 32.8432C114.188 32.8664 114.263 32.9181 114.315 32.9898C114.4 33.1959 114.428 33.4211 114.394 33.6415C114.361 33.8618 114.269 34.069 114.127 34.241C113.443 35.0518 112.595 35.7077 111.638 36.165C110.182 36.9838 108.567 37.4816 106.902 37.6248ZM106.721 36.9521C108.342 37.0261 110.468 36.0439 111.349 35.6066C112.219 35.1922 112.991 34.5984 113.616 33.8643C113.663 33.8069 113.697 33.7405 113.717 33.6692C112.768 33.9436 111.79 34.1084 110.804 34.1603C109.686 34.2796 108.558 34.2796 107.44 34.1603L106.721 36.9521Z" fill="#231F20"/>
<path d="M116.791 51.2471H116.69C116.646 51.2341 116.605 51.2124 116.569 51.1831C116.534 51.1539 116.504 51.1178 116.483 51.077C116.462 51.0362 116.449 50.9915 116.445 50.9456C116.441 50.8997 116.447 50.8536 116.461 50.8099L119.152 42.3606C119.166 42.3171 119.188 42.2767 119.218 42.2418C119.247 42.207 119.284 42.1784 119.324 42.1577C119.365 42.137 119.409 42.1247 119.455 42.1214C119.501 42.1181 119.546 42.124 119.59 42.1386C119.633 42.1516 119.673 42.1732 119.708 42.202C119.743 42.2309 119.771 42.2665 119.792 42.3067C119.813 42.3469 119.825 42.3909 119.829 42.4359C119.832 42.481 119.826 42.5263 119.812 42.5692L117.121 51.0184C117.097 51.0863 117.052 51.1449 116.993 51.186C116.934 51.227 116.863 51.2484 116.791 51.2471Z" fill="#231F20"/>
<path d="M97.8609 51.227C97.8149 51.2244 97.7699 51.2128 97.7285 51.1928C97.687 51.1728 97.6499 51.1448 97.6193 51.1104C97.5886 51.076 97.5651 51.0359 97.55 50.9925C97.5349 50.949 97.5285 50.9029 97.5313 50.857L98.0425 42.4077C98.0312 42.355 98.0322 42.3003 98.0455 42.248C98.0587 42.1957 98.0839 42.1472 98.1191 42.1063C98.1542 42.0653 98.1984 42.0331 98.248 42.012C98.2977 41.991 98.3516 41.9817 98.4055 41.9849C98.4593 41.9882 98.5117 42.0038 98.5585 42.0307C98.6053 42.0575 98.6453 42.0948 98.6753 42.1396C98.7053 42.1845 98.7245 42.2357 98.7314 42.2892C98.7383 42.3427 98.7328 42.3971 98.7152 42.4481L98.204 50.8973C98.2005 50.986 98.1628 51.0698 98.0988 51.1313C98.0349 51.1927 97.9496 51.227 97.8609 51.227Z" fill="#231F20"/>
<path d="M107.299 28.6575C107.44 26.7336 105.22 26.2559 104.904 28.523C104.764 29.2367 104.837 29.9759 105.113 30.6488C105.169 30.7832 105.253 30.9043 105.36 31.004C105.466 31.1037 105.592 31.1799 105.73 31.2275C105.868 31.2751 106.014 31.2931 106.159 31.2803C106.304 31.2675 106.445 31.2243 106.573 31.1533" fill="#FAB8B7"/>
<path d="M106.068 31.6376C105.943 31.637 105.818 31.6189 105.698 31.5838C105.506 31.5207 105.328 31.4198 105.176 31.2869C105.023 31.154 104.899 30.9919 104.81 30.8102C104.498 30.0739 104.411 29.2614 104.561 28.4759C104.749 27.1304 105.557 26.599 106.283 26.673C106.728 26.7639 107.12 27.027 107.372 27.405C107.624 27.783 107.716 28.2453 107.629 28.6911C107.639 28.7439 107.638 28.7985 107.624 28.8506C107.61 28.9027 107.584 28.9508 107.549 28.9913C107.513 29.0318 107.469 29.0635 107.419 29.084C107.369 29.1045 107.315 29.1132 107.261 29.1095C107.208 29.1057 107.156 29.0896 107.109 29.0623C107.063 29.0351 107.023 28.9975 106.993 28.9524C106.964 28.9074 106.945 28.8561 106.939 28.8026C106.932 28.7491 106.938 28.6948 106.956 28.644C107.017 27.8704 106.626 27.4197 106.216 27.3726C105.806 27.3255 105.389 27.6282 105.254 28.5835C105.124 29.226 105.185 29.8923 105.429 30.5007C105.523 30.701 105.692 30.8558 105.9 30.9313C105.985 30.9542 106.074 30.9601 106.162 30.9486C106.25 30.937 106.334 30.9083 106.411 30.864C106.451 30.8415 106.494 30.8271 106.54 30.8217C106.585 30.8162 106.631 30.8199 106.675 30.8324C106.719 30.845 106.76 30.8661 106.795 30.8946C106.831 30.9231 106.86 30.9585 106.882 30.9985C106.926 31.079 106.936 31.1734 106.911 31.2614C106.886 31.3495 106.827 31.4242 106.747 31.4694C106.539 31.5819 106.305 31.6397 106.068 31.6376Z" fill="#231F20"/>
<path d="M115.997 28.6642C116.589 26.7403 118.984 26.2694 118.439 28.5364C118.284 29.3175 117.937 30.0479 117.43 30.6622C116.932 31.2205 116.239 31.4829 115.789 31.1667" fill="#FAB8B7"/>
<path d="M116.233 31.6511C115.993 31.6569 115.757 31.5863 115.56 31.4493C115.517 31.4256 115.48 31.3931 115.45 31.3541C115.421 31.3151 115.4 31.2703 115.389 31.2227C115.378 31.1751 115.377 31.1256 115.386 31.0776C115.395 31.0295 115.414 30.9839 115.442 30.9438C115.47 30.9036 115.506 30.8697 115.548 30.8443C115.59 30.8189 115.636 30.8025 115.685 30.7963C115.733 30.79 115.783 30.794 115.829 30.808C115.876 30.822 115.92 30.8456 115.957 30.8774C116.233 31.0725 116.744 30.8774 117.148 30.4335C117.617 29.8587 117.945 29.181 118.103 28.4557C118.157 28.2337 118.305 27.4937 117.894 27.3861C117.484 27.2784 116.636 27.7628 116.334 28.7315C116.32 28.7757 116.299 28.8168 116.269 28.8525C116.24 28.8883 116.204 28.9179 116.164 28.9398C116.123 28.9616 116.079 28.9753 116.033 28.98C115.987 28.9846 115.941 28.9802 115.896 28.9669C115.852 28.9537 115.811 28.9319 115.775 28.9027C115.74 28.8736 115.71 28.8377 115.688 28.7971C115.666 28.7565 115.653 28.712 115.648 28.6661C115.643 28.6202 115.648 28.5739 115.661 28.5297C116.078 27.1843 117.262 26.4577 118.076 26.6797C118.325 26.7537 119.132 27.0968 118.749 28.5835C118.568 29.4206 118.189 30.2024 117.645 30.864C117.477 31.0855 117.264 31.2698 117.021 31.4052C116.778 31.5407 116.51 31.6244 116.233 31.6511Z" fill="#231F20"/>
<path d="M107.339 24.4329L106.283 30.0029C105.772 32.6938 107.467 34.8532 110.064 34.8532H110.616C111.955 34.7833 113.234 34.2704 114.251 33.3949C115.268 32.5194 115.965 31.3311 116.233 30.0164L117.262 24.7154C117.262 24.7154 118.143 19.3337 113.131 19.8719C108.12 20.4101 107.339 24.4329 107.339 24.4329Z" fill="#FAB8B7"/>
<path d="M110.642 35.203H110.091C109.473 35.2172 108.86 35.0929 108.296 34.8391C107.733 34.5853 107.234 34.2085 106.835 33.7365C106.42 33.2071 106.129 32.5914 105.984 31.9349C105.838 31.2783 105.842 30.5974 105.994 29.9424L107.05 24.3656C107.05 24.3252 107.911 20.1141 113.105 19.5355C113.723 19.4143 114.362 19.442 114.968 19.6163C115.574 19.7906 116.129 20.1065 116.589 20.5379C118.036 22.0649 117.625 24.675 117.612 24.7894L116.603 30.0971C116.315 31.4882 115.574 32.7445 114.495 33.6686C113.416 34.5928 112.061 35.1325 110.642 35.203ZM107.703 24.5001L106.667 30.0971C106.541 30.654 106.54 31.2319 106.665 31.789C106.789 32.3462 107.036 32.8689 107.387 33.3194C107.722 33.7118 108.14 34.0246 108.612 34.2352C109.083 34.4458 109.595 34.5489 110.111 34.537H110.663C111.923 34.4719 113.125 33.9888 114.08 33.1641C115.036 32.3394 115.689 31.22 115.937 29.9827L116.939 24.6952C116.939 24.6952 117.309 22.3205 116.091 21.0424C115.704 20.6918 115.24 20.4377 114.736 20.3009C114.232 20.1641 113.703 20.1485 113.192 20.2553C108.49 20.7464 107.736 24.3387 107.703 24.5001Z" fill="#231F20"/>
<path d="M111.127 30.8102C110.877 30.8094 110.628 30.796 110.38 30.7698C110.29 30.7565 110.208 30.7081 110.152 30.6352C110.097 30.5622 110.073 30.4705 110.084 30.3796C110.096 30.2891 110.143 30.2068 110.214 30.1503C110.286 30.0937 110.377 30.0674 110.468 30.0769C110.872 30.1239 111.281 30.1239 111.685 30.0769C111.847 29.754 111.759 28.2942 111.497 26.8546C111.481 26.7637 111.502 26.6703 111.555 26.5947C111.608 26.5191 111.689 26.4674 111.779 26.451C111.824 26.4423 111.87 26.4425 111.914 26.4517C111.959 26.4608 112.001 26.4788 112.039 26.5044C112.076 26.5301 112.109 26.563 112.133 26.6012C112.158 26.6393 112.175 26.6821 112.183 26.7268C112.311 27.4534 112.708 29.8617 112.223 30.5142C112.179 30.5796 112.121 30.635 112.054 30.6767C111.987 30.7184 111.911 30.7456 111.833 30.7564C111.599 30.7901 111.363 30.8081 111.127 30.8102Z" fill="#231F20"/>
<path d="M92.5868 23.2893H63.8486C63.7582 23.2771 63.6753 23.2326 63.6152 23.1639C63.5552 23.0952 63.5221 23.0071 63.5221 22.9159C63.5221 22.8247 63.5552 22.7366 63.6152 22.6679C63.6753 22.5993 63.7582 22.5547 63.8486 22.5426H92.5868C92.6772 22.5547 92.7601 22.5993 92.8202 22.6679C92.8802 22.7366 92.9133 22.8247 92.9133 22.9159C92.9133 23.0071 92.8802 23.0952 92.8202 23.1639C92.7601 23.2326 92.6772 23.2771 92.5868 23.2893Z" fill="#D1D3D4"/>
<path d="M91.6181 28.4153H62.8799C62.78 28.4153 62.6842 28.3757 62.6135 28.305C62.5429 28.2344 62.5032 28.1385 62.5032 28.0386C62.5032 27.9387 62.5429 27.8429 62.6135 27.7723C62.6842 27.7016 62.78 27.6619 62.8799 27.6619L91.6181 27.7023C91.7163 27.7023 91.8104 27.7413 91.8797 27.8106C91.9491 27.88 91.9881 27.9741 91.9881 28.0723C91.9798 28.1651 91.9374 28.2515 91.869 28.3149C91.8007 28.3783 91.7113 28.4141 91.6181 28.4153Z" fill="#D1D3D4"/>
<path d="M90.6427 33.5347H61.9112C61.858 33.5418 61.8038 33.5375 61.7524 33.522C61.701 33.5065 61.6534 33.4802 61.613 33.4449C61.5726 33.4095 61.5401 33.3659 61.5179 33.317C61.4957 33.2681 61.4843 33.215 61.4843 33.1613C61.4843 33.1076 61.4957 33.0545 61.5179 33.0056C61.5401 32.9567 61.5726 32.9131 61.613 32.8777C61.6534 32.8424 61.701 32.816 61.7524 32.8006C61.8038 32.7851 61.858 32.7808 61.9112 32.7879H90.6427C90.7426 32.7879 90.8384 32.8276 90.9091 32.8983C90.9797 32.9689 91.0194 33.0647 91.0194 33.1647C91.0194 33.2138 91.0097 33.2625 90.9906 33.3078C90.9716 33.3532 90.9438 33.3942 90.9087 33.4287C90.8736 33.4631 90.832 33.4902 90.7864 33.5084C90.7407 33.5266 90.6919 33.5355 90.6427 33.5347Z" fill="#D1D3D4"/>
<path d="M89.6741 38.6607H60.9359C60.8455 38.6486 60.7625 38.604 60.7025 38.5354C60.6425 38.4667 60.6094 38.3786 60.6094 38.2874C60.6094 38.1962 60.6425 38.108 60.7025 38.0394C60.7625 37.9707 60.8455 37.9262 60.9359 37.914L89.6741 37.9476C89.7273 37.9405 89.7815 37.9448 89.8329 37.9603C89.8844 37.9758 89.9319 38.0021 89.9723 38.0374C90.0128 38.0728 90.0452 38.1164 90.0674 38.1653C90.0896 38.2142 90.101 38.2673 90.101 38.321C90.101 38.3747 90.0896 38.4278 90.0674 38.4767C90.0452 38.5256 90.0128 38.5692 89.9723 38.6046C89.9319 38.6399 89.8844 38.6663 89.8329 38.6817C89.7815 38.6972 89.7273 38.7015 89.6741 38.6944V38.6607Z" fill="#D1D3D4"/>
<path d="M88.7053 43.7868H68.4432C68.3528 43.7746 68.2699 43.7301 68.2098 43.6614C68.1498 43.5928 68.1167 43.5047 68.1167 43.4134C68.1167 43.3222 68.1498 43.2341 68.2098 43.1655C68.2699 43.0968 68.3528 43.0522 68.4432 43.0401H88.7053C88.8034 43.0401 88.8975 43.0791 88.9669 43.1485C89.0363 43.2178 89.0753 43.312 89.0753 43.4101C89.0753 43.5088 89.0365 43.6037 88.9673 43.6741C88.8981 43.7446 88.804 43.785 88.7053 43.7868Z" fill="#D1D3D4"/>
<path d="M117.76 71.3478L54.9958 71.2738C54.941 71.2726 54.8872 71.2596 54.8379 71.2358C54.7886 71.2121 54.7449 71.178 54.7098 71.1359C54.6748 71.0939 54.6492 71.0448 54.6347 70.992C54.6202 70.9392 54.6171 70.8839 54.6258 70.8298L57.4781 55.7812C57.4938 55.6945 57.5395 55.6161 57.6071 55.5595C57.6747 55.503 57.76 55.472 57.8481 55.4718L120.612 55.5458C120.668 55.5465 120.723 55.5595 120.773 55.584C120.823 55.6084 120.867 55.6436 120.901 55.6871C120.937 55.7278 120.963 55.7763 120.977 55.8289C120.992 55.8814 120.993 55.9365 120.982 55.9898L118.103 71.0383C118.088 71.1207 118.046 71.1958 117.984 71.2518C117.922 71.3079 117.843 71.3416 117.76 71.3478ZM55.4465 70.5271L117.45 70.6011L120.141 56.2925L58.1374 56.2185L55.4465 70.5271Z" fill="#D1D3D4"/>
<path d="M119.482 61.0418L56.9197 60.9678C56.8198 60.9678 56.724 60.9281 56.6533 60.8575C56.5827 60.7868 56.543 60.691 56.543 60.5911C56.543 60.5419 56.5527 60.4933 56.5718 60.4479C56.5908 60.4026 56.6186 60.3615 56.6537 60.3271C56.6888 60.2926 56.7304 60.2655 56.776 60.2473C56.8217 60.2291 56.8705 60.2202 56.9197 60.2211L119.482 60.2951C119.572 60.3073 119.655 60.3518 119.715 60.4205C119.775 60.4891 119.808 60.5773 119.808 60.6685C119.808 60.7597 119.775 60.8478 119.715 60.9165C119.655 60.9851 119.572 61.0297 119.482 61.0418Z" fill="#D1D3D4"/>
<path d="M100.767 71.3276H100.7C100.603 71.3081 100.518 71.2513 100.462 71.1695C100.407 71.0877 100.386 70.9875 100.404 70.8904L103.256 55.8418C103.264 55.7935 103.282 55.7473 103.308 55.7059C103.334 55.6645 103.368 55.6287 103.408 55.6005C103.448 55.5724 103.493 55.5524 103.541 55.5419C103.589 55.5313 103.638 55.5304 103.687 55.5391C103.785 55.5571 103.872 55.6132 103.928 55.6952C103.985 55.7771 104.007 55.8782 103.989 55.9763L101.137 71.0249C101.12 71.1104 101.074 71.1873 101.006 71.2425C100.939 71.2977 100.854 71.3278 100.767 71.3276Z" fill="#D1D3D4"/>
<path d="M69.1226 71.2872H69.0554C68.9586 71.2677 68.8733 71.2109 68.8179 71.1291C68.7626 71.0473 68.7415 70.9471 68.7594 70.85L71.6049 55.8014C71.634 55.7149 71.6934 55.6419 71.7722 55.5959C71.851 55.5499 71.9438 55.5341 72.0333 55.5513C72.1229 55.5686 72.2032 55.6178 72.2593 55.6897C72.3153 55.7617 72.3434 55.8516 72.3382 55.9427L69.4926 70.9912C69.4741 71.0755 69.4273 71.1508 69.36 71.2047C69.2926 71.2585 69.2089 71.2877 69.1226 71.2872Z" fill="#D1D3D4"/>
<path d="M3.58709 141.882L2.44348 120.913L54.323 111.414C54.3835 111.973 56.6169 129.329 58.2315 141.868L3.58709 141.882Z" fill="#1E212A"/>
<path d="M58.2315 142.218H3.58716C3.50134 142.218 3.41871 142.185 3.35618 142.127C3.29365 142.068 3.25595 141.987 3.2508 141.902L2.10719 120.947C2.10402 120.865 2.13005 120.785 2.18061 120.721C2.23116 120.657 2.30293 120.613 2.38301 120.597L54.2625 111.098C54.3085 111.091 54.3556 111.093 54.4008 111.104C54.4459 111.116 54.4882 111.137 54.5249 111.166C54.5616 111.193 54.5925 111.227 54.6156 111.266C54.6388 111.305 54.6537 111.349 54.6594 111.394C54.72 111.993 57.4108 132.921 58.5679 141.841C58.5756 141.936 58.5467 142.03 58.4871 142.104C58.4547 142.139 58.4153 142.168 58.3713 142.187C58.3273 142.207 58.2797 142.218 58.2315 142.218ZM3.90333 141.545H57.8548C56.5094 131.145 54.3701 114.509 54.0338 111.825L2.79336 121.202L3.90333 141.545Z" fill="#231F20"/>
<path d="M85.927 78.6333L95.0893 70.6414C95.0893 70.6414 98.4529 62.2729 99.7983 60.6786C101.144 59.0843 111.234 54.1533 111.349 55.2565C111.463 56.3598 109.055 57.8532 108.382 58.4048C107.366 59.2323 106.31 59.9991 105.267 60.7862C107.38 61.6607 109.492 64.0758 110.427 66.1679C110.862 67.0728 111.051 68.0758 110.977 69.0768C110.902 70.0778 110.567 71.0418 110.003 71.8725C109.69 72.3376 109.227 72.6817 108.692 72.8479C108.422 72.9205 108.137 72.9077 107.876 72.8113C107.614 72.7149 107.389 72.5396 107.232 72.3098L107.097 72.4779C106.021 73.9287 104.736 75.2118 103.283 76.2855C102.099 77.0793 100.626 77.1667 99.657 78.1489C98.2444 79.5683 97.1277 81.5125 95.9168 83.0866L89.1762 91.9866L85.927 78.6333Z" fill="white"/>
<path d="M89.1762 92.3095H89.1089C89.0458 92.2953 88.9879 92.2639 88.9416 92.2188C88.8953 92.1736 88.8624 92.1166 88.8465 92.0539L85.631 78.7207C85.6152 78.6608 85.6163 78.5977 85.6341 78.5383C85.6519 78.479 85.6857 78.4257 85.7319 78.3844L94.8068 70.4598C95.17 69.5651 98.1703 62.0375 99.5157 60.4835C100.861 58.9296 109.889 54.3753 111.302 54.8193C111.396 54.8467 111.481 54.9016 111.544 54.977C111.608 55.0525 111.647 55.1451 111.658 55.2431C111.752 56.2253 110.414 57.3083 109.035 58.3308L108.564 58.6807C107.851 59.2659 107.111 59.8243 106.391 60.3624L105.893 60.7392C107.994 61.9718 109.671 63.8132 110.703 66.0199C111.167 66.98 111.368 68.0455 111.288 69.1086C111.208 70.1718 110.848 71.1948 110.246 72.0743C109.888 72.6041 109.358 72.9939 108.745 73.1776C108.481 73.2471 108.205 73.2529 107.938 73.1944C107.671 73.1359 107.422 73.0149 107.212 72.8412C106.143 74.2597 104.874 75.5152 103.444 76.5681C102.911 76.8964 102.343 77.1627 101.749 77.3619C101.057 77.5626 100.416 77.9115 99.8723 78.3844C98.9396 79.3882 98.0956 80.4708 97.3496 81.6201C96.9527 82.1919 96.5558 82.757 96.1589 83.2885L89.4318 92.2019C89.399 92.2366 89.3594 92.2641 89.3154 92.2827C89.2713 92.3012 89.2239 92.3103 89.1762 92.3095ZM86.3306 78.7544L89.3376 91.1995L95.6611 82.8512C96.058 82.3332 96.4415 81.7748 96.8316 81.2098C97.6021 80.0291 98.4731 78.9172 99.435 77.8866C100.045 77.3397 100.769 76.9352 101.554 76.7026C102.098 76.5236 102.62 76.2821 103.108 75.9828C104.532 74.9237 105.792 73.6612 106.848 72.2358L106.983 72.0676C107.021 72.0273 107.067 71.9956 107.118 71.9747C107.169 71.9538 107.224 71.9442 107.279 71.9465C107.333 71.9526 107.386 71.9716 107.431 72.0021C107.477 72.0325 107.515 72.0734 107.541 72.1214C107.661 72.2882 107.829 72.4139 108.023 72.4814C108.217 72.5488 108.427 72.5547 108.624 72.4982C109.085 72.3491 109.481 72.0478 109.748 71.6438C110.28 70.8599 110.595 69.9494 110.663 69.0045C110.73 68.0595 110.547 67.1135 110.131 66.2621C109.29 64.4054 107.265 61.9568 105.153 61.0822C105.099 61.0602 105.052 61.0243 105.017 60.9782C104.981 60.9321 104.959 60.8775 104.951 60.8199C104.942 60.7615 104.949 60.7019 104.972 60.6473C104.994 60.5927 105.032 60.5454 105.079 60.5104L106.028 59.7906C106.741 59.2525 107.474 58.7008 108.18 58.129C108.301 58.0281 108.47 57.907 108.671 57.7523C109.344 57.2545 110.878 56.1176 111.019 55.4113C109.674 55.4113 101.426 59.2996 100.067 60.8872C98.7085 62.4748 95.466 70.6684 95.4324 70.7491C95.4113 70.8003 95.3791 70.8463 95.3382 70.8836L86.3306 78.7544Z" fill="#231F20"/>
<path d="M0.331177 134.105C0.331177 134.105 1.00389 77.8933 7.69737 66.6456C14.3908 55.3978 32.7895 52.189 41.9249 58.3645C51.0603 64.54 58.2315 129.362 58.2315 129.362C58.2315 129.362 29.473 135.329 0.331177 134.105Z" fill="#0EAF59"/>
<path d="M41.9249 58.351C41.9249 58.351 50.5087 59.6628 55.2379 66.9415C59.9671 74.2203 65.2075 84.2571 65.2075 84.2571L89.8825 71.3747L101.433 82.3601C101.433 82.3601 80.7135 104.788 70.6968 110.863C61.2452 116.594 53.805 108.677 48.6453 103.577C46.459 101.418 43.0753 96.1103 43.0753 96.1103L41.9249 58.351Z" fill="#0EAF59"/>
<path d="M43.3039 35.8891C42.4426 35.8907 41.6094 35.5827 40.9562 35.0213C40.3178 34.4773 39.8877 33.7289 39.7393 32.9034C39.5908 32.0779 39.7331 31.2265 40.1419 30.4941C40.5508 29.7618 41.2008 29.1938 41.9814 28.887C42.762 28.5802 43.6248 28.5534 44.4229 28.8113C45.221 29.0692 45.905 29.5958 46.3584 30.3014C46.8118 31.007 47.0065 31.848 46.9095 32.6811C46.8124 33.5142 46.4296 34.2879 45.8261 34.8704C45.2227 35.4529 44.4359 35.8081 43.5999 35.8757L43.3039 35.8891ZM43.3039 29.2898H43.0618C42.2784 29.3542 41.5525 29.7268 41.0436 30.3258C40.794 30.6219 40.606 30.9648 40.4905 31.3344C40.375 31.704 40.3343 32.093 40.3709 32.4785C40.4098 32.9637 40.5676 33.4318 40.8306 33.8414C41.0936 34.2509 41.4535 34.5893 41.8784 34.8266C42.3034 35.0639 42.7803 35.1927 43.267 35.2017C43.7536 35.2106 44.235 35.0994 44.6684 34.8779C45.1018 34.6564 45.4739 34.3315 45.7517 33.9318C46.0295 33.5322 46.2045 33.0702 46.2612 32.5868C46.3179 32.1034 46.2544 31.6135 46.0765 31.1604C45.8987 30.7074 45.6118 30.3052 45.2413 29.9895C44.7061 29.5306 44.0223 29.282 43.3174 29.2898H43.3039Z" fill="#231F20"/>
<path d="M41.9451 34.9339C41.9451 34.9339 46.2774 40.9278 45.4836 42.2396C44.6898 43.5514 41.8577 42.8248 41.8577 42.8248" fill="white"/>
<path d="M43.4856 43.363C42.91 43.3571 42.3369 43.2871 41.7769 43.1544C41.734 43.1435 41.6937 43.1241 41.6583 43.0975C41.6229 43.071 41.5931 43.0377 41.5706 42.9995C41.5481 42.9614 41.5334 42.9192 41.5272 42.8754C41.521 42.8315 41.5236 42.7869 41.5347 42.7441C41.5449 42.7007 41.5637 42.6599 41.5901 42.624C41.6164 42.5881 41.6498 42.5579 41.6881 42.5353C41.7265 42.5127 41.769 42.498 41.8132 42.4923C41.8573 42.4866 41.9022 42.4898 41.9451 42.5019C42.6649 42.6835 44.6359 42.9661 45.1943 42.0714C45.6181 41.3987 43.6941 37.9275 41.6693 35.129C41.6186 35.0573 41.5979 34.9686 41.6117 34.8818C41.6256 34.7951 41.6728 34.7172 41.7433 34.6648C41.7787 34.6378 41.8192 34.6182 41.8624 34.6072C41.9056 34.5963 41.9505 34.5942 41.9945 34.6011C42.0385 34.608 42.0807 34.6238 42.1184 34.6475C42.1562 34.6711 42.1888 34.7022 42.2142 34.7388C42.9609 35.7681 46.6339 40.9816 45.7728 42.4144C45.3221 43.1679 44.3534 43.363 43.4856 43.363Z" fill="white"/>
<path d="M40.7409 26.821C43.4318 28.8391 42.8532 33.3396 42.9541 36.239C43.0976 40.3335 43.1425 44.4326 43.0887 48.5361C43.0887 51.1328 36.3616 51.4692 35.1238 50.7426L37.0612 57.093L22.2615 56.1243L22.4835 47.628C22.4835 47.628 20.6067 35.9632 23.0082 30.5613C23.7089 29.0076 24.8296 27.6806 26.244 26.7297C27.6584 25.7788 29.3103 25.242 31.0135 25.1796C31.0135 25.1796 38.1106 24.8634 40.7409 26.821Z" fill="white"/>
<path d="M37.0546 57.4428L22.2549 56.4741C22.1681 56.4689 22.0867 56.4303 22.0277 56.3663C21.9688 56.3024 21.9369 56.218 21.9388 56.1311L22.1608 47.628C22.0868 47.2109 20.2974 35.869 22.7124 30.4402C25.1274 25.0114 30.9329 24.8702 31.0338 24.8702C31.3097 24.8702 38.2722 24.5405 40.9631 26.5519C43.3243 28.3212 43.3108 31.8394 43.2974 34.6245C43.2974 35.1828 43.2974 35.721 43.2974 36.2053C43.4386 40.2887 43.4857 44.4326 43.4319 48.516C43.4044 48.923 43.2639 49.3143 43.0262 49.6458C42.7886 49.9774 42.4631 50.2361 42.0865 50.3928C40.3576 51.3615 37.1891 51.5701 35.6285 51.2472L37.3775 57.0056C37.3929 57.0582 37.3954 57.1138 37.3849 57.1677C37.3744 57.2215 37.3511 57.2721 37.317 57.315C37.286 57.355 37.2462 57.3874 37.2007 57.4096C37.1552 57.4317 37.1052 57.4431 37.0546 57.4428ZM22.5913 55.8283L36.5904 56.7365L34.7943 50.857C34.7753 50.7919 34.7761 50.7227 34.7964 50.658C34.8168 50.5934 34.8558 50.5362 34.9087 50.4937C34.9643 50.4561 35.0299 50.436 35.097 50.436C35.1642 50.436 35.2297 50.4561 35.2854 50.4937C36.0859 50.9714 39.8665 50.931 41.7569 49.8681C42.4296 49.5048 42.7457 49.0676 42.7457 48.5698C42.7996 44.4931 42.7457 40.3627 42.6112 36.2928C42.6112 35.795 42.6112 35.2501 42.6112 34.685C42.6112 31.9942 42.6112 28.6844 40.546 27.117C38.0502 25.2536 31.128 25.563 31.0338 25.5698C29.3916 25.6202 27.7968 26.1322 26.4322 27.0471C25.0675 27.962 23.9882 29.2429 23.3178 30.7429C20.9768 35.9833 22.7998 47.5002 22.82 47.6145L22.5913 55.8283Z" fill="#231F20"/>
<path d="M19.5371 58.351L20.5529 53.7766L38.6556 54.0658L40.001 58.1021C40.001 58.1021 30.9934 63.3089 19.5371 58.351Z" fill="#0B8343"/>
<path d="M29.5807 60.8131C26.0766 60.8051 22.6117 60.0745 19.4026 58.6672C19.3312 58.6351 19.273 58.5796 19.2375 58.5098C19.202 58.4401 19.1914 58.3603 19.2075 58.2837L20.2233 53.7093C20.239 53.634 20.2806 53.5665 20.3408 53.5186C20.401 53.4707 20.476 53.4453 20.5529 53.447L38.6556 53.7429C38.7241 53.7424 38.7909 53.7636 38.8465 53.8035C38.9022 53.8434 38.9437 53.8999 38.9651 53.9649L40.3105 58.0012C40.3378 58.0741 40.3379 58.1544 40.3107 58.2273C40.2835 58.3002 40.2308 58.3609 40.1625 58.3981C36.8777 60.0338 33.2499 60.8618 29.5807 60.8131ZM19.9273 58.1559C23.0371 59.5103 26.3986 60.1902 29.7903 60.1507C33.1819 60.1113 36.5267 59.3535 39.6041 57.9272L38.4134 54.4089L20.822 54.1264L19.9273 58.1559Z" fill="#231F20"/>
<path d="M0.539736 127.64C0.4557 127.64 0.37478 127.608 0.313511 127.551C0.252243 127.493 0.215254 127.415 0.210109 127.331C-0.946955 113.204 3.04222 83.1942 3.25749 82.313C3.26809 82.2688 3.28729 82.2272 3.31399 82.1904C3.34069 82.1536 3.37436 82.1225 3.41309 82.0988C3.45182 82.075 3.49485 82.0592 3.53971 82.0521C3.58458 82.0449 3.6304 82.0467 3.67457 82.0573C3.71875 82.0679 3.76039 82.0871 3.79715 82.1138C3.8339 82.1405 3.86503 82.1742 3.88877 82.2129C3.91251 82.2517 3.92839 82.2947 3.93549 82.3396C3.9426 82.3844 3.9408 82.4303 3.9302 82.4744C3.71494 83.3557 -0.247337 113.19 0.896273 127.277C0.899951 127.321 0.894854 127.366 0.881271 127.408C0.867687 127.45 0.845887 127.489 0.817126 127.523C0.788365 127.557 0.753212 127.585 0.713688 127.605C0.674164 127.625 0.631048 127.637 0.586826 127.64H0.539736Z" fill="#231F20"/>
<path d="M28.8138 47.7154C27.9393 53.0433 28.8744 57.5303 23.5734 61.1091C19.9475 63.5645 15.252 64.0825 10.9601 63.2282C8.26924 62.69 5.47748 61.4993 4.02443 59.1515C2.26192 56.306 2.93463 52.5522 4.38096 49.5318C5.82729 46.5113 7.96652 43.8406 9.19085 40.7192C12.1844 33.1042 9.71557 24.4665 17.0818 19.0781C19.9699 16.9889 23.339 15.663 26.8764 15.2235C27.8922 15.0957 36.7384 16.2393 36.6106 16.394C38.2856 14.4633 41.8644 15.6271 43.0013 17.9076C43.458 18.9424 43.6995 20.0592 43.711 21.1902C43.7226 22.3213 43.504 23.4428 43.0686 24.4867C42.9408 24.7491 40.6132 27.6821 40.667 26.8143C40.519 29.1284 39.1063 30.3393 37.3909 31.9404C35.6755 33.5414 33.6372 34.7658 31.7671 36.1852C28.121 38.9366 29.3789 42.3203 29.0022 46.2355C28.9551 46.74 28.8946 47.2311 28.8138 47.7154Z" fill="#392C27"/>
<path d="M14.7945 63.948C13.4865 63.9465 12.1819 63.8158 10.8995 63.5578C8.53831 63.0869 5.37657 61.9769 3.74188 59.3332C1.4883 55.6938 3.22389 51.1665 4.07824 49.3838C4.71058 48.0384 5.4842 46.7871 6.23091 45.5561C7.2552 43.9838 8.13983 42.3248 8.87467 40.5982C9.79803 37.9537 10.3966 35.2069 10.6574 32.418C11.3301 27.2516 12.0028 22.3744 16.8867 18.809C19.8187 16.6825 23.2416 15.3333 26.8361 14.8871C26.9033 14.8871 34.5722 15.4926 36.4827 16.0307C36.8695 15.6563 37.339 15.3784 37.8533 15.2194C38.3676 15.0604 38.9121 15.025 39.4427 15.1159C40.2482 15.2214 41.0175 15.5151 41.6883 15.9732C42.3592 16.4313 42.9127 17.041 43.304 17.7529C43.7801 18.8358 44.0315 20.004 44.0431 21.1869C44.0547 22.3698 43.8261 23.5427 43.3713 24.6347C43.3713 24.6347 41.8375 26.8479 40.963 27.2448C40.6872 29.337 39.362 30.568 37.8484 31.9538L37.6196 32.1691C36.4458 33.2143 35.2005 34.1764 33.8928 35.0483C33.2201 35.5057 32.5945 35.9565 31.9689 36.4341C29.3722 38.3917 29.3924 40.6991 29.4193 43.3697C29.4417 44.3302 29.4148 45.2912 29.3386 46.2489C29.2915 46.7669 29.2242 47.2715 29.1435 47.7491C28.9551 48.886 28.8542 49.9892 28.7533 51.0521C28.3766 55.0346 28.0806 58.4519 23.7618 61.3715C21.0944 63.1008 17.973 63.9976 14.7945 63.948ZM27.1186 15.5464H26.9168C23.4361 15.9781 20.1205 17.2807 17.2768 19.3338C12.6284 22.6973 11.996 27.4668 11.3233 32.4853C11.0618 35.3413 10.4495 38.1542 9.50029 40.8605C8.75162 42.6237 7.85129 44.3186 6.80944 45.926C6.03808 47.1476 5.3286 48.4072 4.68368 49.7C3.88315 51.375 2.235 55.6467 4.31368 58.9968C5.82056 61.4388 8.80067 62.4747 11.0408 62.9187C15.6085 63.8269 20.1157 63.0735 23.3985 60.8535C27.4348 58.129 27.7375 54.8395 28.1075 51.0252C28.2084 49.9489 28.316 48.8389 28.5044 47.6616C28.5851 47.1975 28.6457 46.7064 28.6927 46.2019C28.7693 45.2689 28.7962 44.3325 28.7735 43.3966C28.7735 40.6587 28.7264 38.0822 31.5854 35.9161C32.2581 35.4385 32.877 34.981 33.5295 34.5169C34.8136 33.6637 36.0364 32.7219 37.1891 31.6982L37.4178 31.4829C38.9852 30.0231 40.223 28.8728 40.3576 26.7739C40.366 26.6859 40.4075 26.6044 40.4737 26.5458C40.5398 26.4871 40.6257 26.4557 40.7141 26.4578C40.778 26.4616 40.8391 26.4851 40.889 26.525C41.5782 25.8553 42.2043 25.1234 42.7591 24.3387C43.1696 23.3406 43.3757 22.2702 43.3653 21.191C43.3549 20.1118 43.1282 19.0457 42.6986 18.0556C42.3557 17.4392 41.8726 16.9122 41.2882 16.5172C40.7039 16.1222 40.0348 15.8703 39.335 15.7818C38.8841 15.6998 38.4197 15.7326 37.9847 15.8772C37.5497 16.0218 37.1581 16.2736 36.846 16.6093C36.7924 16.6721 36.7175 16.7131 36.6356 16.7242C36.5537 16.7354 36.4705 16.716 36.402 16.6698C33.3288 16.1369 30.2302 15.7619 27.1186 15.5464Z" fill="#231F20"/>
<path d="M42.8599 45.4955C42.8599 45.4955 39.7654 47.5809 37.9357 44.3721Z" fill="white"/>
<path d="M40.6871 46.4978C40.4359 46.5006 40.1852 46.4735 39.9404 46.4171C39.4474 46.2835 38.9882 46.0472 38.5929 45.7238C38.1976 45.4003 37.875 44.997 37.6464 44.5403C37.6244 44.5018 37.6101 44.4594 37.6044 44.4155C37.5987 44.3715 37.6017 44.3269 37.6132 44.2841C37.6248 44.2413 37.6447 44.2012 37.6717 44.1661C37.6988 44.131 37.7325 44.1015 37.7709 44.0794C37.8093 44.0574 37.8517 44.0431 37.8957 44.0374C37.9396 44.0317 37.9843 44.0347 38.0271 44.0462C38.0699 44.0578 38.11 44.0777 38.1451 44.1047C38.1802 44.1318 38.2096 44.1655 38.2317 44.2039C38.4138 44.5794 38.6734 44.912 38.9935 45.1799C39.3135 45.4478 39.6867 45.6447 40.0884 45.7579C40.9862 45.8958 41.9036 45.7046 42.6716 45.2197C42.7076 45.1944 42.7484 45.1765 42.7914 45.1672C42.8344 45.1579 42.8789 45.1573 42.9221 45.1655C42.9654 45.1736 43.0066 45.1904 43.0433 45.2147C43.08 45.239 43.1114 45.2705 43.1358 45.3071C43.1612 45.3437 43.1792 45.385 43.1886 45.4285C43.198 45.4721 43.1987 45.5171 43.1905 45.5609C43.1824 45.6047 43.1656 45.6465 43.1412 45.6837C43.1168 45.721 43.0852 45.7531 43.0483 45.778C42.3393 46.2237 41.5242 46.4721 40.6871 46.4978Z" fill="#231F20"/>
<path d="M25.2686 38.4522H25.2013C25.158 38.4434 25.1169 38.4261 25.0803 38.4014C25.0436 38.3766 25.0123 38.3449 24.9879 38.3081C24.9635 38.2712 24.9467 38.2299 24.9383 38.1866C24.9299 38.1432 24.9301 38.0986 24.9389 38.0553C25.356 35.9833 25.7529 35.9161 25.9278 35.8959C26.2642 35.8353 39.5502 33.1041 46.533 31.6645C46.6222 31.6467 46.7148 31.665 46.7905 31.7155C46.8662 31.7659 46.9188 31.8444 46.9366 31.9336C46.9544 32.0228 46.9361 32.1155 46.8857 32.1912C46.8352 32.2669 46.7567 32.3194 46.6675 32.3372C45.8603 32.4987 27.4481 36.2995 26.1027 36.5551C25.8603 37.079 25.6906 37.6335 25.5982 38.2033C25.5777 38.2749 25.5345 38.338 25.475 38.3829C25.4156 38.4278 25.3431 38.4521 25.2686 38.4522Z" fill="#231F20"/>
<path d="M34.2023 37.8871C34.0429 36.8668 33.6053 35.9101 32.9376 35.1223C32.5057 34.4502 31.9776 33.8451 31.3702 33.3261C31.0641 33.0702 30.705 32.8854 30.3187 32.7854C29.9324 32.6853 29.5287 32.6724 29.1368 32.7476C28.7975 32.8495 28.4836 33.022 28.2158 33.2539C27.9479 33.4858 27.7322 33.7718 27.5829 34.093C27.2927 34.7257 27.1479 35.4153 27.159 36.1112C27.1554 37.6543 27.5582 39.1712 28.327 40.5092C29.0957 41.8472 30.2034 42.9591 31.5384 43.733L31.3231 43.5514" fill="white"/>
<path d="M31.5383 44.0962C31.4799 44.0958 31.4224 44.082 31.3702 44.0559C29.9894 43.2485 28.8435 42.0945 28.0458 40.7081C27.2482 39.3217 26.8265 37.751 26.8226 36.1515C26.8067 35.3945 26.9655 34.6441 27.2868 33.9585C27.4543 33.593 27.6992 33.2683 28.0048 33.0069C28.3103 32.7455 28.669 32.5537 29.056 32.4449C29.5 32.3572 29.9581 32.3722 30.3953 32.4888C30.8326 32.6054 31.2374 32.8205 31.5787 33.1176C32.2135 33.6543 32.7625 34.285 33.2067 34.9877C33.9246 35.8178 34.3912 36.8352 34.5521 37.9208C34.5547 37.9649 34.5487 38.0092 34.5342 38.051C34.5197 38.0928 34.4972 38.1314 34.4678 38.1645C34.4385 38.1976 34.4029 38.2246 34.3631 38.244C34.3233 38.2633 34.2801 38.2746 34.2359 38.2773C34.1917 38.2799 34.1475 38.2739 34.1056 38.2594C34.0638 38.245 34.0253 38.2224 33.9922 38.193C33.9591 38.1637 33.9321 38.1281 33.9127 38.0883C33.8934 38.0485 33.882 38.0053 33.8794 37.9611C33.7154 37.0061 33.2997 36.1121 32.6752 35.3712C32.2642 34.7272 31.7611 34.147 31.1818 33.649C30.9156 33.4231 30.6024 33.2593 30.2649 33.1697C29.9274 33.0801 29.5742 33.0669 29.2309 33.1311C28.9371 33.2168 28.6651 33.3644 28.433 33.564C28.201 33.7636 28.0143 34.0105 27.8855 34.2881C27.6159 34.8883 27.4827 35.5408 27.4953 36.1986C27.4978 37.5917 27.8419 38.9629 28.4975 40.192C29.1531 41.4211 30.1002 42.4707 31.2558 43.2486C31.3069 43.2421 31.3589 43.2472 31.4078 43.2635C31.4567 43.2798 31.5013 43.3069 31.5383 43.3428L31.7738 43.5783C31.832 43.6343 31.8677 43.7099 31.8739 43.7905C31.8801 43.8711 31.8564 43.9512 31.8074 44.0155C31.7708 44.0472 31.7279 44.0708 31.6815 44.0847C31.6351 44.0986 31.5863 44.1025 31.5383 44.0962Z" fill="#231F20"/>
<path d="M40.745 33.2641C41.0631 33.2335 41.258 32.5551 41.1804 31.7489C41.1027 30.9427 40.782 30.314 40.4639 30.3446C40.1459 30.3752 39.951 31.0536 40.0286 31.8598C40.1062 32.666 40.427 33.2948 40.745 33.2641Z" fill="#231F20"/>
<path d="M57.5587 110.823C57.5121 110.832 57.4641 110.832 57.4175 110.823C41.454 103.322 33.4824 75.5119 33.4017 75.2361C33.3788 75.1496 33.3906 75.0576 33.4346 74.9797C33.4786 74.9018 33.5512 74.8441 33.6371 74.819C33.6795 74.8068 33.7239 74.8033 33.7677 74.8086C33.8115 74.8139 33.8538 74.828 33.8921 74.8499C33.9304 74.8719 33.9638 74.9013 33.9905 74.9364C34.0172 74.9716 34.0366 75.0117 34.0475 75.0545C34.1282 75.3303 42.0191 102.844 57.7067 110.21C57.7754 110.244 57.8307 110.299 57.8636 110.368C57.8965 110.437 57.905 110.515 57.8878 110.589C57.8706 110.663 57.8287 110.729 57.7689 110.777C57.7091 110.824 57.635 110.85 57.5587 110.849V110.823Z" fill="#231F20"/>
<path d="M135.486 134.334H92.5667L100.787 91.4148H143.706L135.486 134.334Z" fill="#EAEAEA"/>
<path d="M135.486 100.234H106.599C106.501 100.232 106.407 100.192 106.337 100.121C106.268 100.051 106.229 99.9561 106.229 99.8573C106.229 99.7592 106.268 99.6651 106.338 99.5957C106.407 99.5263 106.501 99.4873 106.599 99.4873H135.486C135.535 99.4864 135.584 99.4954 135.629 99.5135C135.675 99.5317 135.716 99.5588 135.752 99.5933C135.787 99.6277 135.815 99.6688 135.834 99.7142C135.853 99.7595 135.862 99.8082 135.862 99.8573C135.862 99.9068 135.853 99.9558 135.834 100.001C135.815 100.047 135.787 100.089 135.752 100.124C135.717 100.159 135.675 100.186 135.63 100.205C135.584 100.224 135.535 100.234 135.486 100.234Z" fill="#D1D3D4"/>
<path d="M134.201 106.954H105.321C105.272 106.955 105.223 106.946 105.178 106.928C105.132 106.91 105.09 106.883 105.055 106.848C105.02 106.814 104.992 106.773 104.973 106.728C104.954 106.682 104.945 106.634 104.945 106.584C104.945 106.484 104.984 106.389 105.055 106.318C105.126 106.247 105.221 106.208 105.321 106.208H134.208C134.306 106.209 134.4 106.25 134.47 106.32C134.539 106.391 134.578 106.486 134.578 106.584C134.578 106.634 134.568 106.682 134.549 106.728C134.53 106.773 134.502 106.814 134.467 106.848C134.432 106.883 134.39 106.91 134.344 106.928C134.299 106.946 134.25 106.955 134.201 106.954Z" fill="#D1D3D4"/>
<path d="M132.903 113.682H104.023C103.933 113.669 103.85 113.625 103.79 113.556C103.73 113.488 103.697 113.399 103.697 113.308C103.697 113.217 103.73 113.129 103.79 113.06C103.85 112.992 103.933 112.947 104.023 112.935H132.903C132.956 112.928 133.01 112.932 133.061 112.947C133.113 112.963 133.16 112.989 133.201 113.025C133.241 113.06 133.274 113.104 133.296 113.152C133.318 113.201 133.329 113.254 133.329 113.308C133.329 113.362 133.318 113.415 133.296 113.464C133.274 113.513 133.241 113.556 133.201 113.592C133.16 113.627 133.113 113.653 133.061 113.669C133.01 113.684 132.956 113.689 132.903 113.682Z" fill="#D1D3D4"/>
<path d="M131.624 120.409H102.738C102.685 120.416 102.631 120.411 102.579 120.396C102.528 120.381 102.48 120.354 102.44 120.319C102.399 120.283 102.367 120.24 102.345 120.191C102.323 120.142 102.311 120.089 102.311 120.035C102.311 119.982 102.323 119.928 102.345 119.88C102.367 119.831 102.399 119.787 102.44 119.752C102.48 119.716 102.528 119.69 102.579 119.675C102.631 119.659 102.685 119.655 102.738 119.662H131.624C131.715 119.674 131.798 119.719 131.858 119.787C131.918 119.856 131.951 119.944 131.951 120.035C131.951 120.126 131.918 120.215 131.858 120.283C131.798 120.352 131.715 120.396 131.624 120.409Z" fill="#D1D3D4"/>
<path d="M121.756 127.136H101.446C101.356 127.124 101.273 127.079 101.213 127.01C101.153 126.942 101.12 126.854 101.12 126.762C101.12 126.671 101.153 126.583 101.213 126.514C101.273 126.446 101.356 126.401 101.446 126.389H121.756C121.846 126.401 121.929 126.446 121.989 126.514C122.049 126.583 122.082 126.671 122.082 126.762C122.082 126.854 122.049 126.942 121.989 127.01C121.929 127.079 121.846 127.124 121.756 127.136Z" fill="#D1D3D4"/>
</svg>
