<svg width="110" height="30" viewBox="0 0 110 30" fill="none" xmlns="http://www.w3.org/2000/svg">
<g clip-path="url(#clip0_694_8)">
<path d="M35.7013 16.0449C35.074 16.0449 34.5119 15.9407 34.0149 15.7324C33.518 15.5241 33.1188 15.2158 32.8173 14.8075C32.524 14.3993 32.3693 13.9077 32.353 13.3328H34.577C34.6096 13.6577 34.7196 13.9077 34.907 14.0827C35.0944 14.2493 35.3388 14.3326 35.6402 14.3326C35.9498 14.3326 36.1942 14.2618 36.3734 14.1202C36.5526 13.9702 36.6422 13.766 36.6422 13.5078C36.6422 13.2911 36.5689 13.112 36.4223 12.9703C36.2838 12.8287 36.1086 12.7121 35.8968 12.6204C35.6932 12.5288 35.3999 12.4246 35.0169 12.308C34.463 12.133 34.0108 11.958 33.6605 11.783C33.3102 11.6081 33.0088 11.3498 32.7562 11.0082C32.5037 10.6666 32.3774 10.2208 32.3774 9.67091C32.3774 8.85438 32.6666 8.21697 33.245 7.75872C33.8235 7.29213 34.577 7.05884 35.5058 7.05884C36.4508 7.05884 37.2125 7.29213 37.7909 7.75872C38.3694 8.21697 38.679 8.85853 38.7197 9.6834H36.4589C36.4426 9.40012 36.3408 9.17931 36.1534 9.02101C35.9661 8.85438 35.7257 8.77104 35.4324 8.77104C35.1799 8.77104 34.9762 8.84185 34.8215 8.98351C34.6666 9.11684 34.5892 9.31263 34.5892 9.57094C34.5892 9.85422 34.7196 10.075 34.9803 10.2333C35.241 10.3916 35.6484 10.5624 36.2023 10.7457C36.7563 10.9374 37.2044 11.1207 37.5466 11.2956C37.8968 11.4706 38.1983 11.7247 38.4508 12.058C38.7034 12.3913 38.8297 12.8204 38.8297 13.3453C38.8297 13.8452 38.7034 14.2993 38.4508 14.7076C38.2064 15.1158 37.848 15.4408 37.3755 15.6824C36.903 15.924 36.3449 16.0449 35.7013 16.0449ZM43.5065 8.89603V10.6707H46.3053V12.3204H43.5065V14.2452H46.6719V15.9574H41.4171V7.18382H46.6719V8.89603H43.5065ZM53.7046 15.9574L51.9205 12.6454H51.4192V15.9574H49.3296V7.18382H52.8367C53.5131 7.18382 54.0872 7.30462 54.56 7.54625C55.0406 7.78788 55.399 8.12115 55.6354 8.54609C55.8718 8.96269 55.99 9.42928 55.99 9.94585C55.99 10.5291 55.827 11.0499 55.5013 11.5081C55.1829 11.9664 54.7106 12.2913 54.0838 12.4829L56.0634 15.9574H53.7046ZM51.4192 11.1331H52.7146C53.0977 11.1331 53.3828 11.0373 53.57 10.8457C53.7659 10.6541 53.8638 10.3833 53.8638 10.0333C53.8638 9.70007 53.7659 9.43762 53.57 9.24597C53.3828 9.05432 53.0977 8.9585 52.7146 8.9585H51.4192V11.1331ZM66.6561 7.18382L63.6132 15.9574H60.9983L57.9554 7.18382H60.1795L62.3058 13.8077L64.4445 7.18382H66.6561ZM70.9207 8.89603V10.6707H73.719V12.3204H70.9207V14.2452H74.0857V15.9574H68.8311V7.18382H74.0857V8.89603H70.9207ZM81.1183 15.9574L79.3342 12.6454H78.8334V15.9574H76.7438V7.18382H80.2508C80.9268 7.18382 81.5014 7.30462 81.9738 7.54625C82.4543 7.78788 82.8128 8.12115 83.0492 8.54609C83.2856 8.96269 83.4038 9.42928 83.4038 9.94585C83.4038 10.5291 83.2407 11.0499 82.915 11.5081C82.5971 11.9664 82.1247 12.2913 81.4971 12.4829L83.4771 15.9574H81.1183ZM78.8334 11.1331H80.1288C80.5114 11.1331 80.7965 11.0373 80.9842 10.8457C81.1796 10.6541 81.2771 10.3833 81.2771 10.0333C81.2771 9.70007 81.1796 9.43762 80.9842 9.24597C80.7965 9.05432 80.5114 8.9585 80.1288 8.9585H78.8334V11.1331ZM88.1066 7.18382V15.9574H86.017V7.18382H88.1066ZM98.5967 15.9574H96.5071L93.0121 10.5458V15.9574H90.9221V7.18382H93.0121L96.5071 12.6204V7.18382H98.5967V15.9574ZM105.47 16.0449C104.664 16.0449 103.922 15.8532 103.246 15.47C102.578 15.0867 102.044 14.5534 101.645 13.8702C101.254 13.1787 101.059 12.4038 101.059 11.5456C101.059 10.6874 101.254 9.91669 101.645 9.23348C102.044 8.55023 102.578 8.01703 103.246 7.63374C103.922 7.25049 104.664 7.05884 105.47 7.05884C106.276 7.05884 107.014 7.25049 107.682 7.63374C108.358 8.01703 108.888 8.55023 109.271 9.23348C109.661 9.91669 109.857 10.6874 109.857 11.5456C109.857 12.4038 109.661 13.1787 109.271 13.8702C108.879 14.5534 108.35 15.0867 107.682 15.47C107.014 15.8532 106.276 16.0449 105.47 16.0449ZM105.47 14.0952C106.154 14.0952 106.7 13.8619 107.108 13.3953C107.523 12.9287 107.731 12.3121 107.731 11.5456C107.731 10.7707 107.523 10.1542 107.108 9.69588C106.7 9.22929 106.154 8.996 105.47 8.996C104.777 8.996 104.224 9.22515 103.808 9.6834C103.401 10.1416 103.197 10.7624 103.197 11.5456C103.197 12.3204 103.401 12.9412 103.808 13.4078C104.224 13.866 104.777 14.0952 105.47 14.0952Z" fill="white"/>
<path d="M34.496 22.373H34.14L32.709 20.1533V22.373H32.353V19.5814H32.709L34.14 21.7971V19.5814H34.496V22.373ZM38.1844 19.8814V20.8132H39.1775V21.1132H38.1844V22.073H39.2948V22.373H37.8284V19.5814H39.2948V19.8814H38.1844ZM44.2373 19.5854V19.8814H43.494V22.373H43.1381V19.8814H42.3914V19.5854H44.2373ZM50.8265 19.5854L50.0367 22.373H49.6381L49.0044 20.1294L48.3474 22.373L47.9523 22.377L47.19 19.5854H47.5692L48.1636 21.949L48.8206 19.5854H49.2192L49.8451 21.9411L50.4434 19.5854H50.8265ZM55.1778 22.401C54.925 22.401 54.6938 22.341 54.4854 22.221C54.2766 22.0983 54.1114 21.9291 53.9889 21.7131C53.869 21.4945 53.809 21.2492 53.809 20.9772C53.809 20.7052 53.869 20.4613 53.9889 20.2453C54.1114 20.0267 54.2766 19.8574 54.4854 19.7374C54.6938 19.6148 54.925 19.5535 55.1778 19.5535C55.4331 19.5535 55.6652 19.6148 55.8736 19.7374C56.0823 19.8574 56.2467 20.0254 56.3666 20.2413C56.4861 20.4573 56.5465 20.7026 56.5465 20.9772C56.5465 21.2518 56.4861 21.4971 56.3666 21.7131C56.2467 21.9291 56.0823 22.0983 55.8736 22.221C55.6652 22.341 55.4331 22.401 55.1778 22.401ZM55.1778 22.085C55.368 22.085 55.5388 22.0397 55.6898 21.949C55.8438 21.8584 55.9637 21.7291 56.0496 21.5611C56.1384 21.3932 56.1829 21.1985 56.1829 20.9772C56.1829 20.7532 56.1384 20.5586 56.0496 20.3933C55.9637 20.2253 55.8451 20.096 55.6941 20.0054C55.5427 19.9147 55.3706 19.8694 55.1778 19.8694C54.9849 19.8694 54.8128 19.9147 54.6614 20.0054C54.51 20.096 54.3905 20.2253 54.3016 20.3933C54.2158 20.5586 54.1727 20.7532 54.1727 20.9772C54.1727 21.1985 54.2158 21.3932 54.3016 21.5611C54.3905 21.7291 54.51 21.8584 54.6614 21.949C54.8154 22.0397 54.9871 22.085 55.1778 22.085ZM61.1773 22.373L60.5281 21.2331H60.098V22.373H59.7421V19.5854H60.6221C60.8279 19.5854 61.0013 19.6214 61.1419 19.6934C61.2856 19.7654 61.3921 19.8627 61.4628 19.9854C61.5332 20.108 61.5681 20.248 61.5681 20.4053C61.5681 20.5973 61.5137 20.7666 61.4042 20.9132C61.2972 21.0598 61.1354 21.1572 60.9193 21.2052L61.6035 22.373H61.1773ZM60.098 20.9412H60.6221C60.8149 20.9412 60.9594 20.8932 61.0561 20.7972C61.1527 20.6986 61.2006 20.5679 61.2006 20.4053C61.2006 20.24 61.1527 20.112 61.0561 20.0214C60.962 19.9307 60.8175 19.8854 60.6221 19.8854H60.098V20.9412ZM66.3253 22.373L65.2033 21.1012V22.373H64.8474V19.5854H65.2033V20.8772L66.3292 19.5854H66.7786L65.5432 20.9812L66.7907 22.373H66.3253ZM75.0476 20.9372C75.1464 20.9532 75.2366 20.9946 75.3172 21.0612C75.4005 21.1278 75.4656 21.2105 75.5127 21.3092C75.5623 21.4078 75.5873 21.5131 75.5873 21.6251C75.5873 21.7664 75.5519 21.8944 75.4812 22.009C75.4113 22.121 75.3082 22.2104 75.1723 22.277C75.0399 22.341 74.8816 22.373 74.6991 22.373H73.6823V19.5854H74.6603C74.8453 19.5854 75.0032 19.6174 75.1335 19.6814C75.2638 19.7428 75.3617 19.8267 75.4268 19.9334C75.4919 20.04 75.5243 20.16 75.5243 20.2933C75.5243 20.4586 75.4799 20.596 75.3914 20.7052C75.3052 20.8119 75.1908 20.8892 75.0476 20.9372ZM74.0387 20.7892H74.637C74.8035 20.7892 74.9325 20.7493 75.0239 20.6693C75.1149 20.5893 75.1606 20.4786 75.1606 20.3373C75.1606 20.196 75.1149 20.0853 75.0239 20.0054C74.9325 19.9254 74.8009 19.8854 74.6292 19.8854H74.0387V20.7892ZM74.668 22.073C74.8453 22.073 74.9834 22.0304 75.0826 21.945C75.1814 21.8597 75.231 21.7411 75.231 21.5891C75.231 21.4345 75.1792 21.3131 75.0748 21.2252C74.9704 21.1345 74.8311 21.0892 74.6564 21.0892H74.0387V22.073H74.668ZM79.1552 19.5854V21.3491C79.1552 21.5971 79.2138 21.7811 79.3312 21.901C79.4507 22.021 79.6163 22.081 79.8277 22.081C80.036 22.081 80.1991 22.021 80.3164 21.901C80.4363 21.7811 80.4959 21.5971 80.4959 21.3491V19.5854H80.8522V21.3452C80.8522 21.5771 80.8065 21.7731 80.715 21.933C80.624 22.0904 80.5002 22.2077 80.3436 22.285C80.1896 22.3623 80.0166 22.401 79.8234 22.401C79.631 22.401 79.4563 22.3623 79.2997 22.285C79.1457 22.2077 79.0232 22.0904 78.9317 21.933C78.8433 21.7731 78.7988 21.5771 78.7988 21.3452V19.5854H79.1552ZM85.0356 22.401C84.8558 22.401 84.6944 22.369 84.5512 22.305C84.4101 22.2383 84.2993 22.1477 84.2186 22.033C84.1375 21.9157 84.0961 21.7811 84.0931 21.6291H84.4727C84.4861 21.7597 84.5378 21.8704 84.6293 21.961C84.7229 22.049 84.8588 22.093 85.0356 22.093C85.2052 22.093 85.338 22.0504 85.4347 21.9651C85.5334 21.877 85.5835 21.7651 85.5835 21.6291C85.5835 21.5225 85.5546 21.4358 85.4972 21.3692C85.4398 21.3025 85.3682 21.2518 85.2824 21.2172C85.1961 21.1825 85.0801 21.1452 84.9338 21.1052C84.7544 21.0572 84.6099 21.0092 84.5003 20.9612C84.3929 20.9132 84.3006 20.8386 84.2225 20.7373C84.147 20.6333 84.109 20.4946 84.109 20.3213C84.109 20.1693 84.147 20.0347 84.2225 19.9174C84.298 19.8001 84.4037 19.7094 84.5391 19.6454C84.6772 19.5814 84.835 19.5494 85.0123 19.5494C85.2681 19.5494 85.4765 19.6148 85.6378 19.7454C85.8026 19.876 85.8949 20.0494 85.9156 20.2653H85.5248C85.5114 20.1587 85.4571 20.0653 85.3605 19.9854C85.2638 19.9027 85.1361 19.8614 84.977 19.8614C84.8286 19.8614 84.7074 19.9014 84.6133 19.9814C84.5197 20.0587 84.4727 20.168 84.4727 20.3093C84.4727 20.4106 84.5003 20.4933 84.5547 20.5573C84.612 20.6213 84.6815 20.6706 84.7621 20.7052C84.8454 20.7373 84.9619 20.7746 85.1098 20.8172C85.2901 20.8679 85.4347 20.9185 85.5442 20.9692C85.6538 21.0172 85.7474 21.0932 85.8255 21.1972C85.904 21.2985 85.9428 21.4371 85.9428 21.6131C85.9428 21.7491 85.9079 21.877 85.8376 21.997C85.7668 22.117 85.6628 22.2143 85.5248 22.289C85.3863 22.3637 85.2237 22.401 85.0356 22.401ZM89.5487 19.5854V22.373H89.1928V19.5854H89.5487ZM95.0236 22.373H94.6682L93.2369 20.1533V22.373H92.881V19.5814H93.2369L94.6682 21.7971V19.5814H95.0236V22.373ZM98.7123 19.8814V20.8132H99.7058V21.1132H98.7123V22.073H99.8231V22.373H98.3564V19.5814H99.8231V19.8814H98.7123ZM103.951 22.401C103.772 22.401 103.61 22.369 103.467 22.305C103.326 22.2383 103.215 22.1477 103.134 22.033C103.054 21.9157 103.012 21.7811 103.009 21.6291H103.388C103.401 21.7597 103.454 21.8704 103.545 21.961C103.639 22.049 103.774 22.093 103.951 22.093C104.121 22.093 104.254 22.0504 104.351 21.9651C104.45 21.877 104.499 21.7651 104.499 21.6291C104.499 21.5225 104.47 21.4358 104.413 21.3692C104.356 21.3025 104.284 21.2518 104.198 21.2172C104.112 21.1825 103.996 21.1452 103.85 21.1052C103.67 21.0572 103.526 21.0092 103.416 20.9612C103.309 20.9132 103.217 20.8386 103.138 20.7373C103.063 20.6333 103.025 20.4946 103.025 20.3213C103.025 20.1693 103.063 20.0347 103.138 19.9174C103.214 19.8001 103.319 19.7094 103.455 19.6454C103.593 19.5814 103.751 19.5494 103.928 19.5494C104.184 19.5494 104.392 19.6148 104.554 19.7454C104.718 19.876 104.811 20.0494 104.831 20.2653H104.44C104.427 20.1587 104.373 20.0653 104.276 19.9854C104.18 19.9027 104.052 19.8614 103.893 19.8614C103.745 19.8614 103.623 19.9014 103.529 19.9814C103.435 20.0587 103.388 20.168 103.388 20.3093C103.388 20.4106 103.416 20.4933 103.471 20.5573C103.528 20.6213 103.597 20.6706 103.678 20.7052C103.761 20.7373 103.877 20.7746 104.026 20.8172C104.206 20.8679 104.351 20.9185 104.46 20.9692C104.569 21.0172 104.664 21.0932 104.742 21.1972C104.82 21.2985 104.859 21.4371 104.859 21.6131C104.859 21.7491 104.824 21.877 104.753 21.997C104.683 22.117 104.579 22.2143 104.44 22.289C104.302 22.3637 104.139 22.401 103.951 22.401ZM108.973 22.401C108.793 22.401 108.631 22.369 108.488 22.305C108.347 22.2383 108.236 22.1477 108.155 22.033C108.074 21.9157 108.033 21.7811 108.03 21.6291H108.41C108.423 21.7597 108.475 21.8704 108.566 21.961C108.66 22.049 108.796 22.093 108.973 22.093C109.142 22.093 109.275 22.0504 109.372 21.9651C109.47 21.877 109.52 21.7651 109.52 21.6291C109.52 21.5225 109.492 21.4358 109.434 21.3692C109.377 21.3025 109.305 21.2518 109.219 21.2172C109.133 21.1825 109.017 21.1452 108.871 21.1052C108.691 21.0572 108.547 21.0092 108.437 20.9612C108.33 20.9132 108.237 20.8386 108.159 20.7373C108.084 20.6333 108.046 20.4946 108.046 20.3213C108.046 20.1693 108.084 20.0347 108.159 19.9174C108.235 19.8001 108.341 19.7094 108.476 19.6454C108.614 19.5814 108.772 19.5494 108.949 19.5494C109.205 19.5494 109.413 19.6148 109.575 19.7454C109.739 19.876 109.832 20.0494 109.852 20.2653H109.462C109.448 20.1587 109.394 20.0653 109.297 19.9854C109.201 19.9027 109.073 19.8614 108.914 19.8614C108.765 19.8614 108.644 19.9014 108.55 19.9814C108.457 20.0587 108.41 20.168 108.41 20.3093C108.41 20.4106 108.437 20.4933 108.492 20.5573C108.549 20.6213 108.618 20.6706 108.699 20.7052C108.783 20.7373 108.899 20.7746 109.047 20.8172C109.227 20.8679 109.372 20.9185 109.481 20.9692C109.591 21.0172 109.684 21.0932 109.762 21.1972C109.841 21.2985 109.88 21.4371 109.88 21.6131C109.88 21.7491 109.845 21.877 109.774 21.997C109.704 22.117 109.6 22.2143 109.462 22.289C109.324 22.3637 109.161 22.401 108.973 22.401Z" fill="#0DC763"/>
<path d="M23.8103 0.0200442L3.22401 5.66149C2.91932 5.745 2.73851 6.06534 2.82013 6.37694L3.93123 10.6178C4.01287 10.9294 4.32609 11.1143 4.63077 11.0308L25.2171 5.38937C25.5218 5.30585 25.7026 4.98556 25.621 4.67391L24.5099 0.4331C24.4282 0.121485 24.115 -0.0634417 23.8103 0.0200442Z" fill="#0DC763"/>
<path d="M22.4623 9.35177L1.87599 14.9932C1.5713 15.0767 1.39048 15.397 1.47211 15.7087L2.58317 19.9494C2.66484 20.2611 2.97805 20.446 3.28274 20.3625L23.869 14.7211C24.1738 14.6376 24.3546 14.3173 24.2729 14.0056L23.1619 9.76484C23.0802 9.45319 22.767 9.2683 22.4623 9.35177Z" fill="#F7DD41"/>
<path d="M21.0098 18.7442L0.423516 24.3856C0.118786 24.4692 -0.0620322 24.7894 0.0195986 25.1011L1.1307 29.3419C1.21233 29.6535 1.52553 29.8384 1.83022 29.7549L22.4165 24.1135C22.7213 24.03 22.902 23.7097 22.8204 23.398L21.7094 19.1572C21.6277 18.8456 21.3145 18.6606 21.0098 18.7442Z" fill="#F23B3B"/>
</g>
<defs>
<clipPath id="clip0_694_8">
<rect width="110" height="30" fill="white"/>
</clipPath>
</defs>
</svg>
